<?xml version="1.0" encoding="UTF-8"?>
<!-- Chuga Chocho — CAPE CANAVERAL — a rocket off Pad 39, the VAB, saltmarsh and a gator
     Generated by tools/gen-scenes.py. Furniture (road, track, both gates) is shared
     and identical across scenes; only the artwork differs. See SCENE_GUIDE.md.
     Horizon y=300 · track band y=450-516 (kept clear) · train renders between
     #gate-far and #scenery-front. -->
<svg xmlns="http://www.w3.org/2000/svg" viewBox="0 0 1280 720" id="scene-cape-canaveral">
  <defs>
    <linearGradient id="skyg" x1="0" y1="0" x2="0" y2="1">
      <stop offset="0" stop-color="#1663a8"/><stop offset="0.45" stop-color="#3d92cf"/>
      <stop offset="0.82" stop-color="#8fc4e2"/><stop offset="1" stop-color="#cfe4ec"/>
    </linearGradient>
    <linearGradient id="lake" x1="0" y1="0" x2="0" y2="1">
      <stop offset="0" stop-color="#2c6f96"/><stop offset="1" stop-color="#4f9cb8"/>
    </linearGradient>
    <linearGradient id="sand" x1="0" y1="0" x2="0" y2="1">
      <stop offset="0" stop-color="#dfd3ae"/><stop offset="1" stop-color="#c6b78c"/>
    </linearGradient>
    <radialGradient id="sung" cx="0.5" cy="0.5" r="0.5">
      <stop offset="0" stop-color="#fff3c0" stop-opacity="0.75"/>
      <stop offset="0.55" stop-color="#ffb54a" stop-opacity="0.3"/>
      <stop offset="1" stop-color="#ff9a2e" stop-opacity="0"/>
    </radialGradient>
  </defs>
  <g id="sky">
    <rect x="0" y="0" width="1280" height="304" fill="url(#skyg)"/>
    <g fill="#ffffff" opacity="0.9"><g><ellipse cx="180" cy="96" rx="52" ry="25"/><ellipse cx="149" cy="105" rx="31" ry="19"/><ellipse cx="212" cy="103" rx="29" ry="17"/><ellipse cx="180" cy="114" rx="48" ry="10" fill="#d3e2ea"/></g><g><ellipse cx="486" cy="66" rx="40" ry="19"/><ellipse cx="462" cy="73" rx="24" ry="14"/><ellipse cx="511" cy="72" rx="22" ry="13"/><ellipse cx="486" cy="80" rx="37" ry="8" fill="#d3e2ea"/></g><g><ellipse cx="1140" cy="110" rx="58" ry="28"/><ellipse cx="1105" cy="120" rx="35" ry="21"/><ellipse cx="1176" cy="118" rx="32" ry="19"/><ellipse cx="1140" cy="130" rx="53" ry="12" fill="#d3e2ea"/></g></g>
    <g stroke="#ffffff" stroke-width="3" fill="none" opacity="0.35" stroke-linecap="round"><path d="M60,52 q60,-10 130,-4"/><path d="M1010,44 q70,-8 150,-2"/></g>
  </g>
  <g id="far">
    <g id="vab"><rect x="118" y="176" width="176" height="92" fill="#d8dad6"/><rect x="118" y="176" width="176" height="10" fill="#eceee9"/><rect x="118" y="176" width="46" height="92" fill="#e4e6e2"/><rect x="132" y="192" width="26" height="76" fill="#9aa0a2"/><rect x="132" y="192" width="26" height="7" fill="#7f8688"/><g fill="#8a9092"><rect x="132" y="208" width="26" height="2.5"/><rect x="132" y="224" width="26" height="2.5"/><rect x="132" y="240" width="26" height="2.5"/><rect x="132" y="256" width="26" height="2.5"/></g><rect x="174" y="192" width="26" height="76" fill="#9aa0a2"/><rect x="174" y="192" width="26" height="7" fill="#7f8688"/><g fill="#8a9092"><rect x="174" y="208" width="26" height="2.5"/><rect x="174" y="224" width="26" height="2.5"/><rect x="174" y="240" width="26" height="2.5"/><rect x="174" y="256" width="26" height="2.5"/></g><rect x="216" y="192" width="26" height="76" fill="#9aa0a2"/><rect x="216" y="192" width="26" height="7" fill="#7f8688"/><g fill="#8a9092"><rect x="216" y="208" width="26" height="2.5"/><rect x="216" y="224" width="26" height="2.5"/><rect x="216" y="240" width="26" height="2.5"/><rect x="216" y="256" width="26" height="2.5"/></g><rect x="258" y="192" width="26" height="76" fill="#9aa0a2"/><rect x="258" y="192" width="26" height="7" fill="#7f8688"/><g fill="#8a9092"><rect x="258" y="208" width="26" height="2.5"/><rect x="258" y="224" width="26" height="2.5"/><rect x="258" y="240" width="26" height="2.5"/><rect x="258" y="256" width="26" height="2.5"/></g><rect x="122" y="182" width="26" height="16" fill="#f2f2ee"/><rect x="122" y="183" width="26" height="1.5" fill="#c0392b"/><rect x="122" y="186" width="26" height="1.5" fill="#c0392b"/><rect x="122" y="189" width="26" height="1.5" fill="#c0392b"/><rect x="122" y="192" width="26" height="1.5" fill="#c0392b"/><rect x="122" y="195" width="26" height="1.5" fill="#c0392b"/><rect x="122" y="182" width="11" height="8" fill="#2f4d8f"/><circle cx="276" cy="192" r="9" fill="#2f4d8f"/><path d="M269,194 q7,-6 14,-2" stroke="#c0392b" stroke-width="2" fill="none"/><g fill="#c6c9c4"><rect x="60" y="244" width="52" height="24"/><rect x="300" y="248" width="70" height="20"/><rect x="380" y="252" width="44" height="16"/></g><g><rect x="437" y="240" width="4" height="28" fill="#9aa0a2"/><ellipse cx="439" cy="236" rx="15" ry="11" fill="#e4e6e2"/><g stroke="#9aa0a2" stroke-width="2"><path d="M430,246 L432,268 M448,246 L446,268"/></g></g><g><circle cx="500" cy="254" r="12" fill="#eceee9"/><circle cx="496" cy="250" r="7" fill="#f7f8f6"/><rect x="489" y="258" width="22" height="10" fill="#b4b8b3"/></g><g><circle cx="540" cy="254" r="12" fill="#eceee9"/><circle cx="536" cy="250" r="7" fill="#f7f8f6"/><rect x="529" y="258" width="22" height="10" fill="#b4b8b3"/></g></g>
    <rect x="0" y="258" width="1280" height="34" fill="url(#lake)"/>
    <g fill="#ffffff" opacity="0.22"><rect x="60" y="280" width="70" height="2" rx="1"/><rect x="250" y="288" width="92" height="2" rx="1"/><rect x="430" y="278" width="64" height="2" rx="1"/><rect x="620" y="286" width="80" height="2" rx="1"/><rect x="1010" y="282" width="74" height="2" rx="1"/><rect x="1180" y="290" width="60" height="2" rx="1"/></g>
    <g fill="#ffb54a" opacity="0.5"><rect x="865" y="276" width="26" height="2.5" rx="1.2"/><rect x="856" y="281" width="44" height="2.5" rx="1.2"/><rect x="844" y="286" width="68" height="2.5" rx="1.2"/><rect x="830" y="291" width="96" height="2.5" rx="1.2"/></g>
    <rect x="0" y="292" width="1280" height="12" fill="#4a6b46"/>
    <rect x="0" y="292" width="1280" height="3" fill="#5c8054"/>
    <g fill="#3c5a3a"><ellipse cx="50" cy="294" rx="30" ry="13"/><ellipse cx="150" cy="294" rx="22" ry="10"/><ellipse cx="270" cy="294" rx="28" ry="12"/><ellipse cx="390" cy="294" rx="20" ry="9"/><ellipse cx="500" cy="294" rx="26" ry="11"/><ellipse cx="600" cy="294" rx="22" ry="10"/><ellipse cx="700" cy="294" rx="27" ry="12"/><ellipse cx="1020" cy="294" rx="24" ry="11"/><ellipse cx="1120" cy="294" rx="30" ry="13"/><ellipse cx="1240" cy="294" rx="22" ry="10"/></g>
    <polygon points="286,292 470,292 700,304 250,304" fill="#cbc4a8"/>
    <polygon points="286,292 470,292 700,304 660,304 300,295" fill="#dbd5bb"/>
    <g stroke="#b6ae92" stroke-width="2" opacity="0.7"><path d="M356,292 L392,304"/><path d="M420,292 L520,304"/></g>
    <g id="pad"><polygon points="790,286 996,286 1016,304 770,304" fill="#c6c9c4"/><polygon points="790,286 996,286 1000,292 792,292" fill="#dcdfda"/><g transform="translate(958,292) scale(0.82)"><g fill="none"><path d="M-16,0 L-16,-206" stroke="#b4563a" stroke-width="5"/><path d="M16,0 L16,-206" stroke="#b4563a" stroke-width="5"/><path d="M-16,-14 L16,-32 M16,-14 L-16,-32" stroke="#8f4029" stroke-width="2.6"/><path d="M-16,-38 L16,-56 M16,-38 L-16,-56" stroke="#8f4029" stroke-width="2.6"/><path d="M-16,-62 L16,-80 M16,-62 L-16,-80" stroke="#8f4029" stroke-width="2.6"/><path d="M-16,-86 L16,-104 M16,-86 L-16,-104" stroke="#8f4029" stroke-width="2.6"/><path d="M-16,-110 L16,-128 M16,-110 L-16,-128" stroke="#8f4029" stroke-width="2.6"/><path d="M-16,-134 L16,-152 M16,-134 L-16,-152" stroke="#8f4029" stroke-width="2.6"/><path d="M-16,-158 L16,-176 M16,-158 L-16,-176" stroke="#8f4029" stroke-width="2.6"/><path d="M-16,-182 L16,-200 M16,-182 L-16,-200" stroke="#8f4029" stroke-width="2.6"/></g><g><rect x="-24" y="-30" width="48" height="6" fill="#8f4029"/><rect x="-46" y="-30" width="24" height="5" fill="#b4563a"/><rect x="-24" y="-60" width="48" height="6" fill="#8f4029"/><rect x="-46" y="-60" width="24" height="5" fill="#b4563a"/><rect x="-24" y="-90" width="48" height="6" fill="#8f4029"/><rect x="-46" y="-90" width="24" height="5" fill="#b4563a"/><rect x="-24" y="-120" width="48" height="6" fill="#8f4029"/><rect x="-46" y="-120" width="24" height="5" fill="#b4563a"/><rect x="-24" y="-150" width="48" height="6" fill="#8f4029"/><rect x="-46" y="-150" width="24" height="5" fill="#b4563a"/><rect x="-24" y="-180" width="48" height="6" fill="#8f4029"/><rect x="-46" y="-180" width="24" height="5" fill="#b4563a"/></g><rect x="-26" y="-222" width="52" height="18" fill="#8f4029"/><rect x="-3" y="-252" width="6" height="30" fill="#b4563a"/><path d="M-46,-186 L-96,-178 L-96,-170 L-46,-178 Z" fill="#8f4029"/></g><circle class="cc-rocket-glow" cx="886" cy="218" r="190" fill="url(#sung)"/><g class="cc-rocket" data-pad-dy="74"><g transform="translate(886,192) scale(0.62)"><rect x="-15" y="-206" width="30" height="206" fill="#f4f4f0"/><rect x="-15" y="-206" width="10" height="206" fill="#cfd2ce"/><g><rect x="-15" y="-46" width="30" height="9" fill="#22262b"/><rect x="-15" y="-46" width="8" height="9" fill="#3b4148"/><rect x="-15" y="-92" width="30" height="9" fill="#22262b"/><rect x="-15" y="-92" width="8" height="9" fill="#3b4148"/><rect x="-15" y="-138" width="30" height="9" fill="#22262b"/><rect x="-15" y="-138" width="8" height="9" fill="#3b4148"/><rect x="-15" y="-184" width="30" height="9" fill="#22262b"/><rect x="-15" y="-184" width="8" height="9" fill="#3b4148"/></g><path d="M-15,-206 L0,-238 L15,-206 Z" fill="#f4f4f0"/><path d="M-15,-206 L0,-238 L-5,-206 Z" fill="#cfd2ce"/><rect x="-3" y="-266" width="6" height="30" fill="#22262b"/><rect x="-1.4" y="-282" width="3" height="18" fill="#22262b"/><text x="0" y="-108" text-anchor="middle" font-family="Trebuchet MS,Arial,sans-serif" font-size="13" font-weight="bold" fill="#c0392b" letter-spacing="1">USA</text><g fill="#f4f4f0"><polygon points="-15,-30 -30,4 -15,4"/><polygon points="15,-30 30,4 15,4"/></g><g fill="#cfd2ce"><polygon points="-15,-30 -30,4 -22,4"/></g><g fill="#22262b"><ellipse cx="-9" cy="2" rx="4.4" ry="4"/><ellipse cx="0" cy="2" rx="4.4" ry="4"/><ellipse cx="9" cy="2" rx="4.4" ry="4"/></g></g><g class="cc-flame"><g transform="translate(886,190) scale(1.05)"><path d="M-22,0 C -30,34 -22,72 -8,104 C -2,80 2,80 8,104 C 22,72 30,34 22,0 Z" fill="#ff9a2e"/><path d="M-14,0 C -20,30 -13,62 -4,86 C -1,66 1,66 4,86 C 13,62 20,30 14,0 Z" fill="#ffd35e"/><path d="M-7,0 C -10,26 -6,50 0,68 C 6,50 10,26 7,0 Z" fill="#fff6d2"/></g></g></g><g class="cc-rocket-smoke"><g><ellipse cx="626" cy="300" rx="82" ry="51" fill="#f4f6f7" opacity="0.95"/><ellipse cx="716" cy="278" rx="72" ry="45" fill="#f4f6f7" opacity="0.98"/><ellipse cx="792" cy="298" rx="64" ry="40" fill="#f4f6f7" opacity="0.96"/><ellipse cx="862" cy="314" rx="54" ry="33" fill="#f4f6f7" opacity="0.92"/><ellipse cx="932" cy="292" rx="68" ry="42" fill="#f4f6f7" opacity="0.96"/><ellipse cx="1010" cy="308" rx="76" ry="47" fill="#f4f6f7" opacity="0.94"/><ellipse cx="1094" cy="288" rx="62" ry="38" fill="#f4f6f7" opacity="0.92"/><ellipse cx="1176" cy="306" rx="72" ry="45" fill="#f4f6f7" opacity="0.9"/><ellipse cx="1258" cy="294" rx="56" ry="35" fill="#f4f6f7" opacity="0.86"/><ellipse cx="546" cy="310" rx="62" ry="38" fill="#f4f6f7" opacity="0.88"/><ellipse cx="466" cy="298" rx="50" ry="31" fill="#f4f6f7" opacity="0.8"/><ellipse cx="1328" cy="310" rx="48" ry="30" fill="#f4f6f7" opacity="0.8"/><ellipse cx="756" cy="234" rx="52" ry="32" fill="#f4f6f7" opacity="0.9"/><ellipse cx="924" cy="224" rx="46" ry="29" fill="#f4f6f7" opacity="0.88"/><ellipse cx="1062" cy="242" rx="40" ry="25" fill="#f4f6f7" opacity="0.84"/><ellipse cx="846" cy="192" rx="36" ry="22" fill="#f4f6f7" opacity="0.8"/><ellipse cx="986" cy="184" rx="30" ry="19" fill="#f4f6f7" opacity="0.72"/><ellipse cx="666" cy="216" rx="34" ry="21" fill="#f4f6f7" opacity="0.78"/><ellipse cx="626" cy="333" rx="66" ry="25" fill="#d2d8dc" opacity="0.75"/><ellipse cx="716" cy="307" rx="58" ry="22" fill="#d2d8dc" opacity="0.75"/><ellipse cx="792" cy="324" rx="51" ry="19" fill="#d2d8dc" opacity="0.75"/><ellipse cx="862" cy="336" rx="43" ry="16" fill="#d2d8dc" opacity="0.75"/><ellipse cx="932" cy="319" rx="54" ry="20" fill="#d2d8dc" opacity="0.75"/><ellipse cx="1010" cy="338" rx="61" ry="23" fill="#d2d8dc" opacity="0.75"/><ellipse cx="1094" cy="313" rx="50" ry="19" fill="#d2d8dc" opacity="0.75"/><ellipse cx="1176" cy="335" rx="58" ry="22" fill="#d2d8dc" opacity="0.75"/><ellipse cx="1258" cy="316" rx="45" ry="17" fill="#d2d8dc" opacity="0.75"/><ellipse cx="792" cy="298" rx="45" ry="26" fill="#ffcf8a" opacity="0.4"/><ellipse cx="862" cy="314" rx="38" ry="22" fill="#ffcf8a" opacity="0.4"/><ellipse cx="932" cy="292" rx="48" ry="27" fill="#ffcf8a" opacity="0.4"/><ellipse cx="1010" cy="308" rx="53" ry="30" fill="#ffcf8a" opacity="0.4"/></g></g><g class="cc-rocket-puffs" data-pad="886,282"></g></g>
  </g>
  <g id="mid"/>
  <g id="ground">
    <rect x="0" y="300" width="1280" height="420" fill="url(#sand)"/>
    <g fill="#7f9358" opacity="0.62"><ellipse cx="120" cy="330" rx="150" ry="33"/><ellipse cx="430" cy="344" rx="130" ry="29"/><ellipse cx="770" cy="332" rx="160" ry="35"/><ellipse cx="1100" cy="346" rx="140" ry="31"/><ellipse cx="70" cy="400" rx="120" ry="26"/><ellipse cx="990" cy="404" rx="150" ry="33"/><ellipse cx="310" cy="476" rx="170" ry="37"/><ellipse cx="1190" cy="492" rx="140" ry="31"/><ellipse cx="150" cy="566" rx="160" ry="35"/><ellipse cx="870" cy="596" rx="180" ry="40"/><ellipse cx="490" cy="646" rx="150" ry="33"/><ellipse cx="1130" cy="666" rx="160" ry="35"/></g>
    <g stroke="#6f8a4c" stroke-width="2" stroke-linecap="round" fill="none" opacity="0.75"><path d="M22,322 l-5,-11 M27,322 l2,-17 M32,322 l6,-11"/><path d="M56,322 l-3,-10 M61,322 l3,-15 M66,322 l4,-10"/><path d="M90,322 l-5,-16 M95,322 l1,-13 M100,322 l6,-9"/><path d="M124,322 l-3,-15 M129,322 l2,-17 M134,322 l4,-13"/><path d="M158,322 l-5,-14 M163,322 l3,-15 M168,322 l6,-12"/><path d="M192,322 l-3,-13 M197,322 l1,-13 M202,322 l4,-11"/><path d="M226,322 l-5,-12 M231,322 l2,-17 M236,322 l6,-10"/><path d="M260,322 l-3,-11 M265,322 l3,-15 M270,322 l4,-9"/><path d="M294,322 l-5,-10 M299,322 l1,-13 M304,322 l6,-13"/><path d="M328,322 l-3,-16 M333,322 l2,-17 M338,322 l4,-12"/><path d="M362,322 l-5,-15 M367,322 l3,-15 M372,322 l6,-11"/><path d="M396,322 l-3,-14 M401,322 l1,-13 M406,322 l4,-10"/><path d="M430,322 l-5,-13 M435,322 l2,-17 M440,322 l6,-9"/><path d="M464,322 l-3,-12 M469,322 l3,-15 M474,322 l4,-13"/><path d="M498,322 l-5,-11 M503,322 l1,-13 M508,322 l6,-12"/><path d="M532,322 l-3,-10 M537,322 l2,-17 M542,322 l4,-11"/><path d="M566,322 l-5,-16 M571,322 l3,-15 M576,322 l6,-10"/><path d="M600,322 l-3,-15 M605,322 l1,-13 M610,322 l4,-9"/><path d="M634,322 l-5,-14 M639,322 l2,-17 M644,322 l6,-13"/><path d="M668,322 l-3,-13 M673,322 l3,-15 M678,322 l4,-12"/><path d="M702,322 l-5,-12 M707,322 l1,-13 M712,322 l6,-11"/><path d="M736,322 l-3,-11 M741,322 l2,-17 M746,322 l4,-10"/><path d="M770,322 l-5,-10 M775,322 l3,-15 M780,322 l6,-9"/><path d="M804,322 l-3,-16 M809,322 l1,-13 M814,322 l4,-13"/><path d="M838,322 l-5,-15 M843,322 l2,-17 M848,322 l6,-12"/><path d="M872,322 l-3,-14 M877,322 l3,-15 M882,322 l4,-11"/><path d="M906,322 l-5,-13 M911,322 l1,-13 M916,322 l6,-10"/><path d="M940,322 l-3,-12 M945,322 l2,-17 M950,322 l4,-9"/><path d="M974,322 l-5,-11 M979,322 l3,-15 M984,322 l6,-13"/><path d="M1008,322 l-3,-10 M1013,322 l1,-13 M1018,322 l4,-12"/><path d="M1042,322 l-5,-16 M1047,322 l2,-17 M1052,322 l6,-11"/><path d="M1076,322 l-3,-15 M1081,322 l3,-15 M1086,322 l4,-10"/><path d="M1110,322 l-5,-14 M1115,322 l1,-13 M1120,322 l6,-9"/><path d="M1144,322 l-3,-13 M1149,322 l2,-17 M1154,322 l4,-13"/><path d="M1178,322 l-5,-12 M1183,322 l3,-15 M1188,322 l6,-12"/><path d="M1212,322 l-3,-11 M1217,322 l1,-13 M1222,322 l4,-11"/><path d="M1246,322 l-5,-10 M1251,322 l2,-17 M1256,322 l6,-10"/><path d="M14,348 l-5,-10 M19,348 l3,-15 M24,348 l6,-13"/><path d="M48,348 l-3,-16 M53,348 l1,-13 M58,348 l4,-12"/><path d="M82,348 l-5,-15 M87,348 l2,-17 M92,348 l6,-11"/><path d="M116,348 l-3,-14 M121,348 l3,-15 M126,348 l4,-10"/><path d="M150,348 l-5,-13 M155,348 l1,-13 M160,348 l6,-9"/><path d="M184,348 l-3,-12 M189,348 l2,-17 M194,348 l4,-13"/><path d="M218,348 l-5,-11 M223,348 l3,-15 M228,348 l6,-12"/><path d="M252,348 l-3,-10 M257,348 l1,-13 M262,348 l4,-11"/><path d="M286,348 l-5,-16 M291,348 l2,-17 M296,348 l6,-10"/><path d="M320,348 l-3,-15 M325,348 l3,-15 M330,348 l4,-9"/><path d="M354,348 l-5,-14 M359,348 l1,-13 M364,348 l6,-13"/><path d="M388,348 l-3,-13 M393,348 l2,-17 M398,348 l4,-12"/><path d="M422,348 l-5,-12 M427,348 l3,-15 M432,348 l6,-11"/><path d="M456,348 l-3,-11 M461,348 l1,-13 M466,348 l4,-10"/><path d="M490,348 l-5,-10 M495,348 l2,-17 M500,348 l6,-9"/><path d="M524,348 l-3,-16 M529,348 l3,-15 M534,348 l4,-13"/><path d="M558,348 l-5,-15 M563,348 l1,-13 M568,348 l6,-12"/><path d="M592,348 l-3,-14 M597,348 l2,-17 M602,348 l4,-11"/><path d="M626,348 l-5,-13 M631,348 l3,-15 M636,348 l6,-10"/><path d="M660,348 l-3,-12 M665,348 l1,-13 M670,348 l4,-9"/><path d="M694,348 l-5,-11 M699,348 l2,-17 M704,348 l6,-13"/><path d="M728,348 l-3,-10 M733,348 l3,-15 M738,348 l4,-12"/><path d="M762,348 l-5,-16 M767,348 l1,-13 M772,348 l6,-11"/><path d="M796,348 l-3,-15 M801,348 l2,-17 M806,348 l4,-10"/><path d="M830,348 l-5,-14 M835,348 l3,-15 M840,348 l6,-9"/><path d="M864,348 l-3,-13 M869,348 l1,-13 M874,348 l4,-13"/><path d="M898,348 l-5,-12 M903,348 l2,-17 M908,348 l6,-12"/><path d="M932,348 l-3,-11 M937,348 l3,-15 M942,348 l4,-11"/><path d="M966,348 l-5,-10 M971,348 l1,-13 M976,348 l6,-10"/><path d="M1000,348 l-3,-16 M1005,348 l2,-17 M1010,348 l4,-9"/><path d="M1034,348 l-5,-15 M1039,348 l3,-15 M1044,348 l6,-13"/><path d="M1068,348 l-3,-14 M1073,348 l1,-13 M1078,348 l4,-12"/><path d="M1102,348 l-5,-13 M1107,348 l2,-17 M1112,348 l6,-11"/><path d="M1136,348 l-3,-12 M1141,348 l3,-15 M1146,348 l4,-10"/><path d="M1170,348 l-5,-11 M1175,348 l1,-13 M1180,348 l6,-9"/><path d="M1204,348 l-3,-10 M1209,348 l2,-17 M1214,348 l4,-13"/><path d="M1238,348 l-5,-16 M1243,348 l3,-15 M1248,348 l6,-12"/><path d="M1272,348 l-3,-15 M1277,348 l1,-13 M1282,348 l4,-11"/><path d="M16,384 l-3,-12 M21,384 l2,-17 M26,384 l4,-10"/><path d="M50,384 l-5,-11 M55,384 l3,-15 M60,384 l6,-9"/><path d="M84,384 l-3,-10 M89,384 l1,-13 M94,384 l4,-13"/><path d="M118,384 l-5,-16 M123,384 l2,-17 M128,384 l6,-12"/><path d="M152,384 l-3,-15 M157,384 l3,-15 M162,384 l4,-11"/><path d="M186,384 l-5,-14 M191,384 l1,-13 M196,384 l6,-10"/><path d="M220,384 l-3,-13 M225,384 l2,-17 M230,384 l4,-9"/><path d="M254,384 l-5,-12 M259,384 l3,-15 M264,384 l6,-13"/><path d="M288,384 l-3,-11 M293,384 l1,-13 M298,384 l4,-12"/><path d="M322,384 l-5,-10 M327,384 l2,-17 M332,384 l6,-11"/><path d="M356,384 l-3,-16 M361,384 l3,-15 M366,384 l4,-10"/><path d="M390,384 l-5,-15 M395,384 l1,-13 M400,384 l6,-9"/><path d="M424,384 l-3,-14 M429,384 l2,-17 M434,384 l4,-13"/><path d="M458,384 l-5,-13 M463,384 l3,-15 M468,384 l6,-12"/><path d="M492,384 l-3,-12 M497,384 l1,-13 M502,384 l4,-11"/><path d="M526,384 l-5,-11 M531,384 l2,-17 M536,384 l6,-10"/><path d="M560,384 l-3,-10 M565,384 l3,-15 M570,384 l4,-9"/><path d="M594,384 l-5,-16 M599,384 l1,-13 M604,384 l6,-13"/><path d="M628,384 l-3,-15 M633,384 l2,-17 M638,384 l4,-12"/><path d="M662,384 l-5,-14 M667,384 l3,-15 M672,384 l6,-11"/><path d="M696,384 l-3,-13 M701,384 l1,-13 M706,384 l4,-10"/><path d="M730,384 l-5,-12 M735,384 l2,-17 M740,384 l6,-9"/><path d="M764,384 l-3,-11 M769,384 l3,-15 M774,384 l4,-13"/><path d="M798,384 l-5,-10 M803,384 l1,-13 M808,384 l6,-12"/><path d="M832,384 l-3,-16 M837,384 l2,-17 M842,384 l4,-11"/><path d="M866,384 l-5,-15 M871,384 l3,-15 M876,384 l6,-10"/><path d="M900,384 l-3,-14 M905,384 l1,-13 M910,384 l4,-9"/><path d="M934,384 l-5,-13 M939,384 l2,-17 M944,384 l6,-13"/><path d="M968,384 l-3,-12 M973,384 l3,-15 M978,384 l4,-12"/><path d="M1002,384 l-5,-11 M1007,384 l1,-13 M1012,384 l6,-11"/><path d="M1036,384 l-3,-10 M1041,384 l2,-17 M1046,384 l4,-10"/><path d="M1070,384 l-5,-16 M1075,384 l3,-15 M1080,384 l6,-9"/><path d="M1104,384 l-3,-15 M1109,384 l1,-13 M1114,384 l4,-13"/><path d="M1138,384 l-5,-14 M1143,384 l2,-17 M1148,384 l6,-12"/><path d="M1172,384 l-3,-13 M1177,384 l3,-15 M1182,384 l4,-11"/><path d="M1206,384 l-5,-12 M1211,384 l1,-13 M1216,384 l6,-10"/><path d="M1240,384 l-3,-11 M1245,384 l2,-17 M1250,384 l4,-9"/><path d="M1274,384 l-5,-10 M1279,384 l3,-15 M1284,384 l6,-13"/><path d="M9,428 l-4,-12 M14,428 l1,-16 M19,428 l5,-13"/><path d="M43,428 l-6,-11 M48,428 l2,-14 M53,428 l7,-12"/><path d="M77,428 l-4,-10 M82,428 l3,-18 M87,428 l5,-11"/><path d="M111,428 l-6,-16 M116,428 l1,-16 M121,428 l7,-10"/><path d="M145,428 l-4,-15 M150,428 l2,-14 M155,428 l5,-9"/><path d="M179,428 l-6,-14 M184,428 l3,-18 M189,428 l7,-13"/><path d="M213,428 l-4,-13 M218,428 l1,-16 M223,428 l5,-12"/><path d="M247,428 l-6,-12 M252,428 l2,-14 M257,428 l7,-11"/><path d="M281,428 l-4,-11 M286,428 l3,-18 M291,428 l5,-10"/><path d="M315,428 l-6,-10 M320,428 l1,-16 M325,428 l7,-9"/><path d="M349,428 l-4,-16 M354,428 l2,-14 M359,428 l5,-13"/><path d="M383,428 l-6,-15 M388,428 l3,-18 M393,428 l7,-12"/><path d="M417,428 l-4,-14 M422,428 l1,-16 M427,428 l5,-11"/><path d="M451,428 l-6,-13 M456,428 l2,-14 M461,428 l7,-10"/><path d="M485,428 l-4,-12 M490,428 l3,-18 M495,428 l5,-9"/><path d="M519,428 l-6,-11 M524,428 l1,-16 M529,428 l7,-13"/><path d="M553,428 l-4,-10 M558,428 l2,-14 M563,428 l5,-12"/><path d="M587,428 l-6,-16 M592,428 l3,-18 M597,428 l7,-11"/><path d="M621,428 l-4,-15 M626,428 l1,-16 M631,428 l5,-10"/><path d="M655,428 l-6,-14 M660,428 l2,-14 M665,428 l7,-9"/><path d="M689,428 l-4,-13 M694,428 l3,-18 M699,428 l5,-13"/><path d="M723,428 l-6,-12 M728,428 l1,-16 M733,428 l7,-12"/><path d="M757,428 l-4,-11 M762,428 l2,-14 M767,428 l5,-11"/><path d="M791,428 l-6,-10 M796,428 l3,-18 M801,428 l7,-10"/><path d="M825,428 l-4,-16 M830,428 l1,-16 M835,428 l5,-9"/><path d="M859,428 l-6,-15 M864,428 l2,-14 M869,428 l7,-13"/><path d="M893,428 l-4,-14 M898,428 l3,-18 M903,428 l5,-12"/><path d="M927,428 l-6,-13 M932,428 l1,-16 M937,428 l7,-11"/><path d="M961,428 l-4,-12 M966,428 l2,-14 M971,428 l5,-10"/><path d="M995,428 l-6,-11 M1000,428 l3,-18 M1005,428 l7,-9"/><path d="M1029,428 l-4,-10 M1034,428 l1,-16 M1039,428 l5,-13"/><path d="M1063,428 l-6,-16 M1068,428 l2,-14 M1073,428 l7,-12"/><path d="M1097,428 l-4,-15 M1102,428 l3,-18 M1107,428 l5,-11"/><path d="M1131,428 l-6,-14 M1136,428 l1,-16 M1141,428 l7,-10"/><path d="M1165,428 l-4,-13 M1170,428 l2,-14 M1175,428 l5,-9"/><path d="M1199,428 l-6,-12 M1204,428 l3,-18 M1209,428 l7,-13"/><path d="M1233,428 l-4,-11 M1238,428 l1,-16 M1243,428 l5,-12"/><path d="M1267,428 l-6,-10 M1272,428 l2,-14 M1277,428 l7,-11"/><path d="M6,476 l-5,-16 M11,476 l1,-13 M16,476 l6,-10"/><path d="M40,476 l-3,-15 M45,476 l2,-17 M50,476 l4,-9"/><path d="M74,476 l-5,-14 M79,476 l3,-15 M84,476 l6,-13"/><path d="M108,476 l-3,-13 M113,476 l1,-13 M118,476 l4,-12"/><path d="M142,476 l-5,-12 M147,476 l2,-17 M152,476 l6,-11"/><path d="M176,476 l-3,-11 M181,476 l3,-15 M186,476 l4,-10"/><path d="M210,476 l-5,-10 M215,476 l1,-13 M220,476 l6,-9"/><path d="M244,476 l-3,-16 M249,476 l2,-17 M254,476 l4,-13"/><path d="M278,476 l-5,-15 M283,476 l3,-15 M288,476 l6,-12"/><path d="M312,476 l-3,-14 M317,476 l1,-13 M322,476 l4,-11"/><path d="M346,476 l-5,-13 M351,476 l2,-17 M356,476 l6,-10"/><path d="M380,476 l-3,-12 M385,476 l3,-15 M390,476 l4,-9"/><path d="M414,476 l-5,-11 M419,476 l1,-13 M424,476 l6,-13"/><path d="M448,476 l-3,-10 M453,476 l2,-17 M458,476 l4,-12"/><path d="M482,476 l-5,-16 M487,476 l3,-15 M492,476 l6,-11"/><path d="M516,476 l-3,-15 M521,476 l1,-13 M526,476 l4,-10"/><path d="M550,476 l-5,-14 M555,476 l2,-17 M560,476 l6,-9"/><path d="M584,476 l-3,-13 M589,476 l3,-15 M594,476 l4,-13"/><path d="M618,476 l-5,-12 M623,476 l1,-13 M628,476 l6,-12"/><path d="M652,476 l-3,-11 M657,476 l2,-17 M662,476 l4,-11"/><path d="M686,476 l-5,-10 M691,476 l3,-15 M696,476 l6,-10"/><path d="M720,476 l-3,-16 M725,476 l1,-13 M730,476 l4,-9"/><path d="M754,476 l-5,-15 M759,476 l2,-17 M764,476 l6,-13"/><path d="M788,476 l-3,-14 M793,476 l3,-15 M798,476 l4,-12"/><path d="M822,476 l-5,-13 M827,476 l1,-13 M832,476 l6,-11"/><path d="M856,476 l-3,-12 M861,476 l2,-17 M866,476 l4,-10"/><path d="M890,476 l-5,-11 M895,476 l3,-15 M900,476 l6,-9"/><path d="M924,476 l-3,-10 M929,476 l1,-13 M934,476 l4,-13"/><path d="M958,476 l-5,-16 M963,476 l2,-17 M968,476 l6,-12"/><path d="M992,476 l-3,-15 M997,476 l3,-15 M1002,476 l4,-11"/><path d="M1026,476 l-5,-14 M1031,476 l1,-13 M1036,476 l6,-10"/><path d="M1060,476 l-3,-13 M1065,476 l2,-17 M1070,476 l4,-9"/><path d="M1094,476 l-5,-12 M1099,476 l3,-15 M1104,476 l6,-13"/><path d="M1128,476 l-3,-11 M1133,476 l1,-13 M1138,476 l4,-12"/><path d="M1162,476 l-5,-10 M1167,476 l2,-17 M1172,476 l6,-11"/><path d="M1196,476 l-3,-16 M1201,476 l3,-15 M1206,476 l4,-10"/><path d="M1230,476 l-5,-15 M1235,476 l1,-13 M1240,476 l6,-9"/><path d="M1264,476 l-3,-14 M1269,476 l2,-17 M1274,476 l4,-13"/><path d="M19,540 l-6,-15 M24,540 l2,-14 M29,540 l7,-13"/><path d="M53,540 l-4,-14 M58,540 l3,-18 M63,540 l5,-12"/><path d="M87,540 l-6,-13 M92,540 l1,-16 M97,540 l7,-11"/><path d="M121,540 l-4,-12 M126,540 l2,-14 M131,540 l5,-10"/><path d="M155,540 l-6,-11 M160,540 l3,-18 M165,540 l7,-9"/><path d="M189,540 l-4,-10 M194,540 l1,-16 M199,540 l5,-13"/><path d="M223,540 l-6,-16 M228,540 l2,-14 M233,540 l7,-12"/><path d="M257,540 l-4,-15 M262,540 l3,-18 M267,540 l5,-11"/><path d="M291,540 l-6,-14 M296,540 l1,-16 M301,540 l7,-10"/><path d="M325,540 l-4,-13 M330,540 l2,-14 M335,540 l5,-9"/><path d="M359,540 l-6,-12 M364,540 l3,-18 M369,540 l7,-13"/><path d="M393,540 l-4,-11 M398,540 l1,-16 M403,540 l5,-12"/><path d="M427,540 l-6,-10 M432,540 l2,-14 M437,540 l7,-11"/><path d="M461,540 l-4,-16 M466,540 l3,-18 M471,540 l5,-10"/><path d="M495,540 l-6,-15 M500,540 l1,-16 M505,540 l7,-9"/><path d="M529,540 l-4,-14 M534,540 l2,-14 M539,540 l5,-13"/><path d="M563,540 l-6,-13 M568,540 l3,-18 M573,540 l7,-12"/><path d="M597,540 l-4,-12 M602,540 l1,-16 M607,540 l5,-11"/><path d="M631,540 l-6,-11 M636,540 l2,-14 M641,540 l7,-10"/><path d="M665,540 l-4,-10 M670,540 l3,-18 M675,540 l5,-9"/><path d="M699,540 l-6,-16 M704,540 l1,-16 M709,540 l7,-13"/><path d="M733,540 l-4,-15 M738,540 l2,-14 M743,540 l5,-12"/><path d="M767,540 l-6,-14 M772,540 l3,-18 M777,540 l7,-11"/><path d="M801,540 l-4,-13 M806,540 l1,-16 M811,540 l5,-10"/><path d="M835,540 l-6,-12 M840,540 l2,-14 M845,540 l7,-9"/><path d="M869,540 l-4,-11 M874,540 l3,-18 M879,540 l5,-13"/><path d="M903,540 l-6,-10 M908,540 l1,-16 M913,540 l7,-12"/><path d="M937,540 l-4,-16 M942,540 l2,-14 M947,540 l5,-11"/><path d="M971,540 l-6,-15 M976,540 l3,-18 M981,540 l7,-10"/><path d="M1005,540 l-4,-14 M1010,540 l1,-16 M1015,540 l5,-9"/><path d="M1039,540 l-6,-13 M1044,540 l2,-14 M1049,540 l7,-13"/><path d="M1073,540 l-4,-12 M1078,540 l3,-18 M1083,540 l5,-12"/><path d="M1107,540 l-6,-11 M1112,540 l1,-16 M1117,540 l7,-11"/><path d="M1141,540 l-4,-10 M1146,540 l2,-14 M1151,540 l5,-10"/><path d="M1175,540 l-6,-16 M1180,540 l3,-18 M1185,540 l7,-9"/><path d="M1209,540 l-4,-15 M1214,540 l1,-16 M1219,540 l5,-13"/><path d="M1243,540 l-6,-14 M1248,540 l2,-14 M1253,540 l7,-12"/><path d="M1277,540 l-4,-13 M1282,540 l3,-18 M1287,540 l5,-11"/><path d="M21,610 l-4,-10 M26,610 l1,-16 M31,610 l5,-10"/><path d="M55,610 l-6,-16 M60,610 l2,-14 M65,610 l7,-9"/><path d="M89,610 l-4,-15 M94,610 l3,-18 M99,610 l5,-13"/><path d="M123,610 l-6,-14 M128,610 l1,-16 M133,610 l7,-12"/><path d="M157,610 l-4,-13 M162,610 l2,-14 M167,610 l5,-11"/><path d="M191,610 l-6,-12 M196,610 l3,-18 M201,610 l7,-10"/><path d="M225,610 l-4,-11 M230,610 l1,-16 M235,610 l5,-9"/><path d="M259,610 l-6,-10 M264,610 l2,-14 M269,610 l7,-13"/><path d="M293,610 l-4,-16 M298,610 l3,-18 M303,610 l5,-12"/><path d="M327,610 l-6,-15 M332,610 l1,-16 M337,610 l7,-11"/><path d="M361,610 l-4,-14 M366,610 l2,-14 M371,610 l5,-10"/><path d="M395,610 l-6,-13 M400,610 l3,-18 M405,610 l7,-9"/><path d="M429,610 l-4,-12 M434,610 l1,-16 M439,610 l5,-13"/><path d="M463,610 l-6,-11 M468,610 l2,-14 M473,610 l7,-12"/><path d="M497,610 l-4,-10 M502,610 l3,-18 M507,610 l5,-11"/><path d="M531,610 l-6,-16 M536,610 l1,-16 M541,610 l7,-10"/><path d="M565,610 l-4,-15 M570,610 l2,-14 M575,610 l5,-9"/><path d="M599,610 l-6,-14 M604,610 l3,-18 M609,610 l7,-13"/><path d="M633,610 l-4,-13 M638,610 l1,-16 M643,610 l5,-12"/><path d="M667,610 l-6,-12 M672,610 l2,-14 M677,610 l7,-11"/><path d="M701,610 l-4,-11 M706,610 l3,-18 M711,610 l5,-10"/><path d="M735,610 l-6,-10 M740,610 l1,-16 M745,610 l7,-9"/><path d="M769,610 l-4,-16 M774,610 l2,-14 M779,610 l5,-13"/><path d="M803,610 l-6,-15 M808,610 l3,-18 M813,610 l7,-12"/><path d="M837,610 l-4,-14 M842,610 l1,-16 M847,610 l5,-11"/><path d="M871,610 l-6,-13 M876,610 l2,-14 M881,610 l7,-10"/><path d="M905,610 l-4,-12 M910,610 l3,-18 M915,610 l5,-9"/><path d="M939,610 l-6,-11 M944,610 l1,-16 M949,610 l7,-13"/><path d="M973,610 l-4,-10 M978,610 l2,-14 M983,610 l5,-12"/><path d="M1007,610 l-6,-16 M1012,610 l3,-18 M1017,610 l7,-11"/><path d="M1041,610 l-4,-15 M1046,610 l1,-16 M1051,610 l5,-10"/><path d="M1075,610 l-6,-14 M1080,610 l2,-14 M1085,610 l7,-9"/><path d="M1109,610 l-4,-13 M1114,610 l3,-18 M1119,610 l5,-13"/><path d="M1143,610 l-6,-12 M1148,610 l1,-16 M1153,610 l7,-12"/><path d="M1177,610 l-4,-11 M1182,610 l2,-14 M1187,610 l5,-11"/><path d="M1211,610 l-6,-10 M1216,610 l3,-18 M1221,610 l7,-10"/><path d="M1245,610 l-4,-16 M1250,610 l1,-16 M1255,610 l5,-9"/><path d="M1279,610 l-6,-15 M1284,610 l2,-14 M1289,610 l7,-13"/><path d="M12,686 l-3,-15 M17,686 l1,-13 M22,686 l4,-11"/><path d="M46,686 l-5,-14 M51,686 l2,-17 M56,686 l6,-10"/><path d="M80,686 l-3,-13 M85,686 l3,-15 M90,686 l4,-9"/><path d="M114,686 l-5,-12 M119,686 l1,-13 M124,686 l6,-13"/><path d="M148,686 l-3,-11 M153,686 l2,-17 M158,686 l4,-12"/><path d="M182,686 l-5,-10 M187,686 l3,-15 M192,686 l6,-11"/><path d="M216,686 l-3,-16 M221,686 l1,-13 M226,686 l4,-10"/><path d="M250,686 l-5,-15 M255,686 l2,-17 M260,686 l6,-9"/><path d="M284,686 l-3,-14 M289,686 l3,-15 M294,686 l4,-13"/><path d="M318,686 l-5,-13 M323,686 l1,-13 M328,686 l6,-12"/><path d="M352,686 l-3,-12 M357,686 l2,-17 M362,686 l4,-11"/><path d="M386,686 l-5,-11 M391,686 l3,-15 M396,686 l6,-10"/><path d="M420,686 l-3,-10 M425,686 l1,-13 M430,686 l4,-9"/><path d="M454,686 l-5,-16 M459,686 l2,-17 M464,686 l6,-13"/><path d="M488,686 l-3,-15 M493,686 l3,-15 M498,686 l4,-12"/><path d="M522,686 l-5,-14 M527,686 l1,-13 M532,686 l6,-11"/><path d="M556,686 l-3,-13 M561,686 l2,-17 M566,686 l4,-10"/><path d="M590,686 l-5,-12 M595,686 l3,-15 M600,686 l6,-9"/><path d="M624,686 l-3,-11 M629,686 l1,-13 M634,686 l4,-13"/><path d="M658,686 l-5,-10 M663,686 l2,-17 M668,686 l6,-12"/><path d="M692,686 l-3,-16 M697,686 l3,-15 M702,686 l4,-11"/><path d="M726,686 l-5,-15 M731,686 l1,-13 M736,686 l6,-10"/><path d="M760,686 l-3,-14 M765,686 l2,-17 M770,686 l4,-9"/><path d="M794,686 l-5,-13 M799,686 l3,-15 M804,686 l6,-13"/><path d="M828,686 l-3,-12 M833,686 l1,-13 M838,686 l4,-12"/><path d="M862,686 l-5,-11 M867,686 l2,-17 M872,686 l6,-11"/><path d="M896,686 l-3,-10 M901,686 l3,-15 M906,686 l4,-10"/><path d="M930,686 l-5,-16 M935,686 l1,-13 M940,686 l6,-9"/><path d="M964,686 l-3,-15 M969,686 l2,-17 M974,686 l4,-13"/><path d="M998,686 l-5,-14 M1003,686 l3,-15 M1008,686 l6,-12"/><path d="M1032,686 l-3,-13 M1037,686 l1,-13 M1042,686 l4,-11"/><path d="M1066,686 l-5,-12 M1071,686 l2,-17 M1076,686 l6,-10"/><path d="M1100,686 l-3,-11 M1105,686 l3,-15 M1110,686 l4,-9"/><path d="M1134,686 l-5,-10 M1139,686 l1,-13 M1144,686 l6,-13"/><path d="M1168,686 l-3,-16 M1173,686 l2,-17 M1178,686 l4,-12"/><path d="M1202,686 l-5,-15 M1207,686 l3,-15 M1212,686 l6,-11"/><path d="M1236,686 l-3,-14 M1241,686 l1,-13 M1246,686 l4,-10"/><path d="M1270,686 l-5,-13 M1275,686 l2,-17 M1280,686 l6,-9"/></g>
    <path d="M-20,398 C 180,392 340,418 452,438 C 560,458 606,492 566,522 C 522,556 330,552 196,572 C 96,586 22,606 -20,602 Z" fill="#4f8fa8" opacity="0.9"/>
    <path d="M-20,398 C 180,392 340,418 452,438 C 560,458 606,492 566,522" fill="none" stroke="#8ccadb" stroke-width="3" opacity="0.75"/>
    <g fill="#6fa8bd" opacity="0.5"><ellipse cx="120" cy="430" rx="46" ry="14"/><ellipse cx="300" cy="470" rx="40" ry="12"/><ellipse cx="420" cy="520" rx="34" ry="10"/></g>
    <g fill="#c9bb92" opacity="0.6"><path d="M600,560 q 40,-6 80,0"/><path d="M900,700 q 40,-6 80,0"/><path d="M1160,600 q 40,-6 80,0"/><path d="M700,660 q 40,-6 80,0"/></g>
  </g>
  <g id="water"/>
  <!-- scenery BEHIND the rails: the train passes in front of this -->
  <g id="scenery-back">
    <g transform="translate(72,400) scale(0.66)"><ellipse cx="0" cy="4" rx="24" ry="6" fill="#000" opacity="0.14"/><path d="M-6,0 C -8,-40 2,-72 8,-100 L18,-98 C 10,-70 2,-40 6,0 Z" fill="#9a8465"/><g fill="#9a8465" opacity="0.5"><rect x="-6" y="-14" width="13" height="3" rx="1.5"/><rect x="-5" y="-25" width="13" height="3" rx="1.5"/><rect x="-5" y="-36" width="13" height="3" rx="1.5"/><rect x="-4" y="-47" width="13" height="3" rx="1.5"/><rect x="-4" y="-58" width="13" height="3" rx="1.5"/><rect x="-3" y="-69" width="13" height="3" rx="1.5"/><rect x="-2" y="-80" width="13" height="3" rx="1.5"/><rect x="-2" y="-91" width="13" height="3" rx="1.5"/></g><g fill="#3f7a4a"><path d="M12,-100 C -16,-116 -40,-112 -54,-98 C -32,-104 -8,-102 10,-94 Z"/><path d="M12,-100 C 40,-118 64,-114 78,-100 C 56,-106 32,-104 14,-94 Z"/><path d="M12,-100 C 2,-128 -12,-140 -30,-146 C -12,-132 2,-118 8,-98 Z"/></g><g fill="#4d8f58"><path d="M12,-100 C 26,-130 44,-140 62,-146 C 44,-130 28,-116 18,-96 Z"/><path d="M12,-100 C 38,-92 56,-78 64,-60 C 48,-76 30,-88 12,-92 Z"/></g><circle cx="12" cy="-100" r="5" fill="#7a6a4a"/></g><g transform="translate(300,396) scale(0.54)"><ellipse cx="0" cy="4" rx="24" ry="6" fill="#000" opacity="0.14"/><path d="M-6,0 C -8,-40 2,-72 8,-100 L18,-98 C 10,-70 2,-40 6,0 Z" fill="#9a8465"/><g fill="#9a8465" opacity="0.5"><rect x="-6" y="-14" width="13" height="3" rx="1.5"/><rect x="-5" y="-25" width="13" height="3" rx="1.5"/><rect x="-5" y="-36" width="13" height="3" rx="1.5"/><rect x="-4" y="-47" width="13" height="3" rx="1.5"/><rect x="-4" y="-58" width="13" height="3" rx="1.5"/><rect x="-3" y="-69" width="13" height="3" rx="1.5"/><rect x="-2" y="-80" width="13" height="3" rx="1.5"/><rect x="-2" y="-91" width="13" height="3" rx="1.5"/></g><g fill="#3f7a4a"><path d="M12,-100 C -16,-116 -40,-112 -54,-98 C -32,-104 -8,-102 10,-94 Z"/><path d="M12,-100 C 40,-118 64,-114 78,-100 C 56,-106 32,-104 14,-94 Z"/><path d="M12,-100 C 2,-128 -12,-140 -30,-146 C -12,-132 2,-118 8,-98 Z"/></g><g fill="#4d8f58"><path d="M12,-100 C 26,-130 44,-140 62,-146 C 44,-130 28,-116 18,-96 Z"/><path d="M12,-100 C 38,-92 56,-78 64,-60 C 48,-76 30,-88 12,-92 Z"/></g><circle cx="12" cy="-100" r="5" fill="#7a6a4a"/></g><g transform="translate(1160,402) scale(0.7)"><ellipse cx="0" cy="4" rx="24" ry="6" fill="#000" opacity="0.14"/><path d="M-6,0 C -8,-40 2,-72 8,-100 L18,-98 C 10,-70 2,-40 6,0 Z" fill="#9a8465"/><g fill="#9a8465" opacity="0.5"><rect x="-6" y="-14" width="13" height="3" rx="1.5"/><rect x="-5" y="-25" width="13" height="3" rx="1.5"/><rect x="-5" y="-36" width="13" height="3" rx="1.5"/><rect x="-4" y="-47" width="13" height="3" rx="1.5"/><rect x="-4" y="-58" width="13" height="3" rx="1.5"/><rect x="-3" y="-69" width="13" height="3" rx="1.5"/><rect x="-2" y="-80" width="13" height="3" rx="1.5"/><rect x="-2" y="-91" width="13" height="3" rx="1.5"/></g><g fill="#3f7a4a"><path d="M12,-100 C -16,-116 -40,-112 -54,-98 C -32,-104 -8,-102 10,-94 Z"/><path d="M12,-100 C 40,-118 64,-114 78,-100 C 56,-106 32,-104 14,-94 Z"/><path d="M12,-100 C 2,-128 -12,-140 -30,-146 C -12,-132 2,-118 8,-98 Z"/></g><g fill="#4d8f58"><path d="M12,-100 C 26,-130 44,-140 62,-146 C 44,-130 28,-116 18,-96 Z"/><path d="M12,-100 C 38,-92 56,-78 64,-60 C 48,-76 30,-88 12,-92 Z"/></g><circle cx="12" cy="-100" r="5" fill="#7a6a4a"/></g><g transform="translate(1244,394) scale(0.58)"><ellipse cx="0" cy="4" rx="24" ry="6" fill="#000" opacity="0.14"/><path d="M-6,0 C -8,-40 2,-72 8,-100 L18,-98 C 10,-70 2,-40 6,0 Z" fill="#9a8465"/><g fill="#9a8465" opacity="0.5"><rect x="-6" y="-14" width="13" height="3" rx="1.5"/><rect x="-5" y="-25" width="13" height="3" rx="1.5"/><rect x="-5" y="-36" width="13" height="3" rx="1.5"/><rect x="-4" y="-47" width="13" height="3" rx="1.5"/><rect x="-4" y="-58" width="13" height="3" rx="1.5"/><rect x="-3" y="-69" width="13" height="3" rx="1.5"/><rect x="-2" y="-80" width="13" height="3" rx="1.5"/><rect x="-2" y="-91" width="13" height="3" rx="1.5"/></g><g fill="#3f7a4a"><path d="M12,-100 C -16,-116 -40,-112 -54,-98 C -32,-104 -8,-102 10,-94 Z"/><path d="M12,-100 C 40,-118 64,-114 78,-100 C 56,-106 32,-104 14,-94 Z"/><path d="M12,-100 C 2,-128 -12,-140 -30,-146 C -12,-132 2,-118 8,-98 Z"/></g><g fill="#4d8f58"><path d="M12,-100 C 26,-130 44,-140 62,-146 C 44,-130 28,-116 18,-96 Z"/><path d="M12,-100 C 38,-92 56,-78 64,-60 C 48,-76 30,-88 12,-92 Z"/></g><circle cx="12" cy="-100" r="5" fill="#7a6a4a"/></g><g transform="translate(180,404) scale(0.6)"><ellipse cx="0" cy="3" rx="30" ry="5" fill="#000" opacity="0.14"/><g transform="rotate(-42 0 0)"><path d="M0,0 L-4,-34 L0,-46 L4,-34 Z" fill="#3f7a4a"/><path d="M0,-10 L-18,-32 L-13,-40 L0,-26 Z" fill="#4d8f58"/><path d="M0,-10 L18,-32 L13,-40 L0,-26 Z" fill="#4d8f58"/></g><g transform="rotate(-20 0 0)"><path d="M0,0 L-4,-34 L0,-46 L4,-34 Z" fill="#3f7a4a"/><path d="M0,-10 L-18,-32 L-13,-40 L0,-26 Z" fill="#4d8f58"/><path d="M0,-10 L18,-32 L13,-40 L0,-26 Z" fill="#4d8f58"/></g><g transform="rotate(0 0 0)"><path d="M0,0 L-4,-34 L0,-46 L4,-34 Z" fill="#3f7a4a"/><path d="M0,-10 L-18,-32 L-13,-40 L0,-26 Z" fill="#4d8f58"/><path d="M0,-10 L18,-32 L13,-40 L0,-26 Z" fill="#4d8f58"/></g><g transform="rotate(20 0 0)"><path d="M0,0 L-4,-34 L0,-46 L4,-34 Z" fill="#3f7a4a"/><path d="M0,-10 L-18,-32 L-13,-40 L0,-26 Z" fill="#4d8f58"/><path d="M0,-10 L18,-32 L13,-40 L0,-26 Z" fill="#4d8f58"/></g><g transform="rotate(42 0 0)"><path d="M0,0 L-4,-34 L0,-46 L4,-34 Z" fill="#3f7a4a"/><path d="M0,-10 L-18,-32 L-13,-40 L0,-26 Z" fill="#4d8f58"/><path d="M0,-10 L18,-32 L13,-40 L0,-26 Z" fill="#4d8f58"/></g></g><g transform="translate(392,400) scale(0.5)"><ellipse cx="0" cy="3" rx="30" ry="5" fill="#000" opacity="0.14"/><g transform="rotate(-42 0 0)"><path d="M0,0 L-4,-34 L0,-46 L4,-34 Z" fill="#3f7a4a"/><path d="M0,-10 L-18,-32 L-13,-40 L0,-26 Z" fill="#4d8f58"/><path d="M0,-10 L18,-32 L13,-40 L0,-26 Z" fill="#4d8f58"/></g><g transform="rotate(-20 0 0)"><path d="M0,0 L-4,-34 L0,-46 L4,-34 Z" fill="#3f7a4a"/><path d="M0,-10 L-18,-32 L-13,-40 L0,-26 Z" fill="#4d8f58"/><path d="M0,-10 L18,-32 L13,-40 L0,-26 Z" fill="#4d8f58"/></g><g transform="rotate(0 0 0)"><path d="M0,0 L-4,-34 L0,-46 L4,-34 Z" fill="#3f7a4a"/><path d="M0,-10 L-18,-32 L-13,-40 L0,-26 Z" fill="#4d8f58"/><path d="M0,-10 L18,-32 L13,-40 L0,-26 Z" fill="#4d8f58"/></g><g transform="rotate(20 0 0)"><path d="M0,0 L-4,-34 L0,-46 L4,-34 Z" fill="#3f7a4a"/><path d="M0,-10 L-18,-32 L-13,-40 L0,-26 Z" fill="#4d8f58"/><path d="M0,-10 L18,-32 L13,-40 L0,-26 Z" fill="#4d8f58"/></g><g transform="rotate(42 0 0)"><path d="M0,0 L-4,-34 L0,-46 L4,-34 Z" fill="#3f7a4a"/><path d="M0,-10 L-18,-32 L-13,-40 L0,-26 Z" fill="#4d8f58"/><path d="M0,-10 L18,-32 L13,-40 L0,-26 Z" fill="#4d8f58"/></g></g><g transform="translate(470,406) scale(0.66)"><ellipse cx="0" cy="3" rx="30" ry="5" fill="#000" opacity="0.14"/><g transform="rotate(-42 0 0)"><path d="M0,0 L-4,-34 L0,-46 L4,-34 Z" fill="#3f7a4a"/><path d="M0,-10 L-18,-32 L-13,-40 L0,-26 Z" fill="#4d8f58"/><path d="M0,-10 L18,-32 L13,-40 L0,-26 Z" fill="#4d8f58"/></g><g transform="rotate(-20 0 0)"><path d="M0,0 L-4,-34 L0,-46 L4,-34 Z" fill="#3f7a4a"/><path d="M0,-10 L-18,-32 L-13,-40 L0,-26 Z" fill="#4d8f58"/><path d="M0,-10 L18,-32 L13,-40 L0,-26 Z" fill="#4d8f58"/></g><g transform="rotate(0 0 0)"><path d="M0,0 L-4,-34 L0,-46 L4,-34 Z" fill="#3f7a4a"/><path d="M0,-10 L-18,-32 L-13,-40 L0,-26 Z" fill="#4d8f58"/><path d="M0,-10 L18,-32 L13,-40 L0,-26 Z" fill="#4d8f58"/></g><g transform="rotate(20 0 0)"><path d="M0,0 L-4,-34 L0,-46 L4,-34 Z" fill="#3f7a4a"/><path d="M0,-10 L-18,-32 L-13,-40 L0,-26 Z" fill="#4d8f58"/><path d="M0,-10 L18,-32 L13,-40 L0,-26 Z" fill="#4d8f58"/></g><g transform="rotate(42 0 0)"><path d="M0,0 L-4,-34 L0,-46 L4,-34 Z" fill="#3f7a4a"/><path d="M0,-10 L-18,-32 L-13,-40 L0,-26 Z" fill="#4d8f58"/><path d="M0,-10 L18,-32 L13,-40 L0,-26 Z" fill="#4d8f58"/></g></g><g transform="translate(760,402) scale(0.56)"><ellipse cx="0" cy="3" rx="30" ry="5" fill="#000" opacity="0.14"/><g transform="rotate(-42 0 0)"><path d="M0,0 L-4,-34 L0,-46 L4,-34 Z" fill="#3f7a4a"/><path d="M0,-10 L-18,-32 L-13,-40 L0,-26 Z" fill="#4d8f58"/><path d="M0,-10 L18,-32 L13,-40 L0,-26 Z" fill="#4d8f58"/></g><g transform="rotate(-20 0 0)"><path d="M0,0 L-4,-34 L0,-46 L4,-34 Z" fill="#3f7a4a"/><path d="M0,-10 L-18,-32 L-13,-40 L0,-26 Z" fill="#4d8f58"/><path d="M0,-10 L18,-32 L13,-40 L0,-26 Z" fill="#4d8f58"/></g><g transform="rotate(0 0 0)"><path d="M0,0 L-4,-34 L0,-46 L4,-34 Z" fill="#3f7a4a"/><path d="M0,-10 L-18,-32 L-13,-40 L0,-26 Z" fill="#4d8f58"/><path d="M0,-10 L18,-32 L13,-40 L0,-26 Z" fill="#4d8f58"/></g><g transform="rotate(20 0 0)"><path d="M0,0 L-4,-34 L0,-46 L4,-34 Z" fill="#3f7a4a"/><path d="M0,-10 L-18,-32 L-13,-40 L0,-26 Z" fill="#4d8f58"/><path d="M0,-10 L18,-32 L13,-40 L0,-26 Z" fill="#4d8f58"/></g><g transform="rotate(42 0 0)"><path d="M0,0 L-4,-34 L0,-46 L4,-34 Z" fill="#3f7a4a"/><path d="M0,-10 L-18,-32 L-13,-40 L0,-26 Z" fill="#4d8f58"/><path d="M0,-10 L18,-32 L13,-40 L0,-26 Z" fill="#4d8f58"/></g></g><g transform="translate(846,406) scale(0.68)"><ellipse cx="0" cy="3" rx="30" ry="5" fill="#000" opacity="0.14"/><g transform="rotate(-42 0 0)"><path d="M0,0 L-4,-34 L0,-46 L4,-34 Z" fill="#3f7a4a"/><path d="M0,-10 L-18,-32 L-13,-40 L0,-26 Z" fill="#4d8f58"/><path d="M0,-10 L18,-32 L13,-40 L0,-26 Z" fill="#4d8f58"/></g><g transform="rotate(-20 0 0)"><path d="M0,0 L-4,-34 L0,-46 L4,-34 Z" fill="#3f7a4a"/><path d="M0,-10 L-18,-32 L-13,-40 L0,-26 Z" fill="#4d8f58"/><path d="M0,-10 L18,-32 L13,-40 L0,-26 Z" fill="#4d8f58"/></g><g transform="rotate(0 0 0)"><path d="M0,0 L-4,-34 L0,-46 L4,-34 Z" fill="#3f7a4a"/><path d="M0,-10 L-18,-32 L-13,-40 L0,-26 Z" fill="#4d8f58"/><path d="M0,-10 L18,-32 L13,-40 L0,-26 Z" fill="#4d8f58"/></g><g transform="rotate(20 0 0)"><path d="M0,0 L-4,-34 L0,-46 L4,-34 Z" fill="#3f7a4a"/><path d="M0,-10 L-18,-32 L-13,-40 L0,-26 Z" fill="#4d8f58"/><path d="M0,-10 L18,-32 L13,-40 L0,-26 Z" fill="#4d8f58"/></g><g transform="rotate(42 0 0)"><path d="M0,0 L-4,-34 L0,-46 L4,-34 Z" fill="#3f7a4a"/><path d="M0,-10 L-18,-32 L-13,-40 L0,-26 Z" fill="#4d8f58"/><path d="M0,-10 L18,-32 L13,-40 L0,-26 Z" fill="#4d8f58"/></g></g><g transform="translate(1046,400) scale(0.6)"><ellipse cx="0" cy="3" rx="30" ry="5" fill="#000" opacity="0.14"/><g transform="rotate(-42 0 0)"><path d="M0,0 L-4,-34 L0,-46 L4,-34 Z" fill="#3f7a4a"/><path d="M0,-10 L-18,-32 L-13,-40 L0,-26 Z" fill="#4d8f58"/><path d="M0,-10 L18,-32 L13,-40 L0,-26 Z" fill="#4d8f58"/></g><g transform="rotate(-20 0 0)"><path d="M0,0 L-4,-34 L0,-46 L4,-34 Z" fill="#3f7a4a"/><path d="M0,-10 L-18,-32 L-13,-40 L0,-26 Z" fill="#4d8f58"/><path d="M0,-10 L18,-32 L13,-40 L0,-26 Z" fill="#4d8f58"/></g><g transform="rotate(0 0 0)"><path d="M0,0 L-4,-34 L0,-46 L4,-34 Z" fill="#3f7a4a"/><path d="M0,-10 L-18,-32 L-13,-40 L0,-26 Z" fill="#4d8f58"/><path d="M0,-10 L18,-32 L13,-40 L0,-26 Z" fill="#4d8f58"/></g><g transform="rotate(20 0 0)"><path d="M0,0 L-4,-34 L0,-46 L4,-34 Z" fill="#3f7a4a"/><path d="M0,-10 L-18,-32 L-13,-40 L0,-26 Z" fill="#4d8f58"/><path d="M0,-10 L18,-32 L13,-40 L0,-26 Z" fill="#4d8f58"/></g><g transform="rotate(42 0 0)"><path d="M0,0 L-4,-34 L0,-46 L4,-34 Z" fill="#3f7a4a"/><path d="M0,-10 L-18,-32 L-13,-40 L0,-26 Z" fill="#4d8f58"/><path d="M0,-10 L18,-32 L13,-40 L0,-26 Z" fill="#4d8f58"/></g></g><g transform="translate(1108,406) scale(0.52)"><ellipse cx="0" cy="3" rx="30" ry="5" fill="#000" opacity="0.14"/><g transform="rotate(-42 0 0)"><path d="M0,0 L-4,-34 L0,-46 L4,-34 Z" fill="#3f7a4a"/><path d="M0,-10 L-18,-32 L-13,-40 L0,-26 Z" fill="#4d8f58"/><path d="M0,-10 L18,-32 L13,-40 L0,-26 Z" fill="#4d8f58"/></g><g transform="rotate(-20 0 0)"><path d="M0,0 L-4,-34 L0,-46 L4,-34 Z" fill="#3f7a4a"/><path d="M0,-10 L-18,-32 L-13,-40 L0,-26 Z" fill="#4d8f58"/><path d="M0,-10 L18,-32 L13,-40 L0,-26 Z" fill="#4d8f58"/></g><g transform="rotate(0 0 0)"><path d="M0,0 L-4,-34 L0,-46 L4,-34 Z" fill="#3f7a4a"/><path d="M0,-10 L-18,-32 L-13,-40 L0,-26 Z" fill="#4d8f58"/><path d="M0,-10 L18,-32 L13,-40 L0,-26 Z" fill="#4d8f58"/></g><g transform="rotate(20 0 0)"><path d="M0,0 L-4,-34 L0,-46 L4,-34 Z" fill="#3f7a4a"/><path d="M0,-10 L-18,-32 L-13,-40 L0,-26 Z" fill="#4d8f58"/><path d="M0,-10 L18,-32 L13,-40 L0,-26 Z" fill="#4d8f58"/></g><g transform="rotate(42 0 0)"><path d="M0,0 L-4,-34 L0,-46 L4,-34 Z" fill="#3f7a4a"/><path d="M0,-10 L-18,-32 L-13,-40 L0,-26 Z" fill="#4d8f58"/><path d="M0,-10 L18,-32 L13,-40 L0,-26 Z" fill="#4d8f58"/></g></g><g transform="translate(126,340) scale(0.5)"><ellipse cx="0" cy="3" rx="30" ry="5" fill="#000" opacity="0.14"/><path d="M0,0 C -14,-16 -27,-22 -34,-26" stroke="#8fa055" stroke-width="2" fill="none" stroke-linecap="round"/><path d="M0,0 C -8,-19 -16,-27 -20,-32" stroke="#8fa055" stroke-width="2" fill="none" stroke-linecap="round"/><path d="M0,0 C 4,-18 8,-26 10,-30" stroke="#8fa055" stroke-width="2" fill="none" stroke-linecap="round"/><path d="M0,0 C 10,-14 19,-20 24,-24" stroke="#8fa055" stroke-width="2" fill="none" stroke-linecap="round"/><path d="M0,0 C 14,-11 27,-15 34,-18" stroke="#8fa055" stroke-width="2" fill="none" stroke-linecap="round"/><path d="M0,0 C -8,-21 -18,-34 -26,-42" stroke="#a3b066" stroke-width="2.4" fill="none" stroke-linecap="round"/><ellipse cx="-26" cy="-46" rx="1.7" ry="5.5" fill="#cfc48d" transform="rotate(-13 -26 -46)"/><path d="M0,0 C -4,-28 -10,-45 -15,-56" stroke="#a3b066" stroke-width="2.4" fill="none" stroke-linecap="round"/><ellipse cx="-15" cy="-60" rx="1.7" ry="5.5" fill="#cfc48d" transform="rotate(-8 -15 -60)"/><path d="M0,0 C -2,-33 -4,-53 -5,-66" stroke="#a3b066" stroke-width="2.4" fill="none" stroke-linecap="round"/><ellipse cx="-5" cy="-70" rx="1.7" ry="5.5" fill="#cfc48d" transform="rotate(-2 -5 -70)"/><path d="M0,0 C 2,-30 4,-48 6,-60" stroke="#a3b066" stroke-width="2.4" fill="none" stroke-linecap="round"/><ellipse cx="6" cy="-64" rx="1.7" ry="5.5" fill="#cfc48d" transform="rotate(3 6 -64)"/><path d="M0,0 C 5,-24 12,-38 17,-48" stroke="#a3b066" stroke-width="2.4" fill="none" stroke-linecap="round"/><ellipse cx="17" cy="-52" rx="1.7" ry="5.5" fill="#cfc48d" transform="rotate(8 17 -52)"/><path d="M0,0 C 8,-18 19,-29 27,-36" stroke="#a3b066" stroke-width="2.4" fill="none" stroke-linecap="round"/><ellipse cx="27" cy="-40" rx="1.7" ry="5.5" fill="#cfc48d" transform="rotate(14 27 -40)"/></g><g transform="translate(352,336) scale(0.44)"><ellipse cx="0" cy="3" rx="30" ry="5" fill="#000" opacity="0.14"/><path d="M0,0 C -14,-16 -27,-22 -34,-26" stroke="#8fa055" stroke-width="2" fill="none" stroke-linecap="round"/><path d="M0,0 C -8,-19 -16,-27 -20,-32" stroke="#8fa055" stroke-width="2" fill="none" stroke-linecap="round"/><path d="M0,0 C 4,-18 8,-26 10,-30" stroke="#8fa055" stroke-width="2" fill="none" stroke-linecap="round"/><path d="M0,0 C 10,-14 19,-20 24,-24" stroke="#8fa055" stroke-width="2" fill="none" stroke-linecap="round"/><path d="M0,0 C 14,-11 27,-15 34,-18" stroke="#8fa055" stroke-width="2" fill="none" stroke-linecap="round"/><path d="M0,0 C -8,-21 -18,-34 -26,-42" stroke="#a3b066" stroke-width="2.4" fill="none" stroke-linecap="round"/><ellipse cx="-26" cy="-46" rx="1.7" ry="5.5" fill="#cfc48d" transform="rotate(-13 -26 -46)"/><path d="M0,0 C -4,-28 -10,-45 -15,-56" stroke="#a3b066" stroke-width="2.4" fill="none" stroke-linecap="round"/><ellipse cx="-15" cy="-60" rx="1.7" ry="5.5" fill="#cfc48d" transform="rotate(-8 -15 -60)"/><path d="M0,0 C -2,-33 -4,-53 -5,-66" stroke="#a3b066" stroke-width="2.4" fill="none" stroke-linecap="round"/><ellipse cx="-5" cy="-70" rx="1.7" ry="5.5" fill="#cfc48d" transform="rotate(-2 -5 -70)"/><path d="M0,0 C 2,-30 4,-48 6,-60" stroke="#a3b066" stroke-width="2.4" fill="none" stroke-linecap="round"/><ellipse cx="6" cy="-64" rx="1.7" ry="5.5" fill="#cfc48d" transform="rotate(3 6 -64)"/><path d="M0,0 C 5,-24 12,-38 17,-48" stroke="#a3b066" stroke-width="2.4" fill="none" stroke-linecap="round"/><ellipse cx="17" cy="-52" rx="1.7" ry="5.5" fill="#cfc48d" transform="rotate(8 17 -52)"/><path d="M0,0 C 8,-18 19,-29 27,-36" stroke="#a3b066" stroke-width="2.4" fill="none" stroke-linecap="round"/><ellipse cx="27" cy="-40" rx="1.7" ry="5.5" fill="#cfc48d" transform="rotate(14 27 -40)"/></g><g transform="translate(642,340) scale(0.4)"><ellipse cx="0" cy="3" rx="30" ry="5" fill="#000" opacity="0.14"/><path d="M0,0 C -14,-16 -27,-22 -34,-26" stroke="#8fa055" stroke-width="2" fill="none" stroke-linecap="round"/><path d="M0,0 C -8,-19 -16,-27 -20,-32" stroke="#8fa055" stroke-width="2" fill="none" stroke-linecap="round"/><path d="M0,0 C 4,-18 8,-26 10,-30" stroke="#8fa055" stroke-width="2" fill="none" stroke-linecap="round"/><path d="M0,0 C 10,-14 19,-20 24,-24" stroke="#8fa055" stroke-width="2" fill="none" stroke-linecap="round"/><path d="M0,0 C 14,-11 27,-15 34,-18" stroke="#8fa055" stroke-width="2" fill="none" stroke-linecap="round"/><path d="M0,0 C -8,-21 -18,-34 -26,-42" stroke="#a3b066" stroke-width="2.4" fill="none" stroke-linecap="round"/><ellipse cx="-26" cy="-46" rx="1.7" ry="5.5" fill="#cfc48d" transform="rotate(-13 -26 -46)"/><path d="M0,0 C -4,-28 -10,-45 -15,-56" stroke="#a3b066" stroke-width="2.4" fill="none" stroke-linecap="round"/><ellipse cx="-15" cy="-60" rx="1.7" ry="5.5" fill="#cfc48d" transform="rotate(-8 -15 -60)"/><path d="M0,0 C -2,-33 -4,-53 -5,-66" stroke="#a3b066" stroke-width="2.4" fill="none" stroke-linecap="round"/><ellipse cx="-5" cy="-70" rx="1.7" ry="5.5" fill="#cfc48d" transform="rotate(-2 -5 -70)"/><path d="M0,0 C 2,-30 4,-48 6,-60" stroke="#a3b066" stroke-width="2.4" fill="none" stroke-linecap="round"/><ellipse cx="6" cy="-64" rx="1.7" ry="5.5" fill="#cfc48d" transform="rotate(3 6 -64)"/><path d="M0,0 C 5,-24 12,-38 17,-48" stroke="#a3b066" stroke-width="2.4" fill="none" stroke-linecap="round"/><ellipse cx="17" cy="-52" rx="1.7" ry="5.5" fill="#cfc48d" transform="rotate(8 17 -52)"/><path d="M0,0 C 8,-18 19,-29 27,-36" stroke="#a3b066" stroke-width="2.4" fill="none" stroke-linecap="round"/><ellipse cx="27" cy="-40" rx="1.7" ry="5.5" fill="#cfc48d" transform="rotate(14 27 -40)"/></g><g transform="translate(930,338) scale(0.46)"><ellipse cx="0" cy="3" rx="30" ry="5" fill="#000" opacity="0.14"/><path d="M0,0 C -14,-16 -27,-22 -34,-26" stroke="#8fa055" stroke-width="2" fill="none" stroke-linecap="round"/><path d="M0,0 C -8,-19 -16,-27 -20,-32" stroke="#8fa055" stroke-width="2" fill="none" stroke-linecap="round"/><path d="M0,0 C 4,-18 8,-26 10,-30" stroke="#8fa055" stroke-width="2" fill="none" stroke-linecap="round"/><path d="M0,0 C 10,-14 19,-20 24,-24" stroke="#8fa055" stroke-width="2" fill="none" stroke-linecap="round"/><path d="M0,0 C 14,-11 27,-15 34,-18" stroke="#8fa055" stroke-width="2" fill="none" stroke-linecap="round"/><path d="M0,0 C -8,-21 -18,-34 -26,-42" stroke="#a3b066" stroke-width="2.4" fill="none" stroke-linecap="round"/><ellipse cx="-26" cy="-46" rx="1.7" ry="5.5" fill="#cfc48d" transform="rotate(-13 -26 -46)"/><path d="M0,0 C -4,-28 -10,-45 -15,-56" stroke="#a3b066" stroke-width="2.4" fill="none" stroke-linecap="round"/><ellipse cx="-15" cy="-60" rx="1.7" ry="5.5" fill="#cfc48d" transform="rotate(-8 -15 -60)"/><path d="M0,0 C -2,-33 -4,-53 -5,-66" stroke="#a3b066" stroke-width="2.4" fill="none" stroke-linecap="round"/><ellipse cx="-5" cy="-70" rx="1.7" ry="5.5" fill="#cfc48d" transform="rotate(-2 -5 -70)"/><path d="M0,0 C 2,-30 4,-48 6,-60" stroke="#a3b066" stroke-width="2.4" fill="none" stroke-linecap="round"/><ellipse cx="6" cy="-64" rx="1.7" ry="5.5" fill="#cfc48d" transform="rotate(3 6 -64)"/><path d="M0,0 C 5,-24 12,-38 17,-48" stroke="#a3b066" stroke-width="2.4" fill="none" stroke-linecap="round"/><ellipse cx="17" cy="-52" rx="1.7" ry="5.5" fill="#cfc48d" transform="rotate(8 17 -52)"/><path d="M0,0 C 8,-18 19,-29 27,-36" stroke="#a3b066" stroke-width="2.4" fill="none" stroke-linecap="round"/><ellipse cx="27" cy="-40" rx="1.7" ry="5.5" fill="#cfc48d" transform="rotate(14 27 -40)"/></g><g transform="translate(1206,342) scale(0.5)"><ellipse cx="0" cy="3" rx="30" ry="5" fill="#000" opacity="0.14"/><path d="M0,0 C -14,-16 -27,-22 -34,-26" stroke="#8fa055" stroke-width="2" fill="none" stroke-linecap="round"/><path d="M0,0 C -8,-19 -16,-27 -20,-32" stroke="#8fa055" stroke-width="2" fill="none" stroke-linecap="round"/><path d="M0,0 C 4,-18 8,-26 10,-30" stroke="#8fa055" stroke-width="2" fill="none" stroke-linecap="round"/><path d="M0,0 C 10,-14 19,-20 24,-24" stroke="#8fa055" stroke-width="2" fill="none" stroke-linecap="round"/><path d="M0,0 C 14,-11 27,-15 34,-18" stroke="#8fa055" stroke-width="2" fill="none" stroke-linecap="round"/><path d="M0,0 C -8,-21 -18,-34 -26,-42" stroke="#a3b066" stroke-width="2.4" fill="none" stroke-linecap="round"/><ellipse cx="-26" cy="-46" rx="1.7" ry="5.5" fill="#cfc48d" transform="rotate(-13 -26 -46)"/><path d="M0,0 C -4,-28 -10,-45 -15,-56" stroke="#a3b066" stroke-width="2.4" fill="none" stroke-linecap="round"/><ellipse cx="-15" cy="-60" rx="1.7" ry="5.5" fill="#cfc48d" transform="rotate(-8 -15 -60)"/><path d="M0,0 C -2,-33 -4,-53 -5,-66" stroke="#a3b066" stroke-width="2.4" fill="none" stroke-linecap="round"/><ellipse cx="-5" cy="-70" rx="1.7" ry="5.5" fill="#cfc48d" transform="rotate(-2 -5 -70)"/><path d="M0,0 C 2,-30 4,-48 6,-60" stroke="#a3b066" stroke-width="2.4" fill="none" stroke-linecap="round"/><ellipse cx="6" cy="-64" rx="1.7" ry="5.5" fill="#cfc48d" transform="rotate(3 6 -64)"/><path d="M0,0 C 5,-24 12,-38 17,-48" stroke="#a3b066" stroke-width="2.4" fill="none" stroke-linecap="round"/><ellipse cx="17" cy="-52" rx="1.7" ry="5.5" fill="#cfc48d" transform="rotate(8 17 -52)"/><path d="M0,0 C 8,-18 19,-29 27,-36" stroke="#a3b066" stroke-width="2.4" fill="none" stroke-linecap="round"/><ellipse cx="27" cy="-40" rx="1.7" ry="5.5" fill="#cfc48d" transform="rotate(14 27 -40)"/></g><g transform="translate(232,392) scale(0.62)"><ellipse cx="0" cy="2" rx="12" ry="3" fill="#000" opacity="0.14"/><g stroke="#c9737f" stroke-width="2.2"><path d="M-3,-14 L-4,0 M4,-14 L6,0"/></g><ellipse cx="0" cy="-22" rx="14" ry="10" fill="#e88fae"/><path d="M-8,-24 q10,-6 18,2 q-9,4 -18,-2 Z" fill="#d9709a"/><path d="M10,-28 C 18,-36 22,-40 24,-44" stroke="#e88fae" stroke-width="4.5" fill="none"/><ellipse cx="26" cy="-46" rx="5" ry="3.6" fill="#d8d2c0"/><circle cx="23" cy="-48" r="1.2" fill="#22262b"/></g><g transform="translate(266,396) scale(0.54)"><ellipse cx="0" cy="2" rx="12" ry="3" fill="#000" opacity="0.14"/><g stroke="#c9737f" stroke-width="2.2"><path d="M-3,-14 L-4,0 M4,-14 L6,0"/></g><ellipse cx="0" cy="-22" rx="14" ry="10" fill="#e88fae"/><path d="M-8,-24 q10,-6 18,2 q-9,4 -18,-2 Z" fill="#d9709a"/><path d="M10,-28 C 18,-36 22,-40 24,-44" stroke="#e88fae" stroke-width="4.5" fill="none"/><ellipse cx="26" cy="-46" rx="5" ry="3.6" fill="#d8d2c0"/><circle cx="23" cy="-48" r="1.2" fill="#22262b"/></g><g transform="translate(1006,394) scale(0.58)"><ellipse cx="0" cy="2" rx="12" ry="3" fill="#000" opacity="0.14"/><g stroke="#c9737f" stroke-width="2.2"><path d="M-3,-14 L-4,0 M4,-14 L6,0"/></g><ellipse cx="0" cy="-22" rx="14" ry="10" fill="#e88fae"/><path d="M-8,-24 q10,-6 18,2 q-9,4 -18,-2 Z" fill="#d9709a"/><path d="M10,-28 C 18,-36 22,-40 24,-44" stroke="#e88fae" stroke-width="4.5" fill="none"/><ellipse cx="26" cy="-46" rx="5" ry="3.6" fill="#d8d2c0"/><circle cx="23" cy="-48" r="1.2" fill="#22262b"/></g><g transform="translate(546,400) scale(0.6)"><ellipse cx="0" cy="3" rx="12" ry="4" fill="#000" opacity="0.14"/><rect x="-5" y="-52" width="10" height="52" fill="#8a7458"/><rect x="-5" y="-52" width="10" height="4" rx="2" fill="#9c8666"/><ellipse cx="0" cy="-64" rx="15" ry="11" fill="#c9ccc4"/><path d="M-10,-66 q10,-6 18,2 q-9,4 -18,-2 Z" fill="#a8ada4"/><circle cx="9" cy="-74" r="7" fill="#dfe2da"/><path d="M14,-72 C 24,-70 26,-64 20,-62 C 16,-64 14,-68 14,-72 Z" fill="#e0a13c"/><circle cx="11" cy="-76" r="1.4" fill="#22262b"/></g><g transform="translate(660,200) scale(0.5)"><path d="M-16,0 q8,-7 16,-1 q8,-6 16,1 q-8,4 -16,1 q-8,3 -16,-1 Z" fill="#e8e8e2" opacity="0.9"/></g><g transform="translate(712,224) scale(0.5)"><path d="M-16,0 q8,-7 16,-1 q8,-6 16,1 q-8,4 -16,1 q-8,3 -16,-1 Z" fill="#e8e8e2" opacity="0.9"/></g><g transform="translate(598,232) scale(0.5)"><path d="M-16,0 q8,-7 16,-1 q8,-6 16,1 q-8,4 -16,1 q-8,3 -16,-1 Z" fill="#e8e8e2" opacity="0.9"/></g>
  </g>
  <g id="road">
    <defs><linearGradient id="roadg" x1="0" y1="0" x2="0" y2="1">
      <stop offset="0" stop-color="#7a7a74"/><stop offset="1" stop-color="#63635e"/>
    </linearGradient></defs>
    <polygon points="510,720 770,720 658,300 622,300" fill="url(#roadg)"/>
    <polygon points="510,720 528,720 636,300 622,300" fill="#e8dfc0" opacity="0.45"/>
    <polygon points="752,720 770,720 658,300 644,300" fill="#e8dfc0" opacity="0.45"/>
    <g fill="#ffe066">
      <polygon points="634,704 646,704 645,660 635,660"/><polygon points="636,626 644,626 643,590 637,590"/><polygon points="637,560 643,560 642,532 638,532"/><polygon points="638,392 642,392 641,368 639,368"/><polygon points="639,352 641,352 641,336 639,336"/>
    </g>
  </g>
  <g id="track">
    <rect x="0" y="450" width="1280" height="66" fill="#a98c68"/>
    <rect x="0" y="450" width="1280" height="8" fill="#bb9d76"/>
    <g fill="#6b4a2a"><rect x="6" y="452" width="15" height="62"/><rect x="50" y="452" width="15" height="62"/><rect x="94" y="452" width="15" height="62"/><rect x="138" y="452" width="15" height="62"/><rect x="182" y="452" width="15" height="62"/><rect x="226" y="452" width="15" height="62"/><rect x="270" y="452" width="15" height="62"/><rect x="314" y="452" width="15" height="62"/><rect x="358" y="452" width="15" height="62"/><rect x="402" y="452" width="15" height="62"/><rect x="446" y="452" width="15" height="62"/><rect x="490" y="452" width="15" height="62"/><rect x="534" y="452" width="15" height="62"/><rect x="578" y="452" width="15" height="62"/><rect x="622" y="452" width="15" height="62"/><rect x="666" y="452" width="15" height="62"/><rect x="710" y="452" width="15" height="62"/><rect x="754" y="452" width="15" height="62"/><rect x="798" y="452" width="15" height="62"/><rect x="842" y="452" width="15" height="62"/><rect x="886" y="452" width="15" height="62"/><rect x="930" y="452" width="15" height="62"/><rect x="974" y="452" width="15" height="62"/><rect x="1018" y="452" width="15" height="62"/><rect x="1062" y="452" width="15" height="62"/><rect x="1106" y="452" width="15" height="62"/><rect x="1150" y="452" width="15" height="62"/><rect x="1194" y="452" width="15" height="62"/><rect x="1238" y="452" width="15" height="62"/></g>
    <rect x="0" y="466" width="1280" height="6" fill="#d3d7dc"/>
    <rect x="0" y="496" width="1280" height="6" fill="#d3d7dc"/>
  </g>
  <g id="gate-far">
    <g transform="translate(580,388) scale(0.82)">
      <rect x="-8" y="0" width="16" height="70" rx="4" fill="#2f3136"/>
      <g transform="translate(0,-4)" stroke="#ffffff" stroke-width="6" stroke-linecap="round">
        <line x1="-15" y1="-15" x2="15" y2="15"/><line x1="15" y1="-15" x2="-15" y2="15"/></g>
      <circle cx="-13" cy="16" r="6.5" fill="#ff2a2a"/>
      <circle cx="13" cy="16" r="6.5" fill="#7a1c1c"/>
      <g transform="translate(0,40)">
        <rect x="0" y="-5" width="76" height="10" rx="5" fill="#ffffff"/><rect x="6" y="-5" width="15" height="10" fill="#d23b34"/><rect x="34" y="-5" width="15" height="10" fill="#d23b34"/>
      </g>
    </g>
    <g transform="translate(700,388) scale(0.82)">
      <rect x="-8" y="0" width="16" height="70" rx="4" fill="#2f3136"/>
      <g transform="translate(0,-4)" stroke="#ffffff" stroke-width="6" stroke-linecap="round">
        <line x1="-15" y1="-15" x2="15" y2="15"/><line x1="15" y1="-15" x2="-15" y2="15"/></g>
      <circle cx="-13" cy="16" r="6.5" fill="#7a1c1c"/>
      <circle cx="13" cy="16" r="6.5" fill="#ff2a2a"/>
      <g transform="translate(0,40)">
        <rect x="-76" y="-5" width="76" height="10" rx="5" fill="#ffffff"/><rect x="-70" y="-5" width="15" height="10" fill="#d23b34"/><rect x="-42" y="-5" width="15" height="10" fill="#d23b34"/>
      </g>
    </g>
  </g>
  <!-- ENGINE RENDERS THE MOVING TRAIN HERE (between the two gates) -->
  <!-- foreground props: IN FRONT of the train, bases below the rails -->
  <g id="scenery-front">
    <g transform="translate(96,704) scale(1.35)"><ellipse cx="0" cy="4" rx="24" ry="6" fill="#000" opacity="0.14"/><path d="M-6,0 C -8,-40 2,-72 8,-100 L18,-98 C 10,-70 2,-40 6,0 Z" fill="#9a8465"/><g fill="#9a8465" opacity="0.5"><rect x="-6" y="-14" width="13" height="3" rx="1.5"/><rect x="-5" y="-25" width="13" height="3" rx="1.5"/><rect x="-5" y="-36" width="13" height="3" rx="1.5"/><rect x="-4" y="-47" width="13" height="3" rx="1.5"/><rect x="-4" y="-58" width="13" height="3" rx="1.5"/><rect x="-3" y="-69" width="13" height="3" rx="1.5"/><rect x="-2" y="-80" width="13" height="3" rx="1.5"/><rect x="-2" y="-91" width="13" height="3" rx="1.5"/></g><g fill="#3f7a4a"><path d="M12,-100 C -16,-116 -40,-112 -54,-98 C -32,-104 -8,-102 10,-94 Z"/><path d="M12,-100 C 40,-118 64,-114 78,-100 C 56,-106 32,-104 14,-94 Z"/><path d="M12,-100 C 2,-128 -12,-140 -30,-146 C -12,-132 2,-118 8,-98 Z"/></g><g fill="#4d8f58"><path d="M12,-100 C 26,-130 44,-140 62,-146 C 44,-130 28,-116 18,-96 Z"/><path d="M12,-100 C 38,-92 56,-78 64,-60 C 48,-76 30,-88 12,-92 Z"/></g><circle cx="12" cy="-100" r="5" fill="#7a6a4a"/></g><g transform="translate(1214,712) scale(1.25)"><ellipse cx="0" cy="4" rx="24" ry="6" fill="#000" opacity="0.14"/><path d="M-6,0 C -8,-40 2,-72 8,-100 L18,-98 C 10,-70 2,-40 6,0 Z" fill="#9a8465"/><g fill="#9a8465" opacity="0.5"><rect x="-6" y="-14" width="13" height="3" rx="1.5"/><rect x="-5" y="-25" width="13" height="3" rx="1.5"/><rect x="-5" y="-36" width="13" height="3" rx="1.5"/><rect x="-4" y="-47" width="13" height="3" rx="1.5"/><rect x="-4" y="-58" width="13" height="3" rx="1.5"/><rect x="-3" y="-69" width="13" height="3" rx="1.5"/><rect x="-2" y="-80" width="13" height="3" rx="1.5"/><rect x="-2" y="-91" width="13" height="3" rx="1.5"/></g><g fill="#3f7a4a"><path d="M12,-100 C -16,-116 -40,-112 -54,-98 C -32,-104 -8,-102 10,-94 Z"/><path d="M12,-100 C 40,-118 64,-114 78,-100 C 56,-106 32,-104 14,-94 Z"/><path d="M12,-100 C 2,-128 -12,-140 -30,-146 C -12,-132 2,-118 8,-98 Z"/></g><g fill="#4d8f58"><path d="M12,-100 C 26,-130 44,-140 62,-146 C 44,-130 28,-116 18,-96 Z"/><path d="M12,-100 C 38,-92 56,-78 64,-60 C 48,-76 30,-88 12,-92 Z"/></g><circle cx="12" cy="-100" r="5" fill="#7a6a4a"/></g><g transform="translate(258,640) scale(0.92)"><ellipse cx="0" cy="4" rx="24" ry="6" fill="#000" opacity="0.14"/><path d="M-6,0 C -8,-40 2,-72 8,-100 L18,-98 C 10,-70 2,-40 6,0 Z" fill="#9a8465"/><g fill="#9a8465" opacity="0.5"><rect x="-6" y="-14" width="13" height="3" rx="1.5"/><rect x="-5" y="-25" width="13" height="3" rx="1.5"/><rect x="-5" y="-36" width="13" height="3" rx="1.5"/><rect x="-4" y="-47" width="13" height="3" rx="1.5"/><rect x="-4" y="-58" width="13" height="3" rx="1.5"/><rect x="-3" y="-69" width="13" height="3" rx="1.5"/><rect x="-2" y="-80" width="13" height="3" rx="1.5"/><rect x="-2" y="-91" width="13" height="3" rx="1.5"/></g><g fill="#3f7a4a"><path d="M12,-100 C -16,-116 -40,-112 -54,-98 C -32,-104 -8,-102 10,-94 Z"/><path d="M12,-100 C 40,-118 64,-114 78,-100 C 56,-106 32,-104 14,-94 Z"/><path d="M12,-100 C 2,-128 -12,-140 -30,-146 C -12,-132 2,-118 8,-98 Z"/></g><g fill="#4d8f58"><path d="M12,-100 C 26,-130 44,-140 62,-146 C 44,-130 28,-116 18,-96 Z"/><path d="M12,-100 C 38,-92 56,-78 64,-60 C 48,-76 30,-88 12,-92 Z"/></g><circle cx="12" cy="-100" r="5" fill="#7a6a4a"/></g><g transform="translate(404,604) scale(0.86)"><ellipse cx="0" cy="3" rx="62" ry="6" fill="#000" opacity="0.14"/><path d="M-66,0 L-40,-9 L28,-11 L58,-6 L70,0 L54,3 L26,2 L-38,2 Z" fill="#3f4a3a"/><path d="M-66,0 L-40,-9 L28,-11 L34,-8 L-36,-5 Z" fill="#4d5a44"/><g fill="#4d5a44"><path d="M-30,-11 l4,-6 l4,6 Z"/><path d="M-17,-11 l4,-6 l4,6 Z"/><path d="M-4,-11 l4,-6 l4,6 Z"/><path d="M9,-11 l4,-6 l4,6 Z"/><path d="M22,-11 l4,-6 l4,6 Z"/><path d="M35,-11 l4,-6 l4,6 Z"/></g><path d="M58,-6 L70,0 L54,3 Z" fill="#3f4a3a"/><circle cx="-46" cy="-9" r="3.4" fill="#d8cf9a"/><circle cx="-46" cy="-9" r="1.6" fill="#22262b"/><g stroke="#3f4a3a" stroke-width="5" stroke-linecap="round"><path d="M-14,2 L-20,8 M18,2 L24,8"/></g></g><g transform="translate(40,640) scale(1.25)"><ellipse cx="0" cy="3" rx="30" ry="5" fill="#000" opacity="0.14"/><path d="M0,0 C -14,-16 -27,-22 -34,-26" stroke="#8fa055" stroke-width="2" fill="none" stroke-linecap="round"/><path d="M0,0 C -8,-19 -16,-27 -20,-32" stroke="#8fa055" stroke-width="2" fill="none" stroke-linecap="round"/><path d="M0,0 C 4,-18 8,-26 10,-30" stroke="#8fa055" stroke-width="2" fill="none" stroke-linecap="round"/><path d="M0,0 C 10,-14 19,-20 24,-24" stroke="#8fa055" stroke-width="2" fill="none" stroke-linecap="round"/><path d="M0,0 C 14,-11 27,-15 34,-18" stroke="#8fa055" stroke-width="2" fill="none" stroke-linecap="round"/><path d="M0,0 C -8,-21 -18,-34 -26,-42" stroke="#a3b066" stroke-width="2.4" fill="none" stroke-linecap="round"/><ellipse cx="-26" cy="-46" rx="1.7" ry="5.5" fill="#cfc48d" transform="rotate(-13 -26 -46)"/><path d="M0,0 C -4,-28 -10,-45 -15,-56" stroke="#a3b066" stroke-width="2.4" fill="none" stroke-linecap="round"/><ellipse cx="-15" cy="-60" rx="1.7" ry="5.5" fill="#cfc48d" transform="rotate(-8 -15 -60)"/><path d="M0,0 C -2,-33 -4,-53 -5,-66" stroke="#a3b066" stroke-width="2.4" fill="none" stroke-linecap="round"/><ellipse cx="-5" cy="-70" rx="1.7" ry="5.5" fill="#cfc48d" transform="rotate(-2 -5 -70)"/><path d="M0,0 C 2,-30 4,-48 6,-60" stroke="#a3b066" stroke-width="2.4" fill="none" stroke-linecap="round"/><ellipse cx="6" cy="-64" rx="1.7" ry="5.5" fill="#cfc48d" transform="rotate(3 6 -64)"/><path d="M0,0 C 5,-24 12,-38 17,-48" stroke="#a3b066" stroke-width="2.4" fill="none" stroke-linecap="round"/><ellipse cx="17" cy="-52" rx="1.7" ry="5.5" fill="#cfc48d" transform="rotate(8 17 -52)"/><path d="M0,0 C 8,-18 19,-29 27,-36" stroke="#a3b066" stroke-width="2.4" fill="none" stroke-linecap="round"/><ellipse cx="27" cy="-40" rx="1.7" ry="5.5" fill="#cfc48d" transform="rotate(14 27 -40)"/></g><g transform="translate(168,690) scale(1.4)"><ellipse cx="0" cy="3" rx="30" ry="5" fill="#000" opacity="0.14"/><path d="M0,0 C -14,-16 -27,-22 -34,-26" stroke="#8fa055" stroke-width="2" fill="none" stroke-linecap="round"/><path d="M0,0 C -8,-19 -16,-27 -20,-32" stroke="#8fa055" stroke-width="2" fill="none" stroke-linecap="round"/><path d="M0,0 C 4,-18 8,-26 10,-30" stroke="#8fa055" stroke-width="2" fill="none" stroke-linecap="round"/><path d="M0,0 C 10,-14 19,-20 24,-24" stroke="#8fa055" stroke-width="2" fill="none" stroke-linecap="round"/><path d="M0,0 C 14,-11 27,-15 34,-18" stroke="#8fa055" stroke-width="2" fill="none" stroke-linecap="round"/><path d="M0,0 C -8,-21 -18,-34 -26,-42" stroke="#a3b066" stroke-width="2.4" fill="none" stroke-linecap="round"/><ellipse cx="-26" cy="-46" rx="1.7" ry="5.5" fill="#cfc48d" transform="rotate(-13 -26 -46)"/><path d="M0,0 C -4,-28 -10,-45 -15,-56" stroke="#a3b066" stroke-width="2.4" fill="none" stroke-linecap="round"/><ellipse cx="-15" cy="-60" rx="1.7" ry="5.5" fill="#cfc48d" transform="rotate(-8 -15 -60)"/><path d="M0,0 C -2,-33 -4,-53 -5,-66" stroke="#a3b066" stroke-width="2.4" fill="none" stroke-linecap="round"/><ellipse cx="-5" cy="-70" rx="1.7" ry="5.5" fill="#cfc48d" transform="rotate(-2 -5 -70)"/><path d="M0,0 C 2,-30 4,-48 6,-60" stroke="#a3b066" stroke-width="2.4" fill="none" stroke-linecap="round"/><ellipse cx="6" cy="-64" rx="1.7" ry="5.5" fill="#cfc48d" transform="rotate(3 6 -64)"/><path d="M0,0 C 5,-24 12,-38 17,-48" stroke="#a3b066" stroke-width="2.4" fill="none" stroke-linecap="round"/><ellipse cx="17" cy="-52" rx="1.7" ry="5.5" fill="#cfc48d" transform="rotate(8 17 -52)"/><path d="M0,0 C 8,-18 19,-29 27,-36" stroke="#a3b066" stroke-width="2.4" fill="none" stroke-linecap="round"/><ellipse cx="27" cy="-40" rx="1.7" ry="5.5" fill="#cfc48d" transform="rotate(14 27 -40)"/></g><g transform="translate(300,716) scale(1.3)"><ellipse cx="0" cy="3" rx="30" ry="5" fill="#000" opacity="0.14"/><path d="M0,0 C -14,-16 -27,-22 -34,-26" stroke="#8fa055" stroke-width="2" fill="none" stroke-linecap="round"/><path d="M0,0 C -8,-19 -16,-27 -20,-32" stroke="#8fa055" stroke-width="2" fill="none" stroke-linecap="round"/><path d="M0,0 C 4,-18 8,-26 10,-30" stroke="#8fa055" stroke-width="2" fill="none" stroke-linecap="round"/><path d="M0,0 C 10,-14 19,-20 24,-24" stroke="#8fa055" stroke-width="2" fill="none" stroke-linecap="round"/><path d="M0,0 C 14,-11 27,-15 34,-18" stroke="#8fa055" stroke-width="2" fill="none" stroke-linecap="round"/><path d="M0,0 C -8,-21 -18,-34 -26,-42" stroke="#a3b066" stroke-width="2.4" fill="none" stroke-linecap="round"/><ellipse cx="-26" cy="-46" rx="1.7" ry="5.5" fill="#cfc48d" transform="rotate(-13 -26 -46)"/><path d="M0,0 C -4,-28 -10,-45 -15,-56" stroke="#a3b066" stroke-width="2.4" fill="none" stroke-linecap="round"/><ellipse cx="-15" cy="-60" rx="1.7" ry="5.5" fill="#cfc48d" transform="rotate(-8 -15 -60)"/><path d="M0,0 C -2,-33 -4,-53 -5,-66" stroke="#a3b066" stroke-width="2.4" fill="none" stroke-linecap="round"/><ellipse cx="-5" cy="-70" rx="1.7" ry="5.5" fill="#cfc48d" transform="rotate(-2 -5 -70)"/><path d="M0,0 C 2,-30 4,-48 6,-60" stroke="#a3b066" stroke-width="2.4" fill="none" stroke-linecap="round"/><ellipse cx="6" cy="-64" rx="1.7" ry="5.5" fill="#cfc48d" transform="rotate(3 6 -64)"/><path d="M0,0 C 5,-24 12,-38 17,-48" stroke="#a3b066" stroke-width="2.4" fill="none" stroke-linecap="round"/><ellipse cx="17" cy="-52" rx="1.7" ry="5.5" fill="#cfc48d" transform="rotate(8 17 -52)"/><path d="M0,0 C 8,-18 19,-29 27,-36" stroke="#a3b066" stroke-width="2.4" fill="none" stroke-linecap="round"/><ellipse cx="27" cy="-40" rx="1.7" ry="5.5" fill="#cfc48d" transform="rotate(14 27 -40)"/></g><g transform="translate(452,700) scale(1.15)"><ellipse cx="0" cy="3" rx="30" ry="5" fill="#000" opacity="0.14"/><path d="M0,0 C -14,-16 -27,-22 -34,-26" stroke="#8fa055" stroke-width="2" fill="none" stroke-linecap="round"/><path d="M0,0 C -8,-19 -16,-27 -20,-32" stroke="#8fa055" stroke-width="2" fill="none" stroke-linecap="round"/><path d="M0,0 C 4,-18 8,-26 10,-30" stroke="#8fa055" stroke-width="2" fill="none" stroke-linecap="round"/><path d="M0,0 C 10,-14 19,-20 24,-24" stroke="#8fa055" stroke-width="2" fill="none" stroke-linecap="round"/><path d="M0,0 C 14,-11 27,-15 34,-18" stroke="#8fa055" stroke-width="2" fill="none" stroke-linecap="round"/><path d="M0,0 C -8,-21 -18,-34 -26,-42" stroke="#a3b066" stroke-width="2.4" fill="none" stroke-linecap="round"/><ellipse cx="-26" cy="-46" rx="1.7" ry="5.5" fill="#cfc48d" transform="rotate(-13 -26 -46)"/><path d="M0,0 C -4,-28 -10,-45 -15,-56" stroke="#a3b066" stroke-width="2.4" fill="none" stroke-linecap="round"/><ellipse cx="-15" cy="-60" rx="1.7" ry="5.5" fill="#cfc48d" transform="rotate(-8 -15 -60)"/><path d="M0,0 C -2,-33 -4,-53 -5,-66" stroke="#a3b066" stroke-width="2.4" fill="none" stroke-linecap="round"/><ellipse cx="-5" cy="-70" rx="1.7" ry="5.5" fill="#cfc48d" transform="rotate(-2 -5 -70)"/><path d="M0,0 C 2,-30 4,-48 6,-60" stroke="#a3b066" stroke-width="2.4" fill="none" stroke-linecap="round"/><ellipse cx="6" cy="-64" rx="1.7" ry="5.5" fill="#cfc48d" transform="rotate(3 6 -64)"/><path d="M0,0 C 5,-24 12,-38 17,-48" stroke="#a3b066" stroke-width="2.4" fill="none" stroke-linecap="round"/><ellipse cx="17" cy="-52" rx="1.7" ry="5.5" fill="#cfc48d" transform="rotate(8 17 -52)"/><path d="M0,0 C 8,-18 19,-29 27,-36" stroke="#a3b066" stroke-width="2.4" fill="none" stroke-linecap="round"/><ellipse cx="27" cy="-40" rx="1.7" ry="5.5" fill="#cfc48d" transform="rotate(14 27 -40)"/></g><g transform="translate(860,664) scale(1.2)"><ellipse cx="0" cy="3" rx="30" ry="5" fill="#000" opacity="0.14"/><path d="M0,0 C -14,-16 -27,-22 -34,-26" stroke="#8fa055" stroke-width="2" fill="none" stroke-linecap="round"/><path d="M0,0 C -8,-19 -16,-27 -20,-32" stroke="#8fa055" stroke-width="2" fill="none" stroke-linecap="round"/><path d="M0,0 C 4,-18 8,-26 10,-30" stroke="#8fa055" stroke-width="2" fill="none" stroke-linecap="round"/><path d="M0,0 C 10,-14 19,-20 24,-24" stroke="#8fa055" stroke-width="2" fill="none" stroke-linecap="round"/><path d="M0,0 C 14,-11 27,-15 34,-18" stroke="#8fa055" stroke-width="2" fill="none" stroke-linecap="round"/><path d="M0,0 C -8,-21 -18,-34 -26,-42" stroke="#a3b066" stroke-width="2.4" fill="none" stroke-linecap="round"/><ellipse cx="-26" cy="-46" rx="1.7" ry="5.5" fill="#cfc48d" transform="rotate(-13 -26 -46)"/><path d="M0,0 C -4,-28 -10,-45 -15,-56" stroke="#a3b066" stroke-width="2.4" fill="none" stroke-linecap="round"/><ellipse cx="-15" cy="-60" rx="1.7" ry="5.5" fill="#cfc48d" transform="rotate(-8 -15 -60)"/><path d="M0,0 C -2,-33 -4,-53 -5,-66" stroke="#a3b066" stroke-width="2.4" fill="none" stroke-linecap="round"/><ellipse cx="-5" cy="-70" rx="1.7" ry="5.5" fill="#cfc48d" transform="rotate(-2 -5 -70)"/><path d="M0,0 C 2,-30 4,-48 6,-60" stroke="#a3b066" stroke-width="2.4" fill="none" stroke-linecap="round"/><ellipse cx="6" cy="-64" rx="1.7" ry="5.5" fill="#cfc48d" transform="rotate(3 6 -64)"/><path d="M0,0 C 5,-24 12,-38 17,-48" stroke="#a3b066" stroke-width="2.4" fill="none" stroke-linecap="round"/><ellipse cx="17" cy="-52" rx="1.7" ry="5.5" fill="#cfc48d" transform="rotate(8 17 -52)"/><path d="M0,0 C 8,-18 19,-29 27,-36" stroke="#a3b066" stroke-width="2.4" fill="none" stroke-linecap="round"/><ellipse cx="27" cy="-40" rx="1.7" ry="5.5" fill="#cfc48d" transform="rotate(14 27 -40)"/></g><g transform="translate(960,716) scale(1.35)"><ellipse cx="0" cy="3" rx="30" ry="5" fill="#000" opacity="0.14"/><path d="M0,0 C -14,-16 -27,-22 -34,-26" stroke="#8fa055" stroke-width="2" fill="none" stroke-linecap="round"/><path d="M0,0 C -8,-19 -16,-27 -20,-32" stroke="#8fa055" stroke-width="2" fill="none" stroke-linecap="round"/><path d="M0,0 C 4,-18 8,-26 10,-30" stroke="#8fa055" stroke-width="2" fill="none" stroke-linecap="round"/><path d="M0,0 C 10,-14 19,-20 24,-24" stroke="#8fa055" stroke-width="2" fill="none" stroke-linecap="round"/><path d="M0,0 C 14,-11 27,-15 34,-18" stroke="#8fa055" stroke-width="2" fill="none" stroke-linecap="round"/><path d="M0,0 C -8,-21 -18,-34 -26,-42" stroke="#a3b066" stroke-width="2.4" fill="none" stroke-linecap="round"/><ellipse cx="-26" cy="-46" rx="1.7" ry="5.5" fill="#cfc48d" transform="rotate(-13 -26 -46)"/><path d="M0,0 C -4,-28 -10,-45 -15,-56" stroke="#a3b066" stroke-width="2.4" fill="none" stroke-linecap="round"/><ellipse cx="-15" cy="-60" rx="1.7" ry="5.5" fill="#cfc48d" transform="rotate(-8 -15 -60)"/><path d="M0,0 C -2,-33 -4,-53 -5,-66" stroke="#a3b066" stroke-width="2.4" fill="none" stroke-linecap="round"/><ellipse cx="-5" cy="-70" rx="1.7" ry="5.5" fill="#cfc48d" transform="rotate(-2 -5 -70)"/><path d="M0,0 C 2,-30 4,-48 6,-60" stroke="#a3b066" stroke-width="2.4" fill="none" stroke-linecap="round"/><ellipse cx="6" cy="-64" rx="1.7" ry="5.5" fill="#cfc48d" transform="rotate(3 6 -64)"/><path d="M0,0 C 5,-24 12,-38 17,-48" stroke="#a3b066" stroke-width="2.4" fill="none" stroke-linecap="round"/><ellipse cx="17" cy="-52" rx="1.7" ry="5.5" fill="#cfc48d" transform="rotate(8 17 -52)"/><path d="M0,0 C 8,-18 19,-29 27,-36" stroke="#a3b066" stroke-width="2.4" fill="none" stroke-linecap="round"/><ellipse cx="27" cy="-40" rx="1.7" ry="5.5" fill="#cfc48d" transform="rotate(14 27 -40)"/></g><g transform="translate(1090,690) scale(1.25)"><ellipse cx="0" cy="3" rx="30" ry="5" fill="#000" opacity="0.14"/><path d="M0,0 C -14,-16 -27,-22 -34,-26" stroke="#8fa055" stroke-width="2" fill="none" stroke-linecap="round"/><path d="M0,0 C -8,-19 -16,-27 -20,-32" stroke="#8fa055" stroke-width="2" fill="none" stroke-linecap="round"/><path d="M0,0 C 4,-18 8,-26 10,-30" stroke="#8fa055" stroke-width="2" fill="none" stroke-linecap="round"/><path d="M0,0 C 10,-14 19,-20 24,-24" stroke="#8fa055" stroke-width="2" fill="none" stroke-linecap="round"/><path d="M0,0 C 14,-11 27,-15 34,-18" stroke="#8fa055" stroke-width="2" fill="none" stroke-linecap="round"/><path d="M0,0 C -8,-21 -18,-34 -26,-42" stroke="#a3b066" stroke-width="2.4" fill="none" stroke-linecap="round"/><ellipse cx="-26" cy="-46" rx="1.7" ry="5.5" fill="#cfc48d" transform="rotate(-13 -26 -46)"/><path d="M0,0 C -4,-28 -10,-45 -15,-56" stroke="#a3b066" stroke-width="2.4" fill="none" stroke-linecap="round"/><ellipse cx="-15" cy="-60" rx="1.7" ry="5.5" fill="#cfc48d" transform="rotate(-8 -15 -60)"/><path d="M0,0 C -2,-33 -4,-53 -5,-66" stroke="#a3b066" stroke-width="2.4" fill="none" stroke-linecap="round"/><ellipse cx="-5" cy="-70" rx="1.7" ry="5.5" fill="#cfc48d" transform="rotate(-2 -5 -70)"/><path d="M0,0 C 2,-30 4,-48 6,-60" stroke="#a3b066" stroke-width="2.4" fill="none" stroke-linecap="round"/><ellipse cx="6" cy="-64" rx="1.7" ry="5.5" fill="#cfc48d" transform="rotate(3 6 -64)"/><path d="M0,0 C 5,-24 12,-38 17,-48" stroke="#a3b066" stroke-width="2.4" fill="none" stroke-linecap="round"/><ellipse cx="17" cy="-52" rx="1.7" ry="5.5" fill="#cfc48d" transform="rotate(8 17 -52)"/><path d="M0,0 C 8,-18 19,-29 27,-36" stroke="#a3b066" stroke-width="2.4" fill="none" stroke-linecap="round"/><ellipse cx="27" cy="-40" rx="1.7" ry="5.5" fill="#cfc48d" transform="rotate(14 27 -40)"/></g><g transform="translate(1250,650) scale(1.1)"><ellipse cx="0" cy="3" rx="30" ry="5" fill="#000" opacity="0.14"/><path d="M0,0 C -14,-16 -27,-22 -34,-26" stroke="#8fa055" stroke-width="2" fill="none" stroke-linecap="round"/><path d="M0,0 C -8,-19 -16,-27 -20,-32" stroke="#8fa055" stroke-width="2" fill="none" stroke-linecap="round"/><path d="M0,0 C 4,-18 8,-26 10,-30" stroke="#8fa055" stroke-width="2" fill="none" stroke-linecap="round"/><path d="M0,0 C 10,-14 19,-20 24,-24" stroke="#8fa055" stroke-width="2" fill="none" stroke-linecap="round"/><path d="M0,0 C 14,-11 27,-15 34,-18" stroke="#8fa055" stroke-width="2" fill="none" stroke-linecap="round"/><path d="M0,0 C -8,-21 -18,-34 -26,-42" stroke="#a3b066" stroke-width="2.4" fill="none" stroke-linecap="round"/><ellipse cx="-26" cy="-46" rx="1.7" ry="5.5" fill="#cfc48d" transform="rotate(-13 -26 -46)"/><path d="M0,0 C -4,-28 -10,-45 -15,-56" stroke="#a3b066" stroke-width="2.4" fill="none" stroke-linecap="round"/><ellipse cx="-15" cy="-60" rx="1.7" ry="5.5" fill="#cfc48d" transform="rotate(-8 -15 -60)"/><path d="M0,0 C -2,-33 -4,-53 -5,-66" stroke="#a3b066" stroke-width="2.4" fill="none" stroke-linecap="round"/><ellipse cx="-5" cy="-70" rx="1.7" ry="5.5" fill="#cfc48d" transform="rotate(-2 -5 -70)"/><path d="M0,0 C 2,-30 4,-48 6,-60" stroke="#a3b066" stroke-width="2.4" fill="none" stroke-linecap="round"/><ellipse cx="6" cy="-64" rx="1.7" ry="5.5" fill="#cfc48d" transform="rotate(3 6 -64)"/><path d="M0,0 C 5,-24 12,-38 17,-48" stroke="#a3b066" stroke-width="2.4" fill="none" stroke-linecap="round"/><ellipse cx="17" cy="-52" rx="1.7" ry="5.5" fill="#cfc48d" transform="rotate(8 17 -52)"/><path d="M0,0 C 8,-18 19,-29 27,-36" stroke="#a3b066" stroke-width="2.4" fill="none" stroke-linecap="round"/><ellipse cx="27" cy="-40" rx="1.7" ry="5.5" fill="#cfc48d" transform="rotate(14 27 -40)"/></g><g transform="translate(818,578) scale(0.9)"><ellipse cx="0" cy="3" rx="30" ry="5" fill="#000" opacity="0.14"/><path d="M0,0 C -14,-16 -27,-22 -34,-26" stroke="#8fa055" stroke-width="2" fill="none" stroke-linecap="round"/><path d="M0,0 C -8,-19 -16,-27 -20,-32" stroke="#8fa055" stroke-width="2" fill="none" stroke-linecap="round"/><path d="M0,0 C 4,-18 8,-26 10,-30" stroke="#8fa055" stroke-width="2" fill="none" stroke-linecap="round"/><path d="M0,0 C 10,-14 19,-20 24,-24" stroke="#8fa055" stroke-width="2" fill="none" stroke-linecap="round"/><path d="M0,0 C 14,-11 27,-15 34,-18" stroke="#8fa055" stroke-width="2" fill="none" stroke-linecap="round"/><path d="M0,0 C -8,-21 -18,-34 -26,-42" stroke="#a3b066" stroke-width="2.4" fill="none" stroke-linecap="round"/><ellipse cx="-26" cy="-46" rx="1.7" ry="5.5" fill="#cfc48d" transform="rotate(-13 -26 -46)"/><path d="M0,0 C -4,-28 -10,-45 -15,-56" stroke="#a3b066" stroke-width="2.4" fill="none" stroke-linecap="round"/><ellipse cx="-15" cy="-60" rx="1.7" ry="5.5" fill="#cfc48d" transform="rotate(-8 -15 -60)"/><path d="M0,0 C -2,-33 -4,-53 -5,-66" stroke="#a3b066" stroke-width="2.4" fill="none" stroke-linecap="round"/><ellipse cx="-5" cy="-70" rx="1.7" ry="5.5" fill="#cfc48d" transform="rotate(-2 -5 -70)"/><path d="M0,0 C 2,-30 4,-48 6,-60" stroke="#a3b066" stroke-width="2.4" fill="none" stroke-linecap="round"/><ellipse cx="6" cy="-64" rx="1.7" ry="5.5" fill="#cfc48d" transform="rotate(3 6 -64)"/><path d="M0,0 C 5,-24 12,-38 17,-48" stroke="#a3b066" stroke-width="2.4" fill="none" stroke-linecap="round"/><ellipse cx="17" cy="-52" rx="1.7" ry="5.5" fill="#cfc48d" transform="rotate(8 17 -52)"/><path d="M0,0 C 8,-18 19,-29 27,-36" stroke="#a3b066" stroke-width="2.4" fill="none" stroke-linecap="round"/><ellipse cx="27" cy="-40" rx="1.7" ry="5.5" fill="#cfc48d" transform="rotate(14 27 -40)"/></g><g transform="translate(1150,566) scale(0.85)"><ellipse cx="0" cy="3" rx="30" ry="5" fill="#000" opacity="0.14"/><path d="M0,0 C -14,-16 -27,-22 -34,-26" stroke="#8fa055" stroke-width="2" fill="none" stroke-linecap="round"/><path d="M0,0 C -8,-19 -16,-27 -20,-32" stroke="#8fa055" stroke-width="2" fill="none" stroke-linecap="round"/><path d="M0,0 C 4,-18 8,-26 10,-30" stroke="#8fa055" stroke-width="2" fill="none" stroke-linecap="round"/><path d="M0,0 C 10,-14 19,-20 24,-24" stroke="#8fa055" stroke-width="2" fill="none" stroke-linecap="round"/><path d="M0,0 C 14,-11 27,-15 34,-18" stroke="#8fa055" stroke-width="2" fill="none" stroke-linecap="round"/><path d="M0,0 C -8,-21 -18,-34 -26,-42" stroke="#a3b066" stroke-width="2.4" fill="none" stroke-linecap="round"/><ellipse cx="-26" cy="-46" rx="1.7" ry="5.5" fill="#cfc48d" transform="rotate(-13 -26 -46)"/><path d="M0,0 C -4,-28 -10,-45 -15,-56" stroke="#a3b066" stroke-width="2.4" fill="none" stroke-linecap="round"/><ellipse cx="-15" cy="-60" rx="1.7" ry="5.5" fill="#cfc48d" transform="rotate(-8 -15 -60)"/><path d="M0,0 C -2,-33 -4,-53 -5,-66" stroke="#a3b066" stroke-width="2.4" fill="none" stroke-linecap="round"/><ellipse cx="-5" cy="-70" rx="1.7" ry="5.5" fill="#cfc48d" transform="rotate(-2 -5 -70)"/><path d="M0,0 C 2,-30 4,-48 6,-60" stroke="#a3b066" stroke-width="2.4" fill="none" stroke-linecap="round"/><ellipse cx="6" cy="-64" rx="1.7" ry="5.5" fill="#cfc48d" transform="rotate(3 6 -64)"/><path d="M0,0 C 5,-24 12,-38 17,-48" stroke="#a3b066" stroke-width="2.4" fill="none" stroke-linecap="round"/><ellipse cx="17" cy="-52" rx="1.7" ry="5.5" fill="#cfc48d" transform="rotate(8 17 -52)"/><path d="M0,0 C 8,-18 19,-29 27,-36" stroke="#a3b066" stroke-width="2.4" fill="none" stroke-linecap="round"/><ellipse cx="27" cy="-40" rx="1.7" ry="5.5" fill="#cfc48d" transform="rotate(14 27 -40)"/></g><g transform="translate(222,570) scale(0.9)"><ellipse cx="0" cy="3" rx="30" ry="5" fill="#000" opacity="0.14"/><path d="M0,0 C -14,-16 -27,-22 -34,-26" stroke="#8fa055" stroke-width="2" fill="none" stroke-linecap="round"/><path d="M0,0 C -8,-19 -16,-27 -20,-32" stroke="#8fa055" stroke-width="2" fill="none" stroke-linecap="round"/><path d="M0,0 C 4,-18 8,-26 10,-30" stroke="#8fa055" stroke-width="2" fill="none" stroke-linecap="round"/><path d="M0,0 C 10,-14 19,-20 24,-24" stroke="#8fa055" stroke-width="2" fill="none" stroke-linecap="round"/><path d="M0,0 C 14,-11 27,-15 34,-18" stroke="#8fa055" stroke-width="2" fill="none" stroke-linecap="round"/><path d="M0,0 C -8,-21 -18,-34 -26,-42" stroke="#a3b066" stroke-width="2.4" fill="none" stroke-linecap="round"/><ellipse cx="-26" cy="-46" rx="1.7" ry="5.5" fill="#cfc48d" transform="rotate(-13 -26 -46)"/><path d="M0,0 C -4,-28 -10,-45 -15,-56" stroke="#a3b066" stroke-width="2.4" fill="none" stroke-linecap="round"/><ellipse cx="-15" cy="-60" rx="1.7" ry="5.5" fill="#cfc48d" transform="rotate(-8 -15 -60)"/><path d="M0,0 C -2,-33 -4,-53 -5,-66" stroke="#a3b066" stroke-width="2.4" fill="none" stroke-linecap="round"/><ellipse cx="-5" cy="-70" rx="1.7" ry="5.5" fill="#cfc48d" transform="rotate(-2 -5 -70)"/><path d="M0,0 C 2,-30 4,-48 6,-60" stroke="#a3b066" stroke-width="2.4" fill="none" stroke-linecap="round"/><ellipse cx="6" cy="-64" rx="1.7" ry="5.5" fill="#cfc48d" transform="rotate(3 6 -64)"/><path d="M0,0 C 5,-24 12,-38 17,-48" stroke="#a3b066" stroke-width="2.4" fill="none" stroke-linecap="round"/><ellipse cx="17" cy="-52" rx="1.7" ry="5.5" fill="#cfc48d" transform="rotate(8 17 -52)"/><path d="M0,0 C 8,-18 19,-29 27,-36" stroke="#a3b066" stroke-width="2.4" fill="none" stroke-linecap="round"/><ellipse cx="27" cy="-40" rx="1.7" ry="5.5" fill="#cfc48d" transform="rotate(14 27 -40)"/></g><g transform="translate(348,660) scale(1.0)"><ellipse cx="0" cy="3" rx="30" ry="5" fill="#000" opacity="0.14"/><g transform="rotate(-42 0 0)"><path d="M0,0 L-4,-34 L0,-46 L4,-34 Z" fill="#3f7a4a"/><path d="M0,-10 L-18,-32 L-13,-40 L0,-26 Z" fill="#4d8f58"/><path d="M0,-10 L18,-32 L13,-40 L0,-26 Z" fill="#4d8f58"/></g><g transform="rotate(-20 0 0)"><path d="M0,0 L-4,-34 L0,-46 L4,-34 Z" fill="#3f7a4a"/><path d="M0,-10 L-18,-32 L-13,-40 L0,-26 Z" fill="#4d8f58"/><path d="M0,-10 L18,-32 L13,-40 L0,-26 Z" fill="#4d8f58"/></g><g transform="rotate(0 0 0)"><path d="M0,0 L-4,-34 L0,-46 L4,-34 Z" fill="#3f7a4a"/><path d="M0,-10 L-18,-32 L-13,-40 L0,-26 Z" fill="#4d8f58"/><path d="M0,-10 L18,-32 L13,-40 L0,-26 Z" fill="#4d8f58"/></g><g transform="rotate(20 0 0)"><path d="M0,0 L-4,-34 L0,-46 L4,-34 Z" fill="#3f7a4a"/><path d="M0,-10 L-18,-32 L-13,-40 L0,-26 Z" fill="#4d8f58"/><path d="M0,-10 L18,-32 L13,-40 L0,-26 Z" fill="#4d8f58"/></g><g transform="rotate(42 0 0)"><path d="M0,0 L-4,-34 L0,-46 L4,-34 Z" fill="#3f7a4a"/><path d="M0,-10 L-18,-32 L-13,-40 L0,-26 Z" fill="#4d8f58"/><path d="M0,-10 L18,-32 L13,-40 L0,-26 Z" fill="#4d8f58"/></g></g><g transform="translate(520,716) scale(1.05)"><ellipse cx="0" cy="3" rx="30" ry="5" fill="#000" opacity="0.14"/><g transform="rotate(-42 0 0)"><path d="M0,0 L-4,-34 L0,-46 L4,-34 Z" fill="#3f7a4a"/><path d="M0,-10 L-18,-32 L-13,-40 L0,-26 Z" fill="#4d8f58"/><path d="M0,-10 L18,-32 L13,-40 L0,-26 Z" fill="#4d8f58"/></g><g transform="rotate(-20 0 0)"><path d="M0,0 L-4,-34 L0,-46 L4,-34 Z" fill="#3f7a4a"/><path d="M0,-10 L-18,-32 L-13,-40 L0,-26 Z" fill="#4d8f58"/><path d="M0,-10 L18,-32 L13,-40 L0,-26 Z" fill="#4d8f58"/></g><g transform="rotate(0 0 0)"><path d="M0,0 L-4,-34 L0,-46 L4,-34 Z" fill="#3f7a4a"/><path d="M0,-10 L-18,-32 L-13,-40 L0,-26 Z" fill="#4d8f58"/><path d="M0,-10 L18,-32 L13,-40 L0,-26 Z" fill="#4d8f58"/></g><g transform="rotate(20 0 0)"><path d="M0,0 L-4,-34 L0,-46 L4,-34 Z" fill="#3f7a4a"/><path d="M0,-10 L-18,-32 L-13,-40 L0,-26 Z" fill="#4d8f58"/><path d="M0,-10 L18,-32 L13,-40 L0,-26 Z" fill="#4d8f58"/></g><g transform="rotate(42 0 0)"><path d="M0,0 L-4,-34 L0,-46 L4,-34 Z" fill="#3f7a4a"/><path d="M0,-10 L-18,-32 L-13,-40 L0,-26 Z" fill="#4d8f58"/><path d="M0,-10 L18,-32 L13,-40 L0,-26 Z" fill="#4d8f58"/></g></g><g transform="translate(900,604) scale(0.9)"><ellipse cx="0" cy="3" rx="30" ry="5" fill="#000" opacity="0.14"/><g transform="rotate(-42 0 0)"><path d="M0,0 L-4,-34 L0,-46 L4,-34 Z" fill="#3f7a4a"/><path d="M0,-10 L-18,-32 L-13,-40 L0,-26 Z" fill="#4d8f58"/><path d="M0,-10 L18,-32 L13,-40 L0,-26 Z" fill="#4d8f58"/></g><g transform="rotate(-20 0 0)"><path d="M0,0 L-4,-34 L0,-46 L4,-34 Z" fill="#3f7a4a"/><path d="M0,-10 L-18,-32 L-13,-40 L0,-26 Z" fill="#4d8f58"/><path d="M0,-10 L18,-32 L13,-40 L0,-26 Z" fill="#4d8f58"/></g><g transform="rotate(0 0 0)"><path d="M0,0 L-4,-34 L0,-46 L4,-34 Z" fill="#3f7a4a"/><path d="M0,-10 L-18,-32 L-13,-40 L0,-26 Z" fill="#4d8f58"/><path d="M0,-10 L18,-32 L13,-40 L0,-26 Z" fill="#4d8f58"/></g><g transform="rotate(20 0 0)"><path d="M0,0 L-4,-34 L0,-46 L4,-34 Z" fill="#3f7a4a"/><path d="M0,-10 L-18,-32 L-13,-40 L0,-26 Z" fill="#4d8f58"/><path d="M0,-10 L18,-32 L13,-40 L0,-26 Z" fill="#4d8f58"/></g><g transform="rotate(42 0 0)"><path d="M0,0 L-4,-34 L0,-46 L4,-34 Z" fill="#3f7a4a"/><path d="M0,-10 L-18,-32 L-13,-40 L0,-26 Z" fill="#4d8f58"/><path d="M0,-10 L18,-32 L13,-40 L0,-26 Z" fill="#4d8f58"/></g></g><g transform="translate(1030,640) scale(1.0)"><ellipse cx="0" cy="3" rx="30" ry="5" fill="#000" opacity="0.14"/><g transform="rotate(-42 0 0)"><path d="M0,0 L-4,-34 L0,-46 L4,-34 Z" fill="#3f7a4a"/><path d="M0,-10 L-18,-32 L-13,-40 L0,-26 Z" fill="#4d8f58"/><path d="M0,-10 L18,-32 L13,-40 L0,-26 Z" fill="#4d8f58"/></g><g transform="rotate(-20 0 0)"><path d="M0,0 L-4,-34 L0,-46 L4,-34 Z" fill="#3f7a4a"/><path d="M0,-10 L-18,-32 L-13,-40 L0,-26 Z" fill="#4d8f58"/><path d="M0,-10 L18,-32 L13,-40 L0,-26 Z" fill="#4d8f58"/></g><g transform="rotate(0 0 0)"><path d="M0,0 L-4,-34 L0,-46 L4,-34 Z" fill="#3f7a4a"/><path d="M0,-10 L-18,-32 L-13,-40 L0,-26 Z" fill="#4d8f58"/><path d="M0,-10 L18,-32 L13,-40 L0,-26 Z" fill="#4d8f58"/></g><g transform="rotate(20 0 0)"><path d="M0,0 L-4,-34 L0,-46 L4,-34 Z" fill="#3f7a4a"/><path d="M0,-10 L-18,-32 L-13,-40 L0,-26 Z" fill="#4d8f58"/><path d="M0,-10 L18,-32 L13,-40 L0,-26 Z" fill="#4d8f58"/></g><g transform="rotate(42 0 0)"><path d="M0,0 L-4,-34 L0,-46 L4,-34 Z" fill="#3f7a4a"/><path d="M0,-10 L-18,-32 L-13,-40 L0,-26 Z" fill="#4d8f58"/><path d="M0,-10 L18,-32 L13,-40 L0,-26 Z" fill="#4d8f58"/></g></g><g transform="translate(128,596) scale(0.86)"><ellipse cx="0" cy="3" rx="30" ry="5" fill="#000" opacity="0.14"/><g transform="rotate(-42 0 0)"><path d="M0,0 L-4,-34 L0,-46 L4,-34 Z" fill="#3f7a4a"/><path d="M0,-10 L-18,-32 L-13,-40 L0,-26 Z" fill="#4d8f58"/><path d="M0,-10 L18,-32 L13,-40 L0,-26 Z" fill="#4d8f58"/></g><g transform="rotate(-20 0 0)"><path d="M0,0 L-4,-34 L0,-46 L4,-34 Z" fill="#3f7a4a"/><path d="M0,-10 L-18,-32 L-13,-40 L0,-26 Z" fill="#4d8f58"/><path d="M0,-10 L18,-32 L13,-40 L0,-26 Z" fill="#4d8f58"/></g><g transform="rotate(0 0 0)"><path d="M0,0 L-4,-34 L0,-46 L4,-34 Z" fill="#3f7a4a"/><path d="M0,-10 L-18,-32 L-13,-40 L0,-26 Z" fill="#4d8f58"/><path d="M0,-10 L18,-32 L13,-40 L0,-26 Z" fill="#4d8f58"/></g><g transform="rotate(20 0 0)"><path d="M0,0 L-4,-34 L0,-46 L4,-34 Z" fill="#3f7a4a"/><path d="M0,-10 L-18,-32 L-13,-40 L0,-26 Z" fill="#4d8f58"/><path d="M0,-10 L18,-32 L13,-40 L0,-26 Z" fill="#4d8f58"/></g><g transform="rotate(42 0 0)"><path d="M0,0 L-4,-34 L0,-46 L4,-34 Z" fill="#3f7a4a"/><path d="M0,-10 L-18,-32 L-13,-40 L0,-26 Z" fill="#4d8f58"/><path d="M0,-10 L18,-32 L13,-40 L0,-26 Z" fill="#4d8f58"/></g></g><g transform="translate(786,700) scale(1.15)"><ellipse cx="0" cy="3" rx="12" ry="4" fill="#000" opacity="0.14"/><rect x="-5" y="-52" width="10" height="52" fill="#8a7458"/><rect x="-5" y="-52" width="10" height="4" rx="2" fill="#9c8666"/><ellipse cx="0" cy="-64" rx="15" ry="11" fill="#c9ccc4"/><path d="M-10,-66 q10,-6 18,2 q-9,4 -18,-2 Z" fill="#a8ada4"/><circle cx="9" cy="-74" r="7" fill="#dfe2da"/><path d="M14,-72 C 24,-70 26,-64 20,-62 C 16,-64 14,-68 14,-72 Z" fill="#e0a13c"/><circle cx="11" cy="-76" r="1.4" fill="#22262b"/></g><g transform="translate(432,690) scale(1.0)"><ellipse cx="0" cy="2" rx="12" ry="3" fill="#000" opacity="0.14"/><g stroke="#c9737f" stroke-width="2.2"><path d="M-3,-14 L-4,0 M4,-14 L6,0"/></g><ellipse cx="0" cy="-22" rx="14" ry="10" fill="#e88fae"/><path d="M-8,-24 q10,-6 18,2 q-9,4 -18,-2 Z" fill="#d9709a"/><path d="M10,-28 C 18,-36 22,-40 24,-44" stroke="#e88fae" stroke-width="4.5" fill="none"/><ellipse cx="26" cy="-46" rx="5" ry="3.6" fill="#d8d2c0"/><circle cx="23" cy="-48" r="1.2" fill="#22262b"/></g><g transform="translate(470,700) scale(0.86)"><ellipse cx="0" cy="2" rx="12" ry="3" fill="#000" opacity="0.14"/><g stroke="#c9737f" stroke-width="2.2"><path d="M-3,-14 L-4,0 M4,-14 L6,0"/></g><ellipse cx="0" cy="-22" rx="14" ry="10" fill="#e88fae"/><path d="M-8,-24 q10,-6 18,2 q-9,4 -18,-2 Z" fill="#d9709a"/><path d="M10,-28 C 18,-36 22,-40 24,-44" stroke="#e88fae" stroke-width="4.5" fill="none"/><ellipse cx="26" cy="-46" rx="5" ry="3.6" fill="#d8d2c0"/><circle cx="23" cy="-48" r="1.2" fill="#22262b"/></g><g transform="translate(1120,596)"><ellipse cx="0" cy="4" rx="34" ry="6" fill="#000" opacity="0.14"/><rect x="-30" y="-30" width="60" height="24" rx="3" fill="#2f4d8f"/><rect x="-30" y="-30" width="60" height="7" rx="3" fill="#3f5f9f"/><text x="0" y="-13" text-anchor="middle" font-family="Trebuchet MS,Arial,sans-serif" font-size="11" font-weight="bold" fill="#f2f4f6">PAD 39</text><g stroke="#8a9096" stroke-width="4"><path d="M-16,-6 L-16,8 M16,-6 L16,8"/></g></g>
  </g>
  <g id="gate-near">
    <g transform="translate(552,480) scale(1.2)">
      <rect x="-8" y="0" width="16" height="70" rx="4" fill="#2f3136"/>
      <g transform="translate(0,-4)" stroke="#ffffff" stroke-width="6" stroke-linecap="round">
        <line x1="-15" y1="-15" x2="15" y2="15"/><line x1="15" y1="-15" x2="-15" y2="15"/></g>
      <circle cx="-13" cy="16" r="6.5" fill="#ff2a2a"/>
      <circle cx="13" cy="16" r="6.5" fill="#7a1c1c"/>
      <g transform="translate(0,40)">
        <rect x="0" y="-5" width="76" height="10" rx="5" fill="#ffffff"/><rect x="6" y="-5" width="15" height="10" fill="#d23b34"/><rect x="34" y="-5" width="15" height="10" fill="#d23b34"/>
      </g>
    </g>
    <g transform="translate(728,480) scale(1.2)">
      <rect x="-8" y="0" width="16" height="70" rx="4" fill="#2f3136"/>
      <g transform="translate(0,-4)" stroke="#ffffff" stroke-width="6" stroke-linecap="round">
        <line x1="-15" y1="-15" x2="15" y2="15"/><line x1="15" y1="-15" x2="-15" y2="15"/></g>
      <circle cx="-13" cy="16" r="6.5" fill="#7a1c1c"/>
      <circle cx="13" cy="16" r="6.5" fill="#ff2a2a"/>
      <g transform="translate(0,40)">
        <rect x="-76" y="-5" width="76" height="10" rx="5" fill="#ffffff"/><rect x="-70" y="-5" width="15" height="10" fill="#d23b34"/><rect x="-42" y="-5" width="15" height="10" fill="#d23b34"/>
      </g>
    </g>
  </g>
  <g id="foreground">
    <g fill="#b6a97e" opacity="0.5"><rect x="0" y="708" width="1280" height="4"/></g>
  </g>
</svg>
