<?xml version="1.0" encoding="UTF-8"?>
<!-- Chuga Chocho — CHICAGO — skyline, the elevated L, Lake Michigan, city streets
     Generated by tools/gen-scenes.py. Furniture (road, track, both gates) is shared
     and identical across scenes; only the artwork differs. See SCENE_GUIDE.md.
     Horizon y=300 · track band y=450-516 (kept clear) · train renders between
     #gate-far and #scenery-front. -->
<svg xmlns="http://www.w3.org/2000/svg" viewBox="0 0 1280 720" id="scene-chicago">
  <defs>
    <linearGradient id="skyg" x1="0" y1="0" x2="0" y2="1">
      <stop offset="0" stop-color="#5ea6dc"/><stop offset="0.62" stop-color="#a3cee8"/><stop offset="1" stop-color="#dbe8f0"/>
    </linearGradient>
    <radialGradient id="sung" cx="0.5" cy="0.5" r="0.5">
      <stop offset="0" stop-color="#fff6e0" stop-opacity="0.95"/>
      <stop offset="0.55" stop-color="#ffeecc" stop-opacity="0.45"/>
      <stop offset="1" stop-color="#ffeecc" stop-opacity="0"/>
    </radialGradient>
    <linearGradient id="lake" x1="0" y1="0" x2="0" y2="1">
      <stop offset="0" stop-color="#3d86b5"/><stop offset="1" stop-color="#69aecb"/>
    </linearGradient>
    <linearGradient id="asphalt" x1="0" y1="0" x2="0" y2="1">
      <stop offset="0" stop-color="#8f9298"/><stop offset="1" stop-color="#74777d"/>
    </linearGradient>
  </defs>
  <g id="sky">
    <rect x="0" y="0" width="1280" height="320" fill="url(#skyg)"/>
    <circle cx="1150" cy="88" r="145" fill="url(#sung)"/>
    <g opacity="0.75" fill="#ffffff"><ellipse cx="300" cy="74" rx="48" ry="20"/><ellipse cx="338" cy="68" rx="35" ry="17"/><ellipse cx="264" cy="79" rx="30" ry="15"/></g><g opacity="0.75" fill="#ffffff"><ellipse cx="760" cy="60" rx="40" ry="17"/><ellipse cx="792" cy="55" rx="29" ry="14"/><ellipse cx="730" cy="64" rx="25" ry="13"/></g>
    <g stroke="#5f7d92" stroke-width="3" fill="none" stroke-linecap="round" opacity="0.45"><path d="M880,178 q10,-9 20,0 q10,-9 20,0"/><path d="M932,202 q10,-9 20,0 q10,-9 20,0"/></g>
    <g class="cc-plane" data-fly="1330,948,126" data-nose="-1" transform="translate(1330,126)"><ellipse cx="0" cy="0" rx="46" ry="7" fill="#eef2f6"/><path d="M-30,0 L-4,-4 L14,-26 L26,-26 L18,-2 L26,26 L14,26 L-4,4 Z" fill="#e2e8ee"/><path d="M30,-2 L44,-10 L48,-2 L44,6 Z" fill="#cfd7df"/><rect x="-40" y="-3" width="16" height="6" rx="3" fill="#3d7bd6"/><g fill="#bfe3f5"><rect x="6" y="-2.5" width="4" height="4" rx="1"/><rect x="14" y="-2.5" width="4" height="4" rx="1"/><rect x="22" y="-2.5" width="4" height="4" rx="1"/><rect x="30" y="-2.5" width="4" height="4" rx="1"/></g><ellipse cx="-30" cy="1" rx="6" ry="4" fill="#cfd7df"/></g>
  </g>
  <g id="far">
    <rect x="884" y="258" width="396" height="44" fill="url(#lake)"/>
    <g fill="#ffffff" opacity="0.35"><rect x="898" y="270" width="46" height="2.5" rx="1"/><rect x="1006" y="284" width="62" height="2.5" rx="1"/><rect x="1108" y="266" width="50" height="2.5" rx="1"/><rect x="1192" y="290" width="56" height="2.5" rx="1"/><rect x="940" y="292" width="52" height="2.5" rx="1"/><rect x="1240" y="274" width="38" height="2.5" rx="1"/></g><g transform="translate(920,290)"><rect x="-24" y="-11" width="48" height="7" rx="2" fill="#f2f2ec"/><rect x="-15" y="-19" width="28" height="9" rx="2" fill="#fbf9f2"/><rect x="-3" y="-28" width="4" height="10" fill="#41474f"/><rect x="-26" y="-4" width="52" height="3" fill="#3f6b8f"/></g>
    <g><rect x="30" y="214" width="30" height="88" rx="1.5" fill="#7a8593"/><rect x="30" y="214" width="10" height="88" fill="#8e99a7"/><g fill="#cfe0ee" opacity="0.55"><rect x="34" y="223" width="22" height="4"/><rect x="34" y="236" width="22" height="4"/><rect x="34" y="249" width="22" height="4"/><rect x="34" y="262" width="22" height="4"/><rect x="34" y="275" width="22" height="4"/></g><rect x="64" y="182" width="26" height="120" rx="1.5" fill="#7a8593"/><rect x="64" y="182" width="8" height="120" fill="#8e99a7"/><g fill="#cfe0ee" opacity="0.55"><rect x="68" y="191" width="18" height="4"/><rect x="68" y="204" width="18" height="4"/><rect x="68" y="217" width="18" height="4"/><rect x="68" y="230" width="18" height="4"/><rect x="68" y="243" width="18" height="4"/><rect x="68" y="256" width="18" height="4"/><rect x="68" y="269" width="18" height="4"/><rect x="68" y="282" width="18" height="4"/></g><rect x="96" y="226" width="32" height="76" rx="1.5" fill="#7a8593"/><rect x="96" y="226" width="10" height="76" fill="#8e99a7"/><g fill="#cfe0ee" opacity="0.55"><rect x="100" y="235" width="24" height="4"/><rect x="100" y="248" width="24" height="4"/><rect x="100" y="261" width="24" height="4"/><rect x="100" y="274" width="24" height="4"/></g><rect x="132" y="168" width="28" height="134" rx="1.5" fill="#7a8593"/><rect x="132" y="168" width="9" height="134" fill="#8e99a7"/><g fill="#cfe0ee" opacity="0.55"><rect x="136" y="177" width="20" height="4"/><rect x="136" y="190" width="20" height="4"/><rect x="136" y="203" width="20" height="4"/><rect x="136" y="216" width="20" height="4"/><rect x="136" y="229" width="20" height="4"/><rect x="136" y="242" width="20" height="4"/><rect x="136" y="255" width="20" height="4"/><rect x="136" y="268" width="20" height="4"/><rect x="136" y="281" width="20" height="4"/></g><rect x="166" y="206" width="24" height="96" rx="1.5" fill="#7a8593"/><rect x="166" y="206" width="8" height="96" fill="#8e99a7"/><g fill="#cfe0ee" opacity="0.55"><rect x="170" y="215" width="16" height="4"/><rect x="170" y="228" width="16" height="4"/><rect x="170" y="241" width="16" height="4"/><rect x="170" y="254" width="16" height="4"/><rect x="170" y="267" width="16" height="4"/><rect x="170" y="280" width="16" height="4"/></g><rect x="194" y="238" width="30" height="64" rx="1.5" fill="#7a8593"/><rect x="194" y="238" width="10" height="64" fill="#8e99a7"/><g fill="#cfe0ee" opacity="0.55"><rect x="198" y="247" width="22" height="4"/><rect x="198" y="260" width="22" height="4"/><rect x="198" y="273" width="22" height="4"/></g><rect x="228" y="190" width="26" height="112" rx="1.5" fill="#7a8593"/><rect x="228" y="190" width="8" height="112" fill="#8e99a7"/><g fill="#cfe0ee" opacity="0.55"><rect x="232" y="199" width="18" height="4"/><rect x="232" y="212" width="18" height="4"/><rect x="232" y="225" width="18" height="4"/><rect x="232" y="238" width="18" height="4"/><rect x="232" y="251" width="18" height="4"/><rect x="232" y="264" width="18" height="4"/><rect x="232" y="277" width="18" height="4"/></g><rect x="258" y="222" width="32" height="80" rx="1.5" fill="#7a8593"/><rect x="258" y="222" width="10" height="80" fill="#8e99a7"/><g fill="#cfe0ee" opacity="0.55"><rect x="262" y="231" width="24" height="4"/><rect x="262" y="244" width="24" height="4"/><rect x="262" y="257" width="24" height="4"/><rect x="262" y="270" width="24" height="4"/></g><rect x="296" y="160" width="26" height="142" rx="1.5" fill="#7a8593"/><rect x="296" y="160" width="8" height="142" fill="#8e99a7"/><g fill="#cfe0ee" opacity="0.55"><rect x="300" y="169" width="18" height="4"/><rect x="300" y="182" width="18" height="4"/><rect x="300" y="195" width="18" height="4"/><rect x="300" y="208" width="18" height="4"/><rect x="300" y="221" width="18" height="4"/><rect x="300" y="234" width="18" height="4"/><rect x="300" y="247" width="18" height="4"/><rect x="300" y="260" width="18" height="4"/><rect x="300" y="273" width="18" height="4"/></g><rect x="326" y="204" width="30" height="98" rx="1.5" fill="#7a8593"/><rect x="326" y="204" width="10" height="98" fill="#8e99a7"/><g fill="#cfe0ee" opacity="0.55"><rect x="330" y="213" width="22" height="4"/><rect x="330" y="226" width="22" height="4"/><rect x="330" y="239" width="22" height="4"/><rect x="330" y="252" width="22" height="4"/><rect x="330" y="265" width="22" height="4"/><rect x="330" y="278" width="22" height="4"/></g><rect x="360" y="232" width="24" height="70" rx="1.5" fill="#7a8593"/><rect x="360" y="232" width="8" height="70" fill="#8e99a7"/><g fill="#cfe0ee" opacity="0.55"><rect x="364" y="241" width="16" height="4"/><rect x="364" y="254" width="16" height="4"/><rect x="364" y="267" width="16" height="4"/><rect x="364" y="280" width="16" height="4"/></g><rect x="388" y="186" width="28" height="116" rx="1.5" fill="#7a8593"/><rect x="388" y="186" width="9" height="116" fill="#8e99a7"/><g fill="#cfe0ee" opacity="0.55"><rect x="392" y="195" width="20" height="4"/><rect x="392" y="208" width="20" height="4"/><rect x="392" y="221" width="20" height="4"/><rect x="392" y="234" width="20" height="4"/><rect x="392" y="247" width="20" height="4"/><rect x="392" y="260" width="20" height="4"/><rect x="392" y="273" width="20" height="4"/></g><rect x="420" y="226" width="30" height="76" rx="1.5" fill="#7a8593"/><rect x="420" y="226" width="10" height="76" fill="#8e99a7"/><g fill="#cfe0ee" opacity="0.55"><rect x="424" y="235" width="22" height="4"/><rect x="424" y="248" width="22" height="4"/><rect x="424" y="261" width="22" height="4"/><rect x="424" y="274" width="22" height="4"/></g><rect x="454" y="196" width="24" height="106" rx="1.5" fill="#7a8593"/><rect x="454" y="196" width="8" height="106" fill="#8e99a7"/><g fill="#cfe0ee" opacity="0.55"><rect x="458" y="205" width="16" height="4"/><rect x="458" y="218" width="16" height="4"/><rect x="458" y="231" width="16" height="4"/><rect x="458" y="244" width="16" height="4"/><rect x="458" y="257" width="16" height="4"/><rect x="458" y="270" width="16" height="4"/></g><rect x="482" y="240" width="32" height="62" rx="1.5" fill="#7a8593"/><rect x="482" y="240" width="10" height="62" fill="#8e99a7"/><g fill="#cfe0ee" opacity="0.55"><rect x="486" y="249" width="24" height="4"/><rect x="486" y="262" width="24" height="4"/><rect x="486" y="275" width="24" height="4"/></g><rect x="560" y="214" width="28" height="88" rx="1.5" fill="#7a8593"/><rect x="560" y="214" width="9" height="88" fill="#8e99a7"/><g fill="#cfe0ee" opacity="0.55"><rect x="564" y="223" width="20" height="4"/><rect x="564" y="236" width="20" height="4"/><rect x="564" y="249" width="20" height="4"/><rect x="564" y="262" width="20" height="4"/><rect x="564" y="275" width="20" height="4"/></g><rect x="592" y="178" width="26" height="124" rx="1.5" fill="#7a8593"/><rect x="592" y="178" width="8" height="124" fill="#8e99a7"/><g fill="#cfe0ee" opacity="0.55"><rect x="596" y="187" width="18" height="4"/><rect x="596" y="200" width="18" height="4"/><rect x="596" y="213" width="18" height="4"/><rect x="596" y="226" width="18" height="4"/><rect x="596" y="239" width="18" height="4"/><rect x="596" y="252" width="18" height="4"/><rect x="596" y="265" width="18" height="4"/><rect x="596" y="278" width="18" height="4"/></g><rect x="622" y="232" width="30" height="70" rx="1.5" fill="#7a8593"/><rect x="622" y="232" width="10" height="70" fill="#8e99a7"/><g fill="#cfe0ee" opacity="0.55"><rect x="626" y="241" width="22" height="4"/><rect x="626" y="254" width="22" height="4"/><rect x="626" y="267" width="22" height="4"/><rect x="626" y="280" width="22" height="4"/></g><rect x="700" y="204" width="26" height="98" rx="1.5" fill="#7a8593"/><rect x="700" y="204" width="8" height="98" fill="#8e99a7"/><g fill="#cfe0ee" opacity="0.55"><rect x="704" y="213" width="18" height="4"/><rect x="704" y="226" width="18" height="4"/><rect x="704" y="239" width="18" height="4"/><rect x="704" y="252" width="18" height="4"/><rect x="704" y="265" width="18" height="4"/><rect x="704" y="278" width="18" height="4"/></g><rect x="730" y="236" width="30" height="66" rx="1.5" fill="#7a8593"/><rect x="730" y="236" width="10" height="66" fill="#8e99a7"/><g fill="#cfe0ee" opacity="0.55"><rect x="734" y="245" width="22" height="4"/><rect x="734" y="258" width="22" height="4"/><rect x="734" y="271" width="22" height="4"/></g><rect x="764" y="190" width="26" height="112" rx="1.5" fill="#7a8593"/><rect x="764" y="190" width="8" height="112" fill="#8e99a7"/><g fill="#cfe0ee" opacity="0.55"><rect x="768" y="199" width="18" height="4"/><rect x="768" y="212" width="18" height="4"/><rect x="768" y="225" width="18" height="4"/><rect x="768" y="238" width="18" height="4"/><rect x="768" y="251" width="18" height="4"/><rect x="768" y="264" width="18" height="4"/><rect x="768" y="277" width="18" height="4"/></g><rect x="794" y="226" width="32" height="76" rx="1.5" fill="#7a8593"/><rect x="794" y="226" width="10" height="76" fill="#8e99a7"/><g fill="#cfe0ee" opacity="0.55"><rect x="798" y="235" width="24" height="4"/><rect x="798" y="248" width="24" height="4"/><rect x="798" y="261" width="24" height="4"/><rect x="798" y="274" width="24" height="4"/></g><rect x="830" y="212" width="24" height="90" rx="1.5" fill="#7a8593"/><rect x="830" y="212" width="8" height="90" fill="#8e99a7"/><g fill="#cfe0ee" opacity="0.55"><rect x="834" y="221" width="16" height="4"/><rect x="834" y="234" width="16" height="4"/><rect x="834" y="247" width="16" height="4"/><rect x="834" y="260" width="16" height="4"/><rect x="834" y="273" width="16" height="4"/></g></g>
    <g><rect x="510" y="140" width="42" height="162" fill="#4e5763"/><rect x="510" y="140" width="15" height="162" fill="#616b78"/><rect x="518" y="92" width="4" height="50" fill="#3f4753"/><rect x="538" y="84" width="4" height="58" fill="#3f4753"/><g fill="#cfe0ee" opacity="0.5"><rect x="514" y="152" width="34" height="4"/><rect x="514" y="165" width="34" height="4"/><rect x="514" y="178" width="34" height="4"/><rect x="514" y="191" width="34" height="4"/><rect x="514" y="204" width="34" height="4"/><rect x="514" y="217" width="34" height="4"/><rect x="514" y="230" width="34" height="4"/><rect x="514" y="243" width="34" height="4"/><rect x="514" y="256" width="34" height="4"/><rect x="514" y="269" width="34" height="4"/><rect x="514" y="282" width="34" height="4"/></g></g>
    <g><polygon points="652,302 660,166 686,166 694,302" fill="#464e59"/><polygon points="652,302 660,166 672,166 668,302" fill="#59626e"/><g stroke="#79828f" stroke-width="2.5" fill="none"><path d="M657,262 L689,262 M659,222 L687,222 M661,186 L685,186"/><path d="M657,262 L687,222 M689,262 L659,222 M659,222 L685,186 M687,222 L661,186"/></g><rect x="664" y="132" width="3" height="34" fill="#3f4753"/><rect x="680" y="132" width="3" height="34" fill="#3f4753"/></g>
    <g id="navy-pier"><rect x="966" y="284" width="4" height="18" fill="#6f6f66" opacity="0.8"/><rect x="988" y="284" width="4" height="18" fill="#6f6f66" opacity="0.8"/><rect x="1010" y="284" width="4" height="18" fill="#6f6f66" opacity="0.8"/><rect x="1032" y="284" width="4" height="18" fill="#6f6f66" opacity="0.8"/><rect x="1054" y="284" width="4" height="18" fill="#6f6f66" opacity="0.8"/><rect x="1076" y="284" width="4" height="18" fill="#6f6f66" opacity="0.8"/><rect x="1098" y="284" width="4" height="18" fill="#6f6f66" opacity="0.8"/><rect x="1120" y="284" width="4" height="18" fill="#6f6f66" opacity="0.8"/><rect x="1142" y="284" width="4" height="18" fill="#6f6f66" opacity="0.8"/><rect x="1164" y="284" width="4" height="18" fill="#6f6f66" opacity="0.8"/><rect x="1186" y="284" width="4" height="18" fill="#6f6f66" opacity="0.8"/><rect x="1208" y="284" width="4" height="18" fill="#6f6f66" opacity="0.8"/><rect x="1230" y="284" width="4" height="18" fill="#6f6f66" opacity="0.8"/><rect x="1252" y="284" width="4" height="18" fill="#6f6f66" opacity="0.8"/><rect x="1274" y="284" width="4" height="18" fill="#6f6f66" opacity="0.8"/><rect x="958" y="276" width="322" height="9" rx="2" fill="#b6bcc2"/><rect x="958" y="274" width="322" height="3" rx="1.5" fill="#ccd2d7"/><g transform="translate(1092,232)"><g class="cc-ferris" data-secs="16"><g stroke="#dfe6ea" stroke-width="2.6" fill="none"><circle cx="0" cy="0" r="42"/><circle cx="0" cy="0" r="35"/></g><g stroke="#cfd8de" stroke-width="1.3"><line x1="0" y1="0" x2="42.0" y2="0.0"/><line x1="0" y1="0" x2="38.8" y2="16.1"/><line x1="0" y1="0" x2="29.7" y2="29.7"/><line x1="0" y1="0" x2="16.1" y2="38.8"/><line x1="0" y1="0" x2="0.0" y2="42.0"/><line x1="0" y1="0" x2="-16.1" y2="38.8"/><line x1="0" y1="0" x2="-29.7" y2="29.7"/><line x1="0" y1="0" x2="-38.8" y2="16.1"/><line x1="0" y1="0" x2="-42.0" y2="0.0"/><line x1="0" y1="0" x2="-38.8" y2="-16.1"/><line x1="0" y1="0" x2="-29.7" y2="-29.7"/><line x1="0" y1="0" x2="-16.1" y2="-38.8"/><line x1="0" y1="0" x2="-0.0" y2="-42.0"/><line x1="0" y1="0" x2="16.1" y2="-38.8"/><line x1="0" y1="0" x2="29.7" y2="-29.7"/><line x1="0" y1="0" x2="38.8" y2="-16.1"/></g><g class="cc-pod" data-px="42.0" data-py="0.0" transform="translate(42.0,0.0)"><rect x="-3.6" y="-1" width="7.2" height="7" rx="2.4" fill="#e8574a"/><rect x="-3.6" y="-2.4" width="7.2" height="2.4" rx="1.2" fill="#f6f6f0"/></g><g class="cc-pod" data-px="38.8" data-py="16.1" transform="translate(38.8,16.1)"><rect x="-3.6" y="-1" width="7.2" height="7" rx="2.4" fill="#f2b134"/><rect x="-3.6" y="-2.4" width="7.2" height="2.4" rx="1.2" fill="#f6f6f0"/></g><g class="cc-pod" data-px="29.7" data-py="29.7" transform="translate(29.7,29.7)"><rect x="-3.6" y="-1" width="7.2" height="7" rx="2.4" fill="#4fb8d6"/><rect x="-3.6" y="-2.4" width="7.2" height="2.4" rx="1.2" fill="#f6f6f0"/></g><g class="cc-pod" data-px="16.1" data-py="38.8" transform="translate(16.1,38.8)"><rect x="-3.6" y="-1" width="7.2" height="7" rx="2.4" fill="#7bc86c"/><rect x="-3.6" y="-2.4" width="7.2" height="2.4" rx="1.2" fill="#f6f6f0"/></g><g class="cc-pod" data-px="0.0" data-py="42.0" transform="translate(0.0,42.0)"><rect x="-3.6" y="-1" width="7.2" height="7" rx="2.4" fill="#b47fd0"/><rect x="-3.6" y="-2.4" width="7.2" height="2.4" rx="1.2" fill="#f6f6f0"/></g><g class="cc-pod" data-px="-16.1" data-py="38.8" transform="translate(-16.1,38.8)"><rect x="-3.6" y="-1" width="7.2" height="7" rx="2.4" fill="#f28c34"/><rect x="-3.6" y="-2.4" width="7.2" height="2.4" rx="1.2" fill="#f6f6f0"/></g><g class="cc-pod" data-px="-29.7" data-py="29.7" transform="translate(-29.7,29.7)"><rect x="-3.6" y="-1" width="7.2" height="7" rx="2.4" fill="#e8574a"/><rect x="-3.6" y="-2.4" width="7.2" height="2.4" rx="1.2" fill="#f6f6f0"/></g><g class="cc-pod" data-px="-38.8" data-py="16.1" transform="translate(-38.8,16.1)"><rect x="-3.6" y="-1" width="7.2" height="7" rx="2.4" fill="#f2b134"/><rect x="-3.6" y="-2.4" width="7.2" height="2.4" rx="1.2" fill="#f6f6f0"/></g><g class="cc-pod" data-px="-42.0" data-py="0.0" transform="translate(-42.0,0.0)"><rect x="-3.6" y="-1" width="7.2" height="7" rx="2.4" fill="#4fb8d6"/><rect x="-3.6" y="-2.4" width="7.2" height="2.4" rx="1.2" fill="#f6f6f0"/></g><g class="cc-pod" data-px="-38.8" data-py="-16.1" transform="translate(-38.8,-16.1)"><rect x="-3.6" y="-1" width="7.2" height="7" rx="2.4" fill="#7bc86c"/><rect x="-3.6" y="-2.4" width="7.2" height="2.4" rx="1.2" fill="#f6f6f0"/></g><g class="cc-pod" data-px="-29.7" data-py="-29.7" transform="translate(-29.7,-29.7)"><rect x="-3.6" y="-1" width="7.2" height="7" rx="2.4" fill="#b47fd0"/><rect x="-3.6" y="-2.4" width="7.2" height="2.4" rx="1.2" fill="#f6f6f0"/></g><g class="cc-pod" data-px="-16.1" data-py="-38.8" transform="translate(-16.1,-38.8)"><rect x="-3.6" y="-1" width="7.2" height="7" rx="2.4" fill="#f28c34"/><rect x="-3.6" y="-2.4" width="7.2" height="2.4" rx="1.2" fill="#f6f6f0"/></g><g class="cc-pod" data-px="-0.0" data-py="-42.0" transform="translate(-0.0,-42.0)"><rect x="-3.6" y="-1" width="7.2" height="7" rx="2.4" fill="#e8574a"/><rect x="-3.6" y="-2.4" width="7.2" height="2.4" rx="1.2" fill="#f6f6f0"/></g><g class="cc-pod" data-px="16.1" data-py="-38.8" transform="translate(16.1,-38.8)"><rect x="-3.6" y="-1" width="7.2" height="7" rx="2.4" fill="#f2b134"/><rect x="-3.6" y="-2.4" width="7.2" height="2.4" rx="1.2" fill="#f6f6f0"/></g><g class="cc-pod" data-px="29.7" data-py="-29.7" transform="translate(29.7,-29.7)"><rect x="-3.6" y="-1" width="7.2" height="7" rx="2.4" fill="#4fb8d6"/><rect x="-3.6" y="-2.4" width="7.2" height="2.4" rx="1.2" fill="#f6f6f0"/></g><g class="cc-pod" data-px="38.8" data-py="-16.1" transform="translate(38.8,-16.1)"><rect x="-3.6" y="-1" width="7.2" height="7" rx="2.4" fill="#7bc86c"/><rect x="-3.6" y="-2.4" width="7.2" height="2.4" rx="1.2" fill="#f6f6f0"/></g></g><circle cx="0" cy="0" r="5" fill="#e8eef2"/><circle cx="0" cy="0" r="2" fill="#8e9daa"/><g stroke="#b9c4cc" stroke-width="3.5" fill="none"><path d="M-26,39 L0,2 L26,39"/></g></g><g><rect x="972" y="252" width="46" height="23" rx="2" fill="#f2ede0"/><polygon points="967,252 995,238 1023,252" fill="#c0392b"/><g fill="#9fc6dd"><rect x="978" y="258" width="12" height="10" rx="2"/><rect x="998" y="258" width="12" height="10" rx="2"/></g></g><g><rect x="1188" y="248" width="58" height="27" rx="2" fill="#f4f0e4"/><path d="M1183,248 A31,22 0 0 1 1251,248 Z" fill="#3f6b8f"/><g fill="#9fc6dd"><rect x="1196" y="256" width="13" height="12" rx="2"/><rect x="1216" y="256" width="13" height="12" rx="2"/></g></g><g transform="translate(1040,274)"><rect x="-1.4" y="-26" width="2.8" height="26" fill="#8e9daa"/><path d="M1.4,-26 L14,-22 L1.4,-18 Z" fill="#e8574a"/></g><g transform="translate(1150,274)"><rect x="-1.4" y="-26" width="2.8" height="26" fill="#8e9daa"/><path d="M1.4,-26 L14,-22 L1.4,-18 Z" fill="#f2b134"/></g><g transform="translate(1266,274)"><rect x="-1.4" y="-26" width="2.8" height="26" fill="#8e9daa"/><path d="M1.4,-26 L14,-22 L1.4,-18 Z" fill="#4fb8d6"/></g></g>
  </g>
  <g id="mid"/>
  <g id="ground">
    <rect x="0" y="300" width="1280" height="420" fill="url(#asphalt)"/>
    <g fill="#b9bcc2"><rect x="0" y="406" width="1280" height="34"/><rect x="0" y="556" width="1280" height="40"/></g>
    <g fill="#cbced4"><rect x="0" y="406" width="1280" height="5"/><rect x="0" y="556" width="1280" height="5"/></g>
    <g fill="#9ea2a9" opacity="0.7"><rect x="0" y="411" width="2.5" height="29"/><rect x="42" y="411" width="2.5" height="29"/><rect x="84" y="411" width="2.5" height="29"/><rect x="126" y="411" width="2.5" height="29"/><rect x="168" y="411" width="2.5" height="29"/><rect x="210" y="411" width="2.5" height="29"/><rect x="252" y="411" width="2.5" height="29"/><rect x="294" y="411" width="2.5" height="29"/><rect x="336" y="411" width="2.5" height="29"/><rect x="378" y="411" width="2.5" height="29"/><rect x="420" y="411" width="2.5" height="29"/><rect x="462" y="411" width="2.5" height="29"/><rect x="504" y="411" width="2.5" height="29"/><rect x="546" y="411" width="2.5" height="29"/><rect x="588" y="411" width="2.5" height="29"/><rect x="630" y="411" width="2.5" height="29"/><rect x="672" y="411" width="2.5" height="29"/><rect x="714" y="411" width="2.5" height="29"/><rect x="756" y="411" width="2.5" height="29"/><rect x="798" y="411" width="2.5" height="29"/><rect x="840" y="411" width="2.5" height="29"/><rect x="882" y="411" width="2.5" height="29"/><rect x="924" y="411" width="2.5" height="29"/><rect x="966" y="411" width="2.5" height="29"/><rect x="1008" y="411" width="2.5" height="29"/><rect x="1050" y="411" width="2.5" height="29"/><rect x="1092" y="411" width="2.5" height="29"/><rect x="1134" y="411" width="2.5" height="29"/><rect x="1176" y="411" width="2.5" height="29"/><rect x="1218" y="411" width="2.5" height="29"/><rect x="1260" y="411" width="2.5" height="29"/><rect x="20" y="561" width="2.5" height="35"/><rect x="62" y="561" width="2.5" height="35"/><rect x="104" y="561" width="2.5" height="35"/><rect x="146" y="561" width="2.5" height="35"/><rect x="188" y="561" width="2.5" height="35"/><rect x="230" y="561" width="2.5" height="35"/><rect x="272" y="561" width="2.5" height="35"/><rect x="314" y="561" width="2.5" height="35"/><rect x="356" y="561" width="2.5" height="35"/><rect x="398" y="561" width="2.5" height="35"/><rect x="440" y="561" width="2.5" height="35"/><rect x="482" y="561" width="2.5" height="35"/><rect x="524" y="561" width="2.5" height="35"/><rect x="566" y="561" width="2.5" height="35"/><rect x="608" y="561" width="2.5" height="35"/><rect x="650" y="561" width="2.5" height="35"/><rect x="692" y="561" width="2.5" height="35"/><rect x="734" y="561" width="2.5" height="35"/><rect x="776" y="561" width="2.5" height="35"/><rect x="818" y="561" width="2.5" height="35"/><rect x="860" y="561" width="2.5" height="35"/><rect x="902" y="561" width="2.5" height="35"/><rect x="944" y="561" width="2.5" height="35"/><rect x="986" y="561" width="2.5" height="35"/><rect x="1028" y="561" width="2.5" height="35"/><rect x="1070" y="561" width="2.5" height="35"/><rect x="1112" y="561" width="2.5" height="35"/><rect x="1154" y="561" width="2.5" height="35"/><rect x="1196" y="561" width="2.5" height="35"/><rect x="1238" y="561" width="2.5" height="35"/></g>
    <g fill="#6d7076"><rect x="0" y="440" width="1280" height="5"/><rect x="0" y="596" width="1280" height="5"/></g>
    <rect x="0" y="616" width="1280" height="46" fill="#5f8f4c"/>
    <rect x="0" y="616" width="1280" height="5" fill="#6fa059"/>
    <g fill="#e8e2c9" opacity="0.5"><rect x="0" y="380" width="26" height="4"/><rect x="60" y="380" width="26" height="4"/><rect x="120" y="380" width="26" height="4"/><rect x="180" y="380" width="26" height="4"/><rect x="240" y="380" width="26" height="4"/><rect x="300" y="380" width="26" height="4"/><rect x="360" y="380" width="26" height="4"/><rect x="420" y="380" width="26" height="4"/><rect x="480" y="380" width="26" height="4"/><rect x="540" y="380" width="26" height="4"/><rect x="600" y="380" width="26" height="4"/><rect x="660" y="380" width="26" height="4"/><rect x="720" y="380" width="26" height="4"/><rect x="780" y="380" width="26" height="4"/><rect x="840" y="380" width="26" height="4"/><rect x="900" y="380" width="26" height="4"/><rect x="960" y="380" width="26" height="4"/><rect x="1020" y="380" width="26" height="4"/><rect x="1080" y="380" width="26" height="4"/><rect x="1140" y="380" width="26" height="4"/><rect x="1200" y="380" width="26" height="4"/><rect x="1260" y="380" width="26" height="4"/></g>
  </g>
  <g id="water"/>
  <!-- scenery BEHIND the rails: the train passes in front of this -->
  <g id="scenery-back">
        <g id="el"><g><rect x="30" y="332" width="11" height="74" fill="#57606b"/><rect x="86" y="332" width="11" height="74" fill="#4b535d"/><path d="M41,338 L86,398 M86,338 L41,398" stroke="#69727d" stroke-width="3"/><rect x="26" y="398" width="79" height="8" rx="2" fill="#4b535d"/></g><g><rect x="162" y="332" width="11" height="74" fill="#57606b"/><rect x="218" y="332" width="11" height="74" fill="#4b535d"/><path d="M173,338 L218,398 M218,338 L173,398" stroke="#69727d" stroke-width="3"/><rect x="158" y="398" width="79" height="8" rx="2" fill="#4b535d"/></g><g><rect x="294" y="332" width="11" height="74" fill="#57606b"/><rect x="350" y="332" width="11" height="74" fill="#4b535d"/><path d="M305,338 L350,398 M350,338 L305,398" stroke="#69727d" stroke-width="3"/><rect x="290" y="398" width="79" height="8" rx="2" fill="#4b535d"/></g><g><rect x="426" y="332" width="11" height="74" fill="#57606b"/><rect x="482" y="332" width="11" height="74" fill="#4b535d"/><path d="M437,338 L482,398 M482,338 L437,398" stroke="#69727d" stroke-width="3"/><rect x="422" y="398" width="79" height="8" rx="2" fill="#4b535d"/></g><g><rect x="558" y="332" width="11" height="74" fill="#57606b"/><rect x="614" y="332" width="11" height="74" fill="#4b535d"/><path d="M569,338 L614,398 M614,338 L569,398" stroke="#69727d" stroke-width="3"/><rect x="554" y="398" width="79" height="8" rx="2" fill="#4b535d"/></g><g><rect x="690" y="332" width="11" height="74" fill="#57606b"/><rect x="746" y="332" width="11" height="74" fill="#4b535d"/><path d="M701,338 L746,398 M746,338 L701,398" stroke="#69727d" stroke-width="3"/><rect x="686" y="398" width="79" height="8" rx="2" fill="#4b535d"/></g><g><rect x="822" y="332" width="11" height="74" fill="#57606b"/><rect x="878" y="332" width="11" height="74" fill="#4b535d"/><path d="M833,338 L878,398 M878,338 L833,398" stroke="#69727d" stroke-width="3"/><rect x="818" y="398" width="79" height="8" rx="2" fill="#4b535d"/></g><g><rect x="954" y="332" width="11" height="74" fill="#57606b"/><rect x="1010" y="332" width="11" height="74" fill="#4b535d"/><path d="M965,338 L1010,398 M1010,338 L965,398" stroke="#69727d" stroke-width="3"/><rect x="950" y="398" width="79" height="8" rx="2" fill="#4b535d"/></g><g><rect x="1086" y="332" width="11" height="74" fill="#57606b"/><rect x="1142" y="332" width="11" height="74" fill="#4b535d"/><path d="M1097,338 L1142,398 M1142,338 L1097,398" stroke="#69727d" stroke-width="3"/><rect x="1082" y="398" width="79" height="8" rx="2" fill="#4b535d"/></g><g><rect x="1218" y="332" width="11" height="74" fill="#57606b"/><rect x="1274" y="332" width="11" height="74" fill="#4b535d"/><path d="M1229,338 L1274,398 M1274,338 L1229,398" stroke="#69727d" stroke-width="3"/><rect x="1214" y="398" width="79" height="8" rx="2" fill="#4b535d"/></g><rect x="0" y="318" width="1280" height="16" fill="#6b7480"/><rect x="0" y="312" width="1280" height="7" fill="#7d8794"/><rect x="0" y="332" width="1280" height="5" fill="#565f69"/><g fill="#8b94a0" opacity="0.6"><rect x="8" y="320" width="4" height="12"/><rect x="30" y="320" width="4" height="12"/><rect x="52" y="320" width="4" height="12"/><rect x="74" y="320" width="4" height="12"/><rect x="96" y="320" width="4" height="12"/><rect x="118" y="320" width="4" height="12"/><rect x="140" y="320" width="4" height="12"/><rect x="162" y="320" width="4" height="12"/><rect x="184" y="320" width="4" height="12"/><rect x="206" y="320" width="4" height="12"/><rect x="228" y="320" width="4" height="12"/><rect x="250" y="320" width="4" height="12"/><rect x="272" y="320" width="4" height="12"/><rect x="294" y="320" width="4" height="12"/><rect x="316" y="320" width="4" height="12"/><rect x="338" y="320" width="4" height="12"/><rect x="360" y="320" width="4" height="12"/><rect x="382" y="320" width="4" height="12"/><rect x="404" y="320" width="4" height="12"/><rect x="426" y="320" width="4" height="12"/><rect x="448" y="320" width="4" height="12"/><rect x="470" y="320" width="4" height="12"/><rect x="492" y="320" width="4" height="12"/><rect x="514" y="320" width="4" height="12"/><rect x="536" y="320" width="4" height="12"/><rect x="558" y="320" width="4" height="12"/><rect x="580" y="320" width="4" height="12"/><rect x="602" y="320" width="4" height="12"/><rect x="624" y="320" width="4" height="12"/><rect x="646" y="320" width="4" height="12"/><rect x="668" y="320" width="4" height="12"/><rect x="690" y="320" width="4" height="12"/><rect x="712" y="320" width="4" height="12"/><rect x="734" y="320" width="4" height="12"/><rect x="756" y="320" width="4" height="12"/><rect x="778" y="320" width="4" height="12"/><rect x="800" y="320" width="4" height="12"/><rect x="822" y="320" width="4" height="12"/><rect x="844" y="320" width="4" height="12"/><rect x="866" y="320" width="4" height="12"/><rect x="888" y="320" width="4" height="12"/><rect x="910" y="320" width="4" height="12"/><rect x="932" y="320" width="4" height="12"/><rect x="954" y="320" width="4" height="12"/><rect x="976" y="320" width="4" height="12"/><rect x="998" y="320" width="4" height="12"/><rect x="1020" y="320" width="4" height="12"/><rect x="1042" y="320" width="4" height="12"/><rect x="1064" y="320" width="4" height="12"/><rect x="1086" y="320" width="4" height="12"/><rect x="1108" y="320" width="4" height="12"/><rect x="1130" y="320" width="4" height="12"/><rect x="1152" y="320" width="4" height="12"/><rect x="1174" y="320" width="4" height="12"/><rect x="1196" y="320" width="4" height="12"/><rect x="1218" y="320" width="4" height="12"/><rect x="1240" y="320" width="4" height="12"/><rect x="1262" y="320" width="4" height="12"/></g><g class="cc-el-train" data-run="-210,1290,318" transform="translate(150,318)"><rect x="0" y="-38" width="196" height="38" rx="5" fill="#c9d2da"/><rect x="0" y="-38" width="196" height="9" rx="4" fill="#aab5c0"/><rect x="0" y="-18" width="196" height="5" fill="#1f6f3d"/><rect x="0" y="-13" width="196" height="4" fill="#a63a2c"/><rect x="10" y="-32" width="22" height="12" rx="2" fill="#bfe3f5"/><rect x="44" y="-32" width="22" height="12" rx="2" fill="#bfe3f5"/><rect x="78" y="-32" width="22" height="12" rx="2" fill="#bfe3f5"/><rect x="112" y="-32" width="22" height="12" rx="2" fill="#bfe3f5"/><rect x="146" y="-32" width="22" height="12" rx="2" fill="#bfe3f5"/><rect x="192" y="-34" width="8" height="28" rx="3" fill="#8d959e"/></g></g><g transform="translate(90,446) scale(0.62)"><rect x="-52" y="-104" width="104" height="104" fill="#9c5a44"/><rect x="-56" y="-112" width="112" height="10" rx="2" fill="#c8bda8"/><rect x="-38" y="-92" width="20" height="24" rx="2" fill="#cfe0ee"/><rect x="-40" y="-95" width="24" height="4" rx="1" fill="#c8bda8"/><rect x="-10" y="-92" width="20" height="24" rx="2" fill="#cfe0ee"/><rect x="-12" y="-95" width="24" height="4" rx="1" fill="#c8bda8"/><rect x="18" y="-92" width="20" height="24" rx="2" fill="#cfe0ee"/><rect x="16" y="-95" width="24" height="4" rx="1" fill="#c8bda8"/><rect x="-38" y="-58" width="20" height="24" rx="2" fill="#cfe0ee"/><rect x="-40" y="-61" width="24" height="4" rx="1" fill="#c8bda8"/><rect x="-10" y="-58" width="20" height="24" rx="2" fill="#cfe0ee"/><rect x="-12" y="-61" width="24" height="4" rx="1" fill="#c8bda8"/><rect x="18" y="-58" width="20" height="24" rx="2" fill="#cfe0ee"/><rect x="16" y="-61" width="24" height="4" rx="1" fill="#c8bda8"/><rect x="-14" y="-30" width="28" height="30" rx="2" fill="#5f4636"/><rect x="-18" y="-34" width="36" height="5" rx="2" fill="#c8bda8"/></g><g transform="translate(230,446) scale(0.62)"><rect x="-52" y="-104" width="104" height="104" fill="#8a6a52"/><rect x="-56" y="-112" width="112" height="10" rx="2" fill="#c8bda8"/><rect x="-38" y="-92" width="20" height="24" rx="2" fill="#cfe0ee"/><rect x="-40" y="-95" width="24" height="4" rx="1" fill="#c8bda8"/><rect x="-10" y="-92" width="20" height="24" rx="2" fill="#cfe0ee"/><rect x="-12" y="-95" width="24" height="4" rx="1" fill="#c8bda8"/><rect x="18" y="-92" width="20" height="24" rx="2" fill="#cfe0ee"/><rect x="16" y="-95" width="24" height="4" rx="1" fill="#c8bda8"/><rect x="-38" y="-58" width="20" height="24" rx="2" fill="#cfe0ee"/><rect x="-40" y="-61" width="24" height="4" rx="1" fill="#c8bda8"/><rect x="-10" y="-58" width="20" height="24" rx="2" fill="#cfe0ee"/><rect x="-12" y="-61" width="24" height="4" rx="1" fill="#c8bda8"/><rect x="18" y="-58" width="20" height="24" rx="2" fill="#cfe0ee"/><rect x="16" y="-61" width="24" height="4" rx="1" fill="#c8bda8"/><rect x="-14" y="-30" width="28" height="30" rx="2" fill="#5f4636"/><rect x="-18" y="-34" width="36" height="5" rx="2" fill="#c8bda8"/></g><g transform="translate(1080,446) scale(0.62)"><rect x="-52" y="-104" width="104" height="104" fill="#a8674a"/><rect x="-56" y="-112" width="112" height="10" rx="2" fill="#c8bda8"/><rect x="-38" y="-92" width="20" height="24" rx="2" fill="#cfe0ee"/><rect x="-40" y="-95" width="24" height="4" rx="1" fill="#c8bda8"/><rect x="-10" y="-92" width="20" height="24" rx="2" fill="#cfe0ee"/><rect x="-12" y="-95" width="24" height="4" rx="1" fill="#c8bda8"/><rect x="18" y="-92" width="20" height="24" rx="2" fill="#cfe0ee"/><rect x="16" y="-95" width="24" height="4" rx="1" fill="#c8bda8"/><rect x="-38" y="-58" width="20" height="24" rx="2" fill="#cfe0ee"/><rect x="-40" y="-61" width="24" height="4" rx="1" fill="#c8bda8"/><rect x="-10" y="-58" width="20" height="24" rx="2" fill="#cfe0ee"/><rect x="-12" y="-61" width="24" height="4" rx="1" fill="#c8bda8"/><rect x="18" y="-58" width="20" height="24" rx="2" fill="#cfe0ee"/><rect x="16" y="-61" width="24" height="4" rx="1" fill="#c8bda8"/><rect x="-14" y="-30" width="28" height="30" rx="2" fill="#5f4636"/><rect x="-18" y="-34" width="36" height="5" rx="2" fill="#c8bda8"/></g><g transform="translate(1216,446) scale(0.62)"><rect x="-52" y="-104" width="104" height="104" fill="#8f7460"/><rect x="-56" y="-112" width="112" height="10" rx="2" fill="#c8bda8"/><rect x="-38" y="-92" width="20" height="24" rx="2" fill="#cfe0ee"/><rect x="-40" y="-95" width="24" height="4" rx="1" fill="#c8bda8"/><rect x="-10" y="-92" width="20" height="24" rx="2" fill="#cfe0ee"/><rect x="-12" y="-95" width="24" height="4" rx="1" fill="#c8bda8"/><rect x="18" y="-92" width="20" height="24" rx="2" fill="#cfe0ee"/><rect x="16" y="-95" width="24" height="4" rx="1" fill="#c8bda8"/><rect x="-38" y="-58" width="20" height="24" rx="2" fill="#cfe0ee"/><rect x="-40" y="-61" width="24" height="4" rx="1" fill="#c8bda8"/><rect x="-10" y="-58" width="20" height="24" rx="2" fill="#cfe0ee"/><rect x="-12" y="-61" width="24" height="4" rx="1" fill="#c8bda8"/><rect x="18" y="-58" width="20" height="24" rx="2" fill="#cfe0ee"/><rect x="16" y="-61" width="24" height="4" rx="1" fill="#c8bda8"/><rect x="-14" y="-30" width="28" height="30" rx="2" fill="#5f4636"/><rect x="-18" y="-34" width="36" height="5" rx="2" fill="#c8bda8"/></g><g transform="translate(400,444)"><rect x="-3" y="-56" width="6" height="56" fill="#3a3f47"/><circle cx="0" cy="-60" r="7" fill="#ffe9a8"/></g><g transform="translate(500,444)"><rect x="-3" y="-56" width="6" height="56" fill="#3a3f47"/><circle cx="0" cy="-60" r="7" fill="#ffe9a8"/></g><g transform="translate(800,444)"><rect x="-3" y="-56" width="6" height="56" fill="#3a3f47"/><circle cx="0" cy="-60" r="7" fill="#ffe9a8"/></g><g transform="translate(900,444)"><rect x="-3" y="-56" width="6" height="56" fill="#3a3f47"/><circle cx="0" cy="-60" r="7" fill="#ffe9a8"/></g><g transform="translate(346,448) scale(0.5)"><ellipse cx="0" cy="4" rx="54" ry="8" fill="#000" opacity="0.14"/><path d="M-8,4 C -10,-30 -22,-44 -30,-56 L-14,-52 C -8,-62 -2,-70 0,-84 C 4,-70 10,-62 16,-52 L32,-58 C 22,-44 10,-30 8,4 Z" fill="#6b4a2a"/><ellipse cx="0" cy="-86" rx="66" ry="34" fill="#3f7548"/><ellipse cx="-34" cy="-72" rx="34" ry="22" fill="#4c8a56"/><ellipse cx="34" cy="-74" rx="32" ry="20" fill="#4c8a56"/><ellipse cx="4" cy="-102" rx="40" ry="22" fill="#4c8a56"/></g><g transform="translate(960,448) scale(0.48)"><ellipse cx="0" cy="4" rx="54" ry="8" fill="#000" opacity="0.14"/><path d="M-8,4 C -10,-30 -22,-44 -30,-56 L-14,-52 C -8,-62 -2,-70 0,-84 C 4,-70 10,-62 16,-52 L32,-58 C 22,-44 10,-30 8,4 Z" fill="#6b4a2a"/><ellipse cx="0" cy="-86" rx="66" ry="34" fill="#3f7548"/><ellipse cx="-34" cy="-72" rx="34" ry="22" fill="#4c8a56"/><ellipse cx="34" cy="-74" rx="32" ry="20" fill="#4c8a56"/><ellipse cx="4" cy="-102" rx="40" ry="22" fill="#4c8a56"/></g>
  </g>
  <g id="road">
    <defs><linearGradient id="roadg" x1="0" y1="0" x2="0" y2="1">
      <stop offset="0" stop-color="#6a6a6f"/><stop offset="1" stop-color="#54545a"/>
    </linearGradient></defs>
    <polygon class="cc-road" points="510,720 770,720 669,340 611,340" fill="url(#roadg)"/>
    <polygon points="510,720 528,720 626,340 611,340" fill="#e8e2c9" opacity="0.45"/>
    <polygon points="752,720 770,720 669,340 654,340" fill="#e8e2c9" opacity="0.45"/>
    <g fill="#ffe066">
      <polygon points="634,704 646,704 645,660 635,660"/><polygon points="636,626 644,626 643,590 637,590"/><polygon points="637,560 643,560 642,532 638,532"/><polygon points="638,392 642,392 641,368 639,368"/>
    </g>
  </g>
  <g id="track">
    <rect x="0" y="450" width="1280" height="66" fill="#a98c68"/>
    <rect x="0" y="450" width="1280" height="8" fill="#bb9d76"/>
    <g fill="#6b4a2a"><rect x="6" y="452" width="15" height="62"/><rect x="50" y="452" width="15" height="62"/><rect x="94" y="452" width="15" height="62"/><rect x="138" y="452" width="15" height="62"/><rect x="182" y="452" width="15" height="62"/><rect x="226" y="452" width="15" height="62"/><rect x="270" y="452" width="15" height="62"/><rect x="314" y="452" width="15" height="62"/><rect x="358" y="452" width="15" height="62"/><rect x="402" y="452" width="15" height="62"/><rect x="446" y="452" width="15" height="62"/><rect x="490" y="452" width="15" height="62"/><rect x="534" y="452" width="15" height="62"/><rect x="578" y="452" width="15" height="62"/><rect x="622" y="452" width="15" height="62"/><rect x="666" y="452" width="15" height="62"/><rect x="710" y="452" width="15" height="62"/><rect x="754" y="452" width="15" height="62"/><rect x="798" y="452" width="15" height="62"/><rect x="842" y="452" width="15" height="62"/><rect x="886" y="452" width="15" height="62"/><rect x="930" y="452" width="15" height="62"/><rect x="974" y="452" width="15" height="62"/><rect x="1018" y="452" width="15" height="62"/><rect x="1062" y="452" width="15" height="62"/><rect x="1106" y="452" width="15" height="62"/><rect x="1150" y="452" width="15" height="62"/><rect x="1194" y="452" width="15" height="62"/><rect x="1238" y="452" width="15" height="62"/></g>
    <rect x="0" y="466" width="1280" height="6" fill="#d3d7dc"/>
    <rect x="0" y="496" width="1280" height="6" fill="#d3d7dc"/>
  </g>
  <g id="gate-far">
    <g transform="translate(580,388) scale(0.82)">
      <rect x="-8" y="0" width="16" height="70" rx="4" fill="#2f3136"/>
      <g transform="translate(0,-4)" stroke="#ffffff" stroke-width="6" stroke-linecap="round">
        <line x1="-15" y1="-15" x2="15" y2="15"/><line x1="15" y1="-15" x2="-15" y2="15"/></g>
      <circle cx="-13" cy="16" r="6.5" fill="#ff2a2a"/>
      <circle cx="13" cy="16" r="6.5" fill="#7a1c1c"/>
      <g transform="translate(0,40)">
        <rect x="0" y="-5" width="76" height="10" rx="5" fill="#ffffff"/><rect x="6" y="-5" width="15" height="10" fill="#d23b34"/><rect x="34" y="-5" width="15" height="10" fill="#d23b34"/>
      </g>
    </g>
    <g transform="translate(700,388) scale(0.82)">
      <rect x="-8" y="0" width="16" height="70" rx="4" fill="#2f3136"/>
      <g transform="translate(0,-4)" stroke="#ffffff" stroke-width="6" stroke-linecap="round">
        <line x1="-15" y1="-15" x2="15" y2="15"/><line x1="15" y1="-15" x2="-15" y2="15"/></g>
      <circle cx="-13" cy="16" r="6.5" fill="#7a1c1c"/>
      <circle cx="13" cy="16" r="6.5" fill="#ff2a2a"/>
      <g transform="translate(0,40)">
        <rect x="-76" y="-5" width="76" height="10" rx="5" fill="#ffffff"/><rect x="-70" y="-5" width="15" height="10" fill="#d23b34"/><rect x="-42" y="-5" width="15" height="10" fill="#d23b34"/>
      </g>
    </g>
  </g>
  <!-- ENGINE RENDERS THE MOVING TRAIN HERE (between the two gates) -->
  <!-- foreground props: IN FRONT of the train, bases below the rails -->
  <g id="scenery-front">
    <g transform="translate(214,650)"><ellipse cx="0" cy="8" rx="62" ry="10" fill="#000" opacity="0.2"/><ellipse cx="0" cy="-26" rx="60" ry="34" fill="#aab4bd"/><ellipse cx="0" cy="-30" rx="58" ry="30" fill="#c4ced6"/><ellipse cx="-18" cy="-40" rx="26" ry="12" fill="#e6edf2" opacity="0.9"/><path d="M-58,-22 Q 0,-4 58,-22 Q 0,-12 -58,-22 Z" fill="#8e98a2" opacity="0.8"/><ellipse cx="22" cy="-18" rx="16" ry="7" fill="#7f8992" opacity="0.7"/></g><g transform="translate(1010,646)"><ellipse cx="0" cy="8" rx="54" ry="9" fill="#000" opacity="0.14"/><rect x="-48" y="-6" width="96" height="14" rx="3" fill="#5a5f66"/><g fill="#3f434a"><rect x="-42" y="-2" width="13" height="7"/><rect x="-26" y="-2" width="13" height="7"/><rect x="-10" y="-2" width="13" height="7"/><rect x="6" y="-2" width="13" height="7"/><rect x="22" y="-2" width="13" height="7"/></g><g stroke="#c9ced4" stroke-width="4" fill="none" stroke-linecap="round"><path d="M-46,-8 L-46,-42"/><path d="M46,-8 L46,-42"/><path d="M-46,-42 L46,-42"/></g><rect x="-30" y="-70" width="60" height="20" rx="4" fill="#1f4f8f"/><text x="0" y="-56" text-anchor="middle" font-family="Trebuchet MS,sans-serif" font-size="13" font-weight="bold" fill="#ffffff">SUBWAY</text></g><g transform="translate(120,690) scale(1.05)"><ellipse cx="0" cy="4" rx="54" ry="8" fill="#000" opacity="0.14"/><path d="M-8,4 C -10,-30 -22,-44 -30,-56 L-14,-52 C -8,-62 -2,-70 0,-84 C 4,-70 10,-62 16,-52 L32,-58 C 22,-44 10,-30 8,4 Z" fill="#6b4a2a"/><ellipse cx="0" cy="-86" rx="66" ry="34" fill="#3f7548"/><ellipse cx="-34" cy="-72" rx="34" ry="22" fill="#4c8a56"/><ellipse cx="34" cy="-74" rx="32" ry="20" fill="#4c8a56"/><ellipse cx="4" cy="-102" rx="40" ry="22" fill="#4c8a56"/></g><g transform="translate(1210,700) scale(1.0)"><ellipse cx="0" cy="4" rx="54" ry="8" fill="#000" opacity="0.14"/><path d="M-8,4 C -10,-30 -22,-44 -30,-56 L-14,-52 C -8,-62 -2,-70 0,-84 C 4,-70 10,-62 16,-52 L32,-58 C 22,-44 10,-30 8,4 Z" fill="#6b4a2a"/><ellipse cx="0" cy="-86" rx="66" ry="34" fill="#3f7548"/><ellipse cx="-34" cy="-72" rx="34" ry="22" fill="#4c8a56"/><ellipse cx="34" cy="-74" rx="32" ry="20" fill="#4c8a56"/><ellipse cx="4" cy="-102" rx="40" ry="22" fill="#4c8a56"/></g><g transform="translate(380,620)"><rect x="-3" y="-72" width="7" height="72" fill="#3a3f47"/><circle cx="0" cy="-78" r="9" fill="#ffe9a8"/><rect x="-9" y="-4" width="19" height="6" rx="2" fill="#3a3f47"/></g><g transform="translate(802,662)"><rect x="-3" y="-72" width="7" height="72" fill="#3a3f47"/><circle cx="0" cy="-78" r="9" fill="#ffe9a8"/><rect x="-9" y="-4" width="19" height="6" rx="2" fill="#3a3f47"/></g><g transform="translate(900,616)"><rect x="-3" y="-72" width="7" height="72" fill="#3a3f47"/><circle cx="0" cy="-78" r="9" fill="#ffe9a8"/><rect x="-9" y="-4" width="19" height="6" rx="2" fill="#3a3f47"/></g><g transform="translate(470,690)"><ellipse cx="0" cy="8" rx="22" ry="6" fill="#000" opacity="0.14"/><rect x="-9" y="-34" width="18" height="40" rx="4" fill="#c0392b"/><rect x="-15" y="-24" width="30" height="8" rx="3" fill="#c0392b"/><circle cx="0" cy="-38" r="8" fill="#d24a3b"/></g><g transform="translate(800,700)"><ellipse cx="0" cy="6" rx="46" ry="8" fill="#000" opacity="0.14"/><rect x="-44" y="-14" width="88" height="9" rx="3" fill="#7a5a3a"/><rect x="-44" y="-30" width="88" height="8" rx="3" fill="#8a6a45"/><rect x="-38" y="-6" width="8" height="18" fill="#41474f"/><rect x="30" y="-6" width="8" height="18" fill="#41474f"/></g>
  </g>
  <g id="gate-near">
    <g transform="translate(552,480) scale(1.2)">
      <rect x="-8" y="0" width="16" height="70" rx="4" fill="#2f3136"/>
      <g transform="translate(0,-4)" stroke="#ffffff" stroke-width="6" stroke-linecap="round">
        <line x1="-15" y1="-15" x2="15" y2="15"/><line x1="15" y1="-15" x2="-15" y2="15"/></g>
      <circle cx="-13" cy="16" r="6.5" fill="#ff2a2a"/>
      <circle cx="13" cy="16" r="6.5" fill="#7a1c1c"/>
      <g transform="translate(0,40)">
        <rect x="0" y="-5" width="76" height="10" rx="5" fill="#ffffff"/><rect x="6" y="-5" width="15" height="10" fill="#d23b34"/><rect x="34" y="-5" width="15" height="10" fill="#d23b34"/>
      </g>
    </g>
    <g transform="translate(728,480) scale(1.2)">
      <rect x="-8" y="0" width="16" height="70" rx="4" fill="#2f3136"/>
      <g transform="translate(0,-4)" stroke="#ffffff" stroke-width="6" stroke-linecap="round">
        <line x1="-15" y1="-15" x2="15" y2="15"/><line x1="15" y1="-15" x2="-15" y2="15"/></g>
      <circle cx="-13" cy="16" r="6.5" fill="#7a1c1c"/>
      <circle cx="13" cy="16" r="6.5" fill="#ff2a2a"/>
      <g transform="translate(0,40)">
        <rect x="-76" y="-5" width="76" height="10" rx="5" fill="#ffffff"/><rect x="-70" y="-5" width="15" height="10" fill="#d23b34"/><rect x="-42" y="-5" width="15" height="10" fill="#d23b34"/>
      </g>
    </g>
  </g>
  <g id="foreground">
    <g fill="#8a8d93" opacity="0.5"><rect x="0" y="706" width="1280" height="3"/></g>
  </g>
</svg>
