<?xml version="1.0" encoding="UTF-8"?>
<!-- Chuga Chocho — HAWAIIAN SUGAR-CANE PLANTATION TANK ENGINE
     y=0 is the RAIL LINE, +x forward, faces RIGHT.
     Wheels: <g class="cc-wheel" data-cx data-cy data-r> — spin with rotate(deg cx cy),
     deg = distance / data-r (radians -> degrees).
     Recolour: .cc-loco .cc-wagon .cc-wagon2 .cc-roof .cc-trim .cc-brass -->
<svg xmlns="http://www.w3.org/2000/svg" viewBox="-140 -205 300 225" id="cane-tank">
  <ellipse cx="7.0" cy="2" rx="138.0" ry="6" fill="#000" opacity="0.17"/><rect x="-121.0" y="-46" width="258" height="12" rx="3" fill="#2f2a26"/><rect x="-121.0" y="-50" width="258" height="5" rx="2" fill="#6b5c48"/><rect x="-73.0" y="-104" width="180" height="52" rx="14" fill="#2b3830"/><rect x="-73.0" y="-104" width="180" height="12" rx="6" fill="#35463b"/><rect x="79.0" y="-108" width="42" height="60" rx="10" fill="#1f2823"/><circle cx="101.0" cy="-78" r="19" fill="#2b3830"/><circle cx="101.0" cy="-78" r="15" fill="#1a221e"/><g class="cc-brass" fill="#d4a943"><circle cx="101.0" cy="-78" r="4.5"/><rect x="99.0" y="-96" width="4" height="36" rx="2"/></g><rect class="cc-loco" x="-79.0" y="-126" width="158" height="46" rx="12" fill="#2f6b45"/><rect x="-79.0" y="-126" width="158" height="12" rx="6" fill="#3a7f53"/><g class="cc-brass" fill="#d4a943"><rect x="-75.0" y="-92" width="150" height="3"/><rect x="-75.0" y="-120" width="150" height="2.5"/></g><rect x="92.0" y="-134" width="12" height="30" fill="#1f2823"/><path d="M92.0,-132 C 69.0,-152 67.0,-176 83.0,-186 L113.0,-186 C 129.0,-176 127.0,-152 104.0,-132 Z" fill="#1f2823"/><path d="M92.0,-132 C 69.0,-152 67.0,-176 83.0,-186 L92.0,-186 C 79.0,-174 81.0,-152 98.0,-132 Z" fill="#2b3830"/><rect x="80.0" y="-192" width="36" height="8" rx="3" fill="#2b3830"/><rect class="cc-brass" x="80.0" y="-196" width="36" height="5" rx="2" fill="#d4a943"/><path d="M-29.0,-126 C -29.0,-146 3.0,-146 3.0,-126 Z" fill="#2b3830"/><rect class="cc-brass" x="-25.0" y="-150" width="24" height="7" rx="3" fill="#d4a943"/><g class="cc-brass" fill="#d4a943"><rect x="61.0" y="-146" width="7" height="20" rx="3"/><path d="M15.0,-126 L31.0,-126 L27.0,-142 L19.0,-142 Z"/></g><g class="cc-brass" fill="#d4a943"><rect x="15.0" y="-152" width="4" height="14" rx="2"/><rect x="31.0" y="-152" width="4" height="14" rx="2"/><rect x="13.0" y="-155" width="24" height="4" rx="2"/><path d="M17.0,-138 C 17.0,-152 33.0,-152 33.0,-138 Z"/><rect x="15.0" y="-139" width="20" height="4" rx="2"/></g><rect class="cc-loco" x="-121.0" y="-140" width="62" height="92" rx="5" fill="#2f6b45"/><rect x="-121.0" y="-140" width="62" height="12" rx="5" fill="#3a7f53"/><rect x="-111.0" y="-128" width="24" height="28" rx="3" fill="#dff0f6"/><rect x="-111.0" y="-128" width="24" height="11" rx="3" fill="#eef8fc"/><rect x="-121.0" y="-96" width="62" height="30" fill="#1f2823" opacity="0.35"/><rect class="cc-roof" x="-131.0" y="-152" width="88" height="14" rx="5" fill="#8f3b32"/><rect class="cc-roof" x="-131.0" y="-152" width="88" height="5" rx="3" fill="#a34a3f"/><rect x="111.0" y="-124" width="22" height="20" rx="4" fill="#2b3830"/><circle cx="122.0" cy="-114" r="7" fill="#fff3c4"/><rect x="123.0" y="-50" width="16" height="14" rx="3" fill="#4f4438"/><path d="M137.0,-48 L159.0,-14 L127.0,-14 L127.0,-48 Z" fill="#6b5c48"/><path d="M137.0,-48 L159.0,-14 L151.0,-14 L131.0,-48 Z" fill="#8d7a5f"/><g stroke="#4f4438" stroke-width="2.2"><line x1="135.0" y1="-40" x2="135.0" y2="-16"/><line x1="143.0" y1="-30" x2="143.0" y2="-16"/><line x1="151.0" y1="-22" x2="151.0" y2="-16"/></g><g class="cc-wheel" data-cx="-29.0" data-cy="-22" data-r="22"><circle cx="-29.0" cy="-22" r="22" fill="#1b1f25"/><circle cx="-29.0" cy="-22" r="18.5" fill="#2b313a"/><g stroke="#454d57" stroke-width="2.4" stroke-linecap="round"><line x1="-45.0" y1="-22.0" x2="-13.0" y2="-22.0"/><line x1="-37.0" y1="-35.9" x2="-21.0" y2="-8.1"/><line x1="-21.0" y1="-35.9" x2="-37.0" y2="-8.1"/></g><circle cx="-29.0" cy="-22" r="5.3" fill="#8d949d"/><circle cx="-16.9" cy="-22" r="3.3" fill="#c9d0d8"/></g><g class="cc-wheel" data-cx="27.0" data-cy="-22" data-r="22"><circle cx="27.0" cy="-22" r="22" fill="#1b1f25"/><circle cx="27.0" cy="-22" r="18.5" fill="#2b313a"/><g stroke="#454d57" stroke-width="2.4" stroke-linecap="round"><line x1="11.0" y1="-22.0" x2="43.0" y2="-22.0"/><line x1="19.0" y1="-35.9" x2="35.0" y2="-8.1"/><line x1="35.0" y1="-35.9" x2="19.0" y2="-8.1"/></g><circle cx="27.0" cy="-22" r="5.3" fill="#8d949d"/><circle cx="39.1" cy="-22" r="3.3" fill="#c9d0d8"/></g><g class="cc-wheel" data-cx="-91.0" data-cy="-13" data-r="13"><circle cx="-91.0" cy="-13" r="13" fill="#1b1f25"/><circle cx="-91.0" cy="-13" r="9.5" fill="#2b313a"/><g stroke="#454d57" stroke-width="1.6" stroke-linecap="round"><line x1="-98.0" y1="-13.0" x2="-84.0" y2="-13.0"/><line x1="-94.5" y1="-19.1" x2="-87.5" y2="-6.9"/><line x1="-87.5" y1="-19.1" x2="-94.5" y2="-6.9"/></g><circle cx="-91.0" cy="-13" r="3.1" fill="#8d949d"/><circle cx="-83.8" cy="-13" r="2.2" fill="#c9d0d8"/></g><rect x="-53.0" y="-30" width="104" height="7" rx="3" fill="#2f343c"/><rect x="-139.0" y="-49" width="12.0" height="6" fill="#2a2e35"/><rect x="-138.4" y="-52" width="6" height="12" rx="2" fill="#3a4049"/>
</svg>
