<?xml version="1.0" encoding="UTF-8"?>
<!-- Chuga Chocho — COMMUTER EMU (Chicago CTA / New York subway style)
     y=0 is the RAIL LINE, +x forward, faces RIGHT.
     Wheels: <g class="cc-wheel" data-cx data-cy data-r> — spin with rotate(deg cx cy),
     deg = distance / data-r (radians -> degrees).
     Recolour: .cc-loco .cc-wagon .cc-wagon2 .cc-roof .cc-trim .cc-brass -->
<svg xmlns="http://www.w3.org/2000/svg" viewBox="-225 -165 460 180" id="commuter">
  <ellipse cx="2.5" cy="2" rx="202.5" ry="6" fill="#000" opacity="0.17"/><path class="cc-loco" d="M-196,-124 L150,-124 C 178,-124 196,-110 198,-88 L198,-46 L-196,-46 Z" fill="#ccd3da"/><g fill="#9aa3ad" opacity="0.55"><rect x="-192" y="-70" width="380" height="2.5"/><rect x="-192" y="-64" width="380" height="2.5"/><rect x="-192" y="-58" width="380" height="2.5"/><rect x="-192" y="-52" width="380" height="2.5"/></g><g fill="#9aa3ad" opacity="0.45"><rect x="-192" y="-122" width="380" height="2.5"/><rect x="-192" y="-116" width="380" height="2.5"/></g><rect class="cc-trim" x="-196" y="-78" width="394" height="7" fill="#0b56a4"/><rect x="-196" y="-71" width="394" height="4" fill="#c0392b"/><rect x="-178.0" y="-114" width="42.5" height="30" rx="4" fill="#bfe3f5"/><rect x="-178.0" y="-114" width="42.5" height="11.4" rx="4" fill="#dff2fc"/><rect x="-123.5" y="-114" width="42.5" height="30" rx="4" fill="#bfe3f5"/><rect x="-123.5" y="-114" width="42.5" height="11.4" rx="4" fill="#dff2fc"/><rect x="-69.0" y="-114" width="42.5" height="30" rx="4" fill="#bfe3f5"/><rect x="-69.0" y="-114" width="42.5" height="11.4" rx="4" fill="#dff2fc"/><rect x="-14.5" y="-114" width="42.5" height="30" rx="4" fill="#bfe3f5"/><rect x="-14.5" y="-114" width="42.5" height="11.4" rx="4" fill="#dff2fc"/><rect x="103.0" y="-114" width="38.0" height="30" rx="4" fill="#bfe3f5"/><rect x="103.0" y="-114" width="38.0" height="11.4" rx="4" fill="#dff2fc"/><rect x="48" y="-120" width="46" height="74" rx="3" fill="#7f8892"/><rect x="52" y="-114" width="17" height="30" rx="2" fill="#bfe3f5"/><rect x="73" y="-114" width="17" height="30" rx="2" fill="#bfe3f5"/><rect x="70" y="-120" width="2" height="74" fill="#5b636d"/><path d="M156,-116 C 178,-116 189,-104 191,-86 L156,-86 Z" fill="#bfe3f5"/><path d="M156,-116 C 174,-116 184,-109 188,-101 L156,-101 Z" fill="#dff2fc"/><g fill="#fff3c4"><circle cx="192" cy="-60" r="5.5"/></g><g class="cc-trim" fill="#c0392b"><circle cx="176" cy="-60" r="4"/></g><rect class="cc-roof" x="-196" y="-134" width="352" height="12" rx="5" fill="#aeb6bf"/><g fill="#8d959e"><rect x="-150" y="-146" width="60" height="14" rx="5"/><rect x="-20" y="-146" width="60" height="14" rx="5"/></g><rect x="-108" y="-16" width="26" height="5" rx="2" fill="#c0392b"/><rect x="-190" y="-46" width="380" height="10" rx="2" fill="#2f343c"/><rect x="-176.0" y="-40.0" width="92.0" height="24.0" rx="4" fill="#343b44"/><rect x="-170.0" y="-36.0" width="80.0" height="4" fill="#3a4049"/><g class="cc-wheel" data-cx="-152.0" data-cy="-16" data-r="16"><circle cx="-152.0" cy="-16" r="16" fill="#1b1f25"/><circle cx="-152.0" cy="-16" r="12.5" fill="#2b313a"/><g stroke="#454d57" stroke-width="1.8" stroke-linecap="round"><line x1="-162.0" y1="-16.0" x2="-142.0" y2="-16.0"/><line x1="-157.0" y1="-24.7" x2="-147.0" y2="-7.3"/><line x1="-147.0" y1="-24.7" x2="-157.0" y2="-7.3"/></g><circle cx="-152.0" cy="-16" r="3.8" fill="#8d949d"/><circle cx="-143.2" cy="-16" r="2.4" fill="#c9d0d8"/></g><g class="cc-wheel" data-cx="-108.0" data-cy="-16" data-r="16"><circle cx="-108.0" cy="-16" r="16" fill="#1b1f25"/><circle cx="-108.0" cy="-16" r="12.5" fill="#2b313a"/><g stroke="#454d57" stroke-width="1.8" stroke-linecap="round"><line x1="-118.0" y1="-16.0" x2="-98.0" y2="-16.0"/><line x1="-113.0" y1="-24.7" x2="-103.0" y2="-7.3"/><line x1="-103.0" y1="-24.7" x2="-113.0" y2="-7.3"/></g><circle cx="-108.0" cy="-16" r="3.8" fill="#8d949d"/><circle cx="-99.2" cy="-16" r="2.4" fill="#c9d0d8"/></g><rect x="64.0" y="-40.0" width="92.0" height="24.0" rx="4" fill="#343b44"/><rect x="70.0" y="-36.0" width="80.0" height="4" fill="#3a4049"/><g class="cc-wheel" data-cx="88.0" data-cy="-16" data-r="16"><circle cx="88.0" cy="-16" r="16" fill="#1b1f25"/><circle cx="88.0" cy="-16" r="12.5" fill="#2b313a"/><g stroke="#454d57" stroke-width="1.8" stroke-linecap="round"><line x1="78.0" y1="-16.0" x2="98.0" y2="-16.0"/><line x1="83.0" y1="-24.7" x2="93.0" y2="-7.3"/><line x1="93.0" y1="-24.7" x2="83.0" y2="-7.3"/></g><circle cx="88.0" cy="-16" r="3.8" fill="#8d949d"/><circle cx="96.8" cy="-16" r="2.4" fill="#c9d0d8"/></g><g class="cc-wheel" data-cx="132.0" data-cy="-16" data-r="16"><circle cx="132.0" cy="-16" r="16" fill="#1b1f25"/><circle cx="132.0" cy="-16" r="12.5" fill="#2b313a"/><g stroke="#454d57" stroke-width="1.8" stroke-linecap="round"><line x1="122.0" y1="-16.0" x2="142.0" y2="-16.0"/><line x1="127.0" y1="-24.7" x2="137.0" y2="-7.3"/><line x1="137.0" y1="-24.7" x2="127.0" y2="-7.3"/></g><circle cx="132.0" cy="-16" r="3.8" fill="#8d949d"/><circle cx="140.8" cy="-16" r="2.4" fill="#c9d0d8"/></g><rect x="-212.0" y="-49" width="12.0" height="6" fill="#2a2e35"/><rect x="-211.4" y="-52" width="6" height="12" rx="2" fill="#3a4049"/>
</svg>
