<?xml version="1.0" encoding="UTF-8"?>
<!-- Chuga Chocho — HIGH-SPEED ELECTRIC power car (European style, with pantograph)
     y=0 is the RAIL LINE, +x forward, faces RIGHT.
     Wheels: <g class="cc-wheel" data-cx data-cy data-r> — spin with rotate(deg cx cy),
     deg = distance / data-r (radians -> degrees).
     Recolour: .cc-loco .cc-wagon .cc-wagon2 .cc-roof .cc-trim .cc-brass -->
<svg xmlns="http://www.w3.org/2000/svg" viewBox="-245 -205 500 220" id="electric-hs">
  <ellipse cx="5.0" cy="2" rx="225.0" ry="6" fill="#000" opacity="0.17"/><path class="cc-loco" d="M-216,-118 L120,-118 C 168,-114 206,-92 226,-58 L228,-44 L-216,-44 Z" fill="#eef2f6"/><path d="M-206,-110 L118,-110 C 156,-106 186,-90 202,-66 L-206,-66 Z" fill="#2b3340"/><path d="M-206,-110 L118,-110 C 150,-107 176,-96 190,-80 L-206,-80 Z" fill="#3b475a"/><rect x="-182.0" y="-104" width="34.4" height="26" rx="4" fill="#bfe3f5"/><rect x="-182.0" y="-104" width="34.4" height="9.9" rx="4" fill="#dff2fc"/><rect x="-133.6" y="-104" width="34.4" height="26" rx="4" fill="#bfe3f5"/><rect x="-133.6" y="-104" width="34.4" height="9.9" rx="4" fill="#dff2fc"/><rect x="-85.2" y="-104" width="34.4" height="26" rx="4" fill="#bfe3f5"/><rect x="-85.2" y="-104" width="34.4" height="9.9" rx="4" fill="#dff2fc"/><rect x="-36.8" y="-104" width="34.4" height="26" rx="4" fill="#bfe3f5"/><rect x="-36.8" y="-104" width="34.4" height="9.9" rx="4" fill="#dff2fc"/><rect x="11.6" y="-104" width="34.4" height="26" rx="4" fill="#bfe3f5"/><rect x="11.6" y="-104" width="34.4" height="9.9" rx="4" fill="#dff2fc"/><path d="M132,-108 C 164,-103 188,-88 200,-70 L156,-70 L138,-108 Z" fill="#cfe9f8"/><path class="cc-trim" d="M-216,-60 L196,-60 C 210,-54 220,-50 226,-46 L228,-44 L-216,-44 Z" fill="#c0392b"/><path class="cc-trim" d="M120,-118 C 168,-114 206,-92 226,-58 L206,-58 C 190,-88 160,-106 120,-110 Z" fill="#c0392b"/><rect class="cc-roof" x="-216" y="-126" width="336" height="10" rx="5" fill="#c3cbd4"/><g fill="#5b636d"><rect x="-150" y="-134" width="10" height="9" rx="2"/><rect x="-60" y="-134" width="10" height="9" rx="2"/></g><g id="pantograph" stroke="#5b636d" stroke-width="5" fill="none" stroke-linecap="round"><path d="M-120,-130 L-84,-160"/><path d="M-84,-160 L-134,-186"/></g><rect x="-158" y="-192" width="70" height="7" rx="3" fill="#7b838d"/><rect x="-138" y="-134" width="34" height="7" rx="3" fill="#5b636d"/><rect class="cc-loco" x="-200" y="-46" width="140" height="18" rx="6" fill="#dde4ea"/><rect class="cc-loco" x="10" y="-46" width="140" height="18" rx="6" fill="#dde4ea"/><g fill="#fff3c4"><circle cx="206" cy="-72" r="6"/><circle cx="214" cy="-58" r="5"/></g><rect x="-187.0" y="-40.0" width="94.0" height="24.0" rx="4" fill="#343b44"/><rect x="-181.0" y="-36.0" width="82.0" height="4" fill="#3a4049"/><g class="cc-wheel" data-cx="-163.0" data-cy="-16" data-r="16"><circle cx="-163.0" cy="-16" r="16" fill="#1b1f25"/><circle cx="-163.0" cy="-16" r="12.5" fill="#2b313a"/><g stroke="#454d57" stroke-width="1.8" stroke-linecap="round"><line x1="-173.0" y1="-16.0" x2="-153.0" y2="-16.0"/><line x1="-168.0" y1="-24.7" x2="-158.0" y2="-7.3"/><line x1="-158.0" y1="-24.7" x2="-168.0" y2="-7.3"/></g><circle cx="-163.0" cy="-16" r="3.8" fill="#8d949d"/><circle cx="-154.2" cy="-16" r="2.4" fill="#c9d0d8"/></g><g class="cc-wheel" data-cx="-117.0" data-cy="-16" data-r="16"><circle cx="-117.0" cy="-16" r="16" fill="#1b1f25"/><circle cx="-117.0" cy="-16" r="12.5" fill="#2b313a"/><g stroke="#454d57" stroke-width="1.8" stroke-linecap="round"><line x1="-127.0" y1="-16.0" x2="-107.0" y2="-16.0"/><line x1="-122.0" y1="-24.7" x2="-112.0" y2="-7.3"/><line x1="-112.0" y1="-24.7" x2="-122.0" y2="-7.3"/></g><circle cx="-117.0" cy="-16" r="3.8" fill="#8d949d"/><circle cx="-108.2" cy="-16" r="2.4" fill="#c9d0d8"/></g><rect x="23.0" y="-40.0" width="94.0" height="24.0" rx="4" fill="#343b44"/><rect x="29.0" y="-36.0" width="82.0" height="4" fill="#3a4049"/><g class="cc-wheel" data-cx="47.0" data-cy="-16" data-r="16"><circle cx="47.0" cy="-16" r="16" fill="#1b1f25"/><circle cx="47.0" cy="-16" r="12.5" fill="#2b313a"/><g stroke="#454d57" stroke-width="1.8" stroke-linecap="round"><line x1="37.0" y1="-16.0" x2="57.0" y2="-16.0"/><line x1="42.0" y1="-24.7" x2="52.0" y2="-7.3"/><line x1="52.0" y1="-24.7" x2="42.0" y2="-7.3"/></g><circle cx="47.0" cy="-16" r="3.8" fill="#8d949d"/><circle cx="55.8" cy="-16" r="2.4" fill="#c9d0d8"/></g><g class="cc-wheel" data-cx="93.0" data-cy="-16" data-r="16"><circle cx="93.0" cy="-16" r="16" fill="#1b1f25"/><circle cx="93.0" cy="-16" r="12.5" fill="#2b313a"/><g stroke="#454d57" stroke-width="1.8" stroke-linecap="round"><line x1="83.0" y1="-16.0" x2="103.0" y2="-16.0"/><line x1="88.0" y1="-24.7" x2="98.0" y2="-7.3"/><line x1="98.0" y1="-24.7" x2="88.0" y2="-7.3"/></g><circle cx="93.0" cy="-16" r="3.8" fill="#8d949d"/><circle cx="101.8" cy="-16" r="2.4" fill="#c9d0d8"/></g><rect x="-232.0" y="-49" width="12.0" height="6" fill="#2a2e35"/><rect x="-231.4" y="-52" width="6" height="12" rx="2" fill="#3a4049"/>
</svg>
