<?xml version="1.0" encoding="UTF-8"?>
<!-- Chuga Chocho — AUTO-RACK, open bi-level, carrying eight cars
     y=0 is the RAIL LINE, +x forward, faces RIGHT.
     Wheels: <g class="cc-wheel" data-cx data-cy data-r> — spin with rotate(deg cx cy),
     deg = distance / data-r (radians -> degrees).
     Recolour: .cc-loco .cc-wagon .cc-wagon2 .cc-roof .cc-trim .cc-brass -->
<svg xmlns="http://www.w3.org/2000/svg" viewBox="-170 -160 340 175" id="wagon-autorack">
  <ellipse cx="0.0" cy="2" rx="145.0" ry="6" fill="#000" opacity="0.17"/><rect class="cc-wagon2" x="-139.0" y="-104" width="278" height="7" fill="#8f8a80"/><g transform="translate(-101.0,-104)"><rect x="-21" y="-15" width="42" height="11" rx="4" fill="#c9382e"/><rect x="-14" y="-22" width="27" height="9" rx="4" fill="#c9382e"/><rect x="-11" y="-20" width="21" height="5" rx="2" fill="#cfe4f2"/><circle cx="-12" cy="-3" r="4" fill="#23262b"/><circle cx="12" cy="-3" r="4" fill="#23262b"/></g><g transform="translate(-33.0,-104)"><rect x="-21" y="-15" width="42" height="11" rx="4" fill="#2f6f9e"/><rect x="-14" y="-22" width="27" height="9" rx="4" fill="#2f6f9e"/><rect x="-11" y="-20" width="21" height="5" rx="2" fill="#cfe4f2"/><circle cx="-12" cy="-3" r="4" fill="#23262b"/><circle cx="12" cy="-3" r="4" fill="#23262b"/></g><g transform="translate(35.0,-104)"><rect x="-21" y="-15" width="42" height="11" rx="4" fill="#e8b02a"/><rect x="-14" y="-22" width="27" height="9" rx="4" fill="#e8b02a"/><rect x="-11" y="-20" width="21" height="5" rx="2" fill="#cfe4f2"/><circle cx="-12" cy="-3" r="4" fill="#23262b"/><circle cx="12" cy="-3" r="4" fill="#23262b"/></g><g transform="translate(103.0,-104)"><rect x="-21" y="-15" width="42" height="11" rx="4" fill="#4f8f5a"/><rect x="-14" y="-22" width="27" height="9" rx="4" fill="#4f8f5a"/><rect x="-11" y="-20" width="21" height="5" rx="2" fill="#cfe4f2"/><circle cx="-12" cy="-3" r="4" fill="#23262b"/><circle cx="12" cy="-3" r="4" fill="#23262b"/></g><rect class="cc-wagon2" x="-139.0" y="-52" width="278" height="7" fill="#8f8a80"/><g transform="translate(-101.0,-52)"><rect x="-21" y="-15" width="42" height="11" rx="4" fill="#4f8f5a"/><rect x="-14" y="-22" width="27" height="9" rx="4" fill="#4f8f5a"/><rect x="-11" y="-20" width="21" height="5" rx="2" fill="#cfe4f2"/><circle cx="-12" cy="-3" r="4" fill="#23262b"/><circle cx="12" cy="-3" r="4" fill="#23262b"/></g><g transform="translate(-33.0,-52)"><rect x="-21" y="-15" width="42" height="11" rx="4" fill="#e6e2d8"/><rect x="-14" y="-22" width="27" height="9" rx="4" fill="#e6e2d8"/><rect x="-11" y="-20" width="21" height="5" rx="2" fill="#cfe4f2"/><circle cx="-12" cy="-3" r="4" fill="#23262b"/><circle cx="12" cy="-3" r="4" fill="#23262b"/></g><g transform="translate(35.0,-52)"><rect x="-21" y="-15" width="42" height="11" rx="4" fill="#7a4f9e"/><rect x="-14" y="-22" width="27" height="9" rx="4" fill="#7a4f9e"/><rect x="-11" y="-20" width="21" height="5" rx="2" fill="#cfe4f2"/><circle cx="-12" cy="-3" r="4" fill="#23262b"/><circle cx="12" cy="-3" r="4" fill="#23262b"/></g><g transform="translate(103.0,-52)"><rect x="-21" y="-15" width="42" height="11" rx="4" fill="#c9382e"/><rect x="-14" y="-22" width="27" height="9" rx="4" fill="#c9382e"/><rect x="-11" y="-20" width="21" height="5" rx="2" fill="#cfe4f2"/><circle cx="-12" cy="-3" r="4" fill="#23262b"/><circle cx="12" cy="-3" r="4" fill="#23262b"/></g><rect class="cc-wagon" x="-145.0" y="-134" width="290" height="9" rx="3" fill="#c9a83a"/><rect class="cc-wagon" x="-145" y="-134" width="7" height="89" fill="#c9a83a"/><rect class="cc-wagon" x="138" y="-134" width="7" height="89" fill="#c9a83a"/><g class="cc-trim" stroke="#c9a83a" stroke-width="3.2" fill="none"><path d="M-81,-45 v-89"/><path d="M-41,-45 v-89"/><path d="M-1,-45 v-89"/><path d="M39,-45 v-89"/><path d="M79,-45 v-89"/><path d="M119,-45 v-89"/></g><rect class="cc-wagon" x="-145.0" y="-52" width="290" height="8" rx="2" fill="#7d4a35"/><rect x="-137" y="-44" width="274" height="10" rx="2" fill="#2f343c"/><rect x="-114" y="-37" width="54" height="9" rx="3" fill="#262b33"/><rect x="60" y="-37" width="54" height="9" rx="3" fill="#262b33"/><rect x="-132.0" y="-40.0" width="90.0" height="24.0" rx="4" fill="#343b44"/><rect x="-126.0" y="-36.0" width="78.0" height="4" fill="#3a4049"/><g class="cc-wheel" data-cx="-108.0" data-cy="-16" data-r="16"><circle cx="-108.0" cy="-16" r="16" fill="#1b1f25"/><circle cx="-108.0" cy="-16" r="12.5" fill="#2b313a"/><g stroke="#454d57" stroke-width="1.8" stroke-linecap="round"><line x1="-118.0" y1="-16.0" x2="-98.0" y2="-16.0"/><line x1="-113.0" y1="-24.7" x2="-103.0" y2="-7.3"/><line x1="-103.0" y1="-24.7" x2="-113.0" y2="-7.3"/></g><circle cx="-108.0" cy="-16" r="3.8" fill="#8d949d"/><circle cx="-99.2" cy="-16" r="2.4" fill="#c9d0d8"/></g><g class="cc-wheel" data-cx="-66.0" data-cy="-16" data-r="16"><circle cx="-66.0" cy="-16" r="16" fill="#1b1f25"/><circle cx="-66.0" cy="-16" r="12.5" fill="#2b313a"/><g stroke="#454d57" stroke-width="1.8" stroke-linecap="round"><line x1="-76.0" y1="-16.0" x2="-56.0" y2="-16.0"/><line x1="-71.0" y1="-24.7" x2="-61.0" y2="-7.3"/><line x1="-61.0" y1="-24.7" x2="-71.0" y2="-7.3"/></g><circle cx="-66.0" cy="-16" r="3.8" fill="#8d949d"/><circle cx="-57.2" cy="-16" r="2.4" fill="#c9d0d8"/></g><rect x="42.0" y="-40.0" width="90.0" height="24.0" rx="4" fill="#343b44"/><rect x="48.0" y="-36.0" width="78.0" height="4" fill="#3a4049"/><g class="cc-wheel" data-cx="66.0" data-cy="-16" data-r="16"><circle cx="66.0" cy="-16" r="16" fill="#1b1f25"/><circle cx="66.0" cy="-16" r="12.5" fill="#2b313a"/><g stroke="#454d57" stroke-width="1.8" stroke-linecap="round"><line x1="56.0" y1="-16.0" x2="76.0" y2="-16.0"/><line x1="61.0" y1="-24.7" x2="71.0" y2="-7.3"/><line x1="71.0" y1="-24.7" x2="61.0" y2="-7.3"/></g><circle cx="66.0" cy="-16" r="3.8" fill="#8d949d"/><circle cx="74.8" cy="-16" r="2.4" fill="#c9d0d8"/></g><g class="cc-wheel" data-cx="108.0" data-cy="-16" data-r="16"><circle cx="108.0" cy="-16" r="16" fill="#1b1f25"/><circle cx="108.0" cy="-16" r="12.5" fill="#2b313a"/><g stroke="#454d57" stroke-width="1.8" stroke-linecap="round"><line x1="98.0" y1="-16.0" x2="118.0" y2="-16.0"/><line x1="103.0" y1="-24.7" x2="113.0" y2="-7.3"/><line x1="113.0" y1="-24.7" x2="103.0" y2="-7.3"/></g><circle cx="108.0" cy="-16" r="3.8" fill="#8d949d"/><circle cx="116.8" cy="-16" r="2.4" fill="#c9d0d8"/></g><rect x="-157.0" y="-49" width="12.0" height="6" fill="#2a2e35"/><rect x="-156.4" y="-52" width="6" height="12" rx="2" fill="#3a4049"/><rect x="145.0" y="-49" width="12.0" height="6" fill="#2a2e35"/><rect x="150.4" y="-52" width="6" height="12" rx="2" fill="#3a4049"/>
</svg>
