<?xml version="1.0" encoding="UTF-8"?>
<!-- Chuga Chocho — BOXCAR with sliding door
     y=0 is the RAIL LINE, +x forward, faces RIGHT.
     Wheels: <g class="cc-wheel" data-cx data-cy data-r> — spin with rotate(deg cx cy),
     deg = distance / data-r (radians -> degrees).
     Recolour: .cc-loco .cc-wagon .cc-wagon2 .cc-roof .cc-trim .cc-brass -->
<svg xmlns="http://www.w3.org/2000/svg" viewBox="-150 -155 300 170" id="wagon-boxcar">
  <ellipse cx="0.0" cy="2" rx="125.0" ry="6" fill="#000" opacity="0.17"/><rect class="cc-wagon" x="-117.0" y="-118" width="234" height="74" rx="4" fill="#8a4a2f"/><rect x="-93.0" y="-116" width="3" height="70" fill="#000" opacity="0.14"/><rect x="-75.0" y="-116" width="3" height="70" fill="#000" opacity="0.14"/><rect x="-57.0" y="-116" width="3" height="70" fill="#000" opacity="0.14"/><rect x="-39.0" y="-116" width="3" height="70" fill="#000" opacity="0.14"/><rect x="-21.0" y="-116" width="3" height="70" fill="#000" opacity="0.14"/><rect x="-3.0" y="-116" width="3" height="70" fill="#000" opacity="0.14"/><rect x="15.0" y="-116" width="3" height="70" fill="#000" opacity="0.14"/><rect x="33.0" y="-116" width="3" height="70" fill="#000" opacity="0.14"/><rect x="51.0" y="-116" width="3" height="70" fill="#000" opacity="0.14"/><rect x="69.0" y="-116" width="3" height="70" fill="#000" opacity="0.14"/><rect x="87.0" y="-116" width="3" height="70" fill="#000" opacity="0.14"/><rect x="105.0" y="-116" width="3" height="70" fill="#000" opacity="0.14"/><rect class="cc-roof" x="-123.0" y="-128" width="246" height="12" rx="5" fill="#6b737d"/><rect x="-38" y="-114" width="76" height="66" rx="2" fill="#a35a38"/><rect x="-38" y="-114" width="76" height="6" fill="#5f3520"/><rect x="-4" y="-110" width="5" height="58" fill="#5f3520"/><rect x="-42" y="-52" width="84" height="5" fill="#4a2a19"/><rect x="-108" y="-102" width="62" height="22" rx="2" fill="#f2ece0" opacity="0.9"/><text x="-77" y="-86" text-anchor="middle" font-family="Trebuchet MS,sans-serif" font-size="11" fill="#5f3520">CC 42</text><g stroke="#d8cfc2" stroke-width="2.5"><line x1="-107.0" y1="-116" x2="-107.0" y2="-52"/><line x1="-95.0" y1="-116" x2="-95.0" y2="-52"/><line x1="-95.0" y1="-104" x2="-107.0" y2="-104"/><line x1="-95.0" y1="-88" x2="-107.0" y2="-88"/><line x1="-95.0" y1="-72" x2="-107.0" y2="-72"/><line x1="-95.0" y1="-58" x2="-107.0" y2="-58"/></g><g stroke="#d8cfc2" stroke-width="2.5"><line x1="107.0" y1="-116" x2="107.0" y2="-52"/><line x1="95.0" y1="-116" x2="95.0" y2="-52"/><line x1="95.0" y1="-104" x2="107.0" y2="-104"/><line x1="95.0" y1="-88" x2="107.0" y2="-88"/><line x1="95.0" y1="-72" x2="107.0" y2="-72"/><line x1="95.0" y1="-58" x2="107.0" y2="-58"/></g><rect x="-117" y="-44" width="234" height="10" rx="2" fill="#2f343c"/><rect x="-100" y="-37" width="54" height="9" rx="3" fill="#262b33"/><rect x="46" y="-37" width="54" height="9" rx="3" fill="#262b33"/><rect x="-118.0" y="-40.0" width="90.0" height="24.0" rx="4" fill="#343b44"/><rect x="-112.0" y="-36.0" width="78.0" height="4" fill="#3a4049"/><g class="cc-wheel" data-cx="-94.0" data-cy="-16" data-r="16"><circle cx="-94.0" cy="-16" r="16" fill="#1b1f25"/><circle cx="-94.0" cy="-16" r="12.5" fill="#2b313a"/><g stroke="#454d57" stroke-width="1.8" stroke-linecap="round"><line x1="-104.0" y1="-16.0" x2="-84.0" y2="-16.0"/><line x1="-99.0" y1="-24.7" x2="-89.0" y2="-7.3"/><line x1="-89.0" y1="-24.7" x2="-99.0" y2="-7.3"/></g><circle cx="-94.0" cy="-16" r="3.8" fill="#8d949d"/><circle cx="-85.2" cy="-16" r="2.4" fill="#c9d0d8"/></g><g class="cc-wheel" data-cx="-52.0" data-cy="-16" data-r="16"><circle cx="-52.0" cy="-16" r="16" fill="#1b1f25"/><circle cx="-52.0" cy="-16" r="12.5" fill="#2b313a"/><g stroke="#454d57" stroke-width="1.8" stroke-linecap="round"><line x1="-62.0" y1="-16.0" x2="-42.0" y2="-16.0"/><line x1="-57.0" y1="-24.7" x2="-47.0" y2="-7.3"/><line x1="-47.0" y1="-24.7" x2="-57.0" y2="-7.3"/></g><circle cx="-52.0" cy="-16" r="3.8" fill="#8d949d"/><circle cx="-43.2" cy="-16" r="2.4" fill="#c9d0d8"/></g><rect x="28.0" y="-40.0" width="90.0" height="24.0" rx="4" fill="#343b44"/><rect x="34.0" y="-36.0" width="78.0" height="4" fill="#3a4049"/><g class="cc-wheel" data-cx="52.0" data-cy="-16" data-r="16"><circle cx="52.0" cy="-16" r="16" fill="#1b1f25"/><circle cx="52.0" cy="-16" r="12.5" fill="#2b313a"/><g stroke="#454d57" stroke-width="1.8" stroke-linecap="round"><line x1="42.0" y1="-16.0" x2="62.0" y2="-16.0"/><line x1="47.0" y1="-24.7" x2="57.0" y2="-7.3"/><line x1="57.0" y1="-24.7" x2="47.0" y2="-7.3"/></g><circle cx="52.0" cy="-16" r="3.8" fill="#8d949d"/><circle cx="60.8" cy="-16" r="2.4" fill="#c9d0d8"/></g><g class="cc-wheel" data-cx="94.0" data-cy="-16" data-r="16"><circle cx="94.0" cy="-16" r="16" fill="#1b1f25"/><circle cx="94.0" cy="-16" r="12.5" fill="#2b313a"/><g stroke="#454d57" stroke-width="1.8" stroke-linecap="round"><line x1="84.0" y1="-16.0" x2="104.0" y2="-16.0"/><line x1="89.0" y1="-24.7" x2="99.0" y2="-7.3"/><line x1="99.0" y1="-24.7" x2="89.0" y2="-7.3"/></g><circle cx="94.0" cy="-16" r="3.8" fill="#8d949d"/><circle cx="102.8" cy="-16" r="2.4" fill="#c9d0d8"/></g><rect x="-137.0" y="-49" width="12.0" height="6" fill="#2a2e35"/><rect x="-136.4" y="-52" width="6" height="12" rx="2" fill="#3a4049"/><rect x="125.0" y="-49" width="12.0" height="6" fill="#2a2e35"/><rect x="130.4" y="-52" width="6" height="12" rx="2" fill="#3a4049"/>
</svg>
