<?xml version="1.0" encoding="UTF-8"?>
<!-- Chuga Chocho — TANK CAR
     y=0 is the RAIL LINE, +x forward, faces RIGHT.
     Wheels: <g class="cc-wheel" data-cx data-cy data-r> — spin with rotate(deg cx cy),
     deg = distance / data-r (radians -> degrees).
     Recolour: .cc-loco .cc-wagon .cc-wagon2 .cc-roof .cc-trim .cc-brass -->
<svg xmlns="http://www.w3.org/2000/svg" viewBox="-150 -160 300 175" id="wagon-tanker">
  <ellipse cx="0.0" cy="2" rx="125.0" ry="6" fill="#000" opacity="0.17"/><rect x="-117.0" y="-54" width="234" height="12" rx="3" fill="#3a4049"/><rect class="cc-wagon" x="-104" y="-116" width="208" height="62" rx="31" fill="#b9c0c8"/><ellipse class="cc-wagon" cx="-104" cy="-85" rx="14" ry="31" fill="#a7aeb7"/><ellipse class="cc-wagon" cx="104" cy="-85" rx="14" ry="31" fill="#a7aeb7"/><rect x="-104" y="-116" width="208" height="18" rx="9" fill="#ffffff" opacity="0.22"/><g fill="#8f98a3"><rect x="-58" y="-116" width="4" height="62"/><rect x="-12" y="-116" width="4" height="62"/><rect x="34" y="-116" width="4" height="62"/><rect x="78" y="-116" width="4" height="62"/></g><rect class="cc-wagon" x="-16" y="-130" width="32" height="16" rx="4" fill="#a7aeb7"/><rect class="cc-brass" x="-12" y="-136" width="24" height="7" rx="3" fill="#d4a943"/><rect x="-60" y="-122" width="120" height="5" rx="2" fill="#8f98a3"/><g stroke="#8f98a3" stroke-width="2.5"><line x1="96" y1="-118" x2="96" y2="-56"/><line x1="88" y1="-106" x2="104" y2="-106"/><line x1="88" y1="-92" x2="104" y2="-92"/><line x1="88" y1="-78" x2="104" y2="-78"/><line x1="88" y1="-64" x2="104" y2="-64"/></g><g transform="translate(-88,-78) rotate(45)"><rect x="-9" y="-9" width="18" height="18" fill="#ffd24a"/></g><rect x="-117" y="-44" width="234" height="10" rx="2" fill="#2f343c"/><rect x="-100" y="-37" width="54" height="9" rx="3" fill="#262b33"/><rect x="46" y="-37" width="54" height="9" rx="3" fill="#262b33"/><rect x="-118.0" y="-40.0" width="90.0" height="24.0" rx="4" fill="#343b44"/><rect x="-112.0" y="-36.0" width="78.0" height="4" fill="#3a4049"/><g class="cc-wheel" data-cx="-94.0" data-cy="-16" data-r="16"><circle cx="-94.0" cy="-16" r="16" fill="#1b1f25"/><circle cx="-94.0" cy="-16" r="12.5" fill="#2b313a"/><g stroke="#454d57" stroke-width="1.8" stroke-linecap="round"><line x1="-104.0" y1="-16.0" x2="-84.0" y2="-16.0"/><line x1="-99.0" y1="-24.7" x2="-89.0" y2="-7.3"/><line x1="-89.0" y1="-24.7" x2="-99.0" y2="-7.3"/></g><circle cx="-94.0" cy="-16" r="3.8" fill="#8d949d"/><circle cx="-85.2" cy="-16" r="2.4" fill="#c9d0d8"/></g><g class="cc-wheel" data-cx="-52.0" data-cy="-16" data-r="16"><circle cx="-52.0" cy="-16" r="16" fill="#1b1f25"/><circle cx="-52.0" cy="-16" r="12.5" fill="#2b313a"/><g stroke="#454d57" stroke-width="1.8" stroke-linecap="round"><line x1="-62.0" y1="-16.0" x2="-42.0" y2="-16.0"/><line x1="-57.0" y1="-24.7" x2="-47.0" y2="-7.3"/><line x1="-47.0" y1="-24.7" x2="-57.0" y2="-7.3"/></g><circle cx="-52.0" cy="-16" r="3.8" fill="#8d949d"/><circle cx="-43.2" cy="-16" r="2.4" fill="#c9d0d8"/></g><rect x="28.0" y="-40.0" width="90.0" height="24.0" rx="4" fill="#343b44"/><rect x="34.0" y="-36.0" width="78.0" height="4" fill="#3a4049"/><g class="cc-wheel" data-cx="52.0" data-cy="-16" data-r="16"><circle cx="52.0" cy="-16" r="16" fill="#1b1f25"/><circle cx="52.0" cy="-16" r="12.5" fill="#2b313a"/><g stroke="#454d57" stroke-width="1.8" stroke-linecap="round"><line x1="42.0" y1="-16.0" x2="62.0" y2="-16.0"/><line x1="47.0" y1="-24.7" x2="57.0" y2="-7.3"/><line x1="57.0" y1="-24.7" x2="47.0" y2="-7.3"/></g><circle cx="52.0" cy="-16" r="3.8" fill="#8d949d"/><circle cx="60.8" cy="-16" r="2.4" fill="#c9d0d8"/></g><g class="cc-wheel" data-cx="94.0" data-cy="-16" data-r="16"><circle cx="94.0" cy="-16" r="16" fill="#1b1f25"/><circle cx="94.0" cy="-16" r="12.5" fill="#2b313a"/><g stroke="#454d57" stroke-width="1.8" stroke-linecap="round"><line x1="84.0" y1="-16.0" x2="104.0" y2="-16.0"/><line x1="89.0" y1="-24.7" x2="99.0" y2="-7.3"/><line x1="99.0" y1="-24.7" x2="89.0" y2="-7.3"/></g><circle cx="94.0" cy="-16" r="3.8" fill="#8d949d"/><circle cx="102.8" cy="-16" r="2.4" fill="#c9d0d8"/></g><rect x="-137.0" y="-49" width="12.0" height="6" fill="#2a2e35"/><rect x="-136.4" y="-52" width="6" height="12" rx="2" fill="#3a4049"/><rect x="125.0" y="-49" width="12.0" height="6" fill="#2a2e35"/><rect x="130.4" y="-52" width="6" height="12" rx="2" fill="#3a4049"/>
</svg>
